<svg width="22" height="18" viewBox="0 0 22 18" fill="none" xmlns="http://www.w3.org/2000/svg">
<path d="M13.7443 9L21.4258 2.71516C21.7903 2.41741 21.9954 2.01336 21.9959 1.59191C21.9963 1.17045 21.7921 0.76611 21.4282 0.467832C21.0643 0.169555 20.5705 0.00177586 20.0553 0.00140366C19.5402 0.00103146 19.046 0.168097 18.6815 0.465848L11 6.75069L3.31853 0.465848C2.95397 0.167571 2.45952 0 1.94395 0C1.42838 0 0.933931 0.167571 0.56937 0.465848C0.204809 0.764125 0 1.16868 0 1.5905C0 2.01233 0.204809 2.41688 0.56937 2.71516L8.25084 9L0.56937 15.2848C0.204809 15.5831 0 15.9877 0 16.4095C0 16.8313 0.204809 17.2359 0.56937 17.5342C0.933931 17.8324 1.42838 18 1.94395 18C2.45952 18 2.95397 17.8324 3.31853 17.5342L11 11.2493L18.6815 17.5342C19.046 17.8324 19.5405 18 20.0561 18C20.5716 18 21.0661 17.8324 21.4306 17.5342C21.7952 17.2359 22 16.8313 22 16.4095C22 15.9877 21.7952 15.5831 21.4306 15.2848L13.7443 9Z" fill="black"/>
</svg>
