<svg width="256" height="137" viewBox="0 0 256 137" fill="none" xmlns="http://www.w3.org/2000/svg">
<rect width="256" height="137" rx="6" fill="#5167F6"/>
<path d="M45 33C45 30.7909 46.7909 29 49 29H208C210.209 29 212 30.7909 212 33V137H45V33Z" fill="white"/>
<rect width="167" height="22" transform="translate(45 29)" fill="white"/>
<path d="M58.7148 42.2188H60.1523L60.875 43.1484L61.5859 43.9766L62.9258 45.6563H61.3477L60.4258 44.5234L59.9531 43.8516L58.7148 42.2188ZM63.0469 41C63.0469 41.8724 62.8815 42.6146 62.5508 43.2266C62.2227 43.8385 61.7747 44.306 61.207 44.6289C60.6419 44.9492 60.0065 45.1094 59.3008 45.1094C58.5898 45.1094 57.9518 44.9479 57.3867 44.625C56.8216 44.3021 56.375 43.8346 56.0469 43.2227C55.7188 42.6107 55.5547 41.8698 55.5547 41C55.5547 40.1276 55.7188 39.3854 56.0469 38.7734C56.375 38.1615 56.8216 37.6953 57.3867 37.375C57.9518 37.0521 58.5898 36.8906 59.3008 36.8906C60.0065 36.8906 60.6419 37.0521 61.207 37.375C61.7747 37.6953 62.2227 38.1615 62.5508 38.7734C62.8815 39.3854 63.0469 40.1276 63.0469 41ZM61.332 41C61.332 40.4349 61.2474 39.9583 61.0781 39.5703C60.9115 39.1823 60.6758 38.888 60.3711 38.6875C60.0664 38.487 59.7096 38.3867 59.3008 38.3867C58.8919 38.3867 58.5352 38.487 58.2305 38.6875C57.9258 38.888 57.6888 39.1823 57.5195 39.5703C57.3529 39.9583 57.2695 40.4349 57.2695 41C57.2695 41.5651 57.3529 42.0417 57.5195 42.4297C57.6888 42.8177 57.9258 43.112 58.2305 43.3125C58.5352 43.513 58.8919 43.6133 59.3008 43.6133C59.7096 43.6133 60.0664 43.513 60.3711 43.3125C60.6758 43.112 60.9115 42.8177 61.0781 42.4297C61.2474 42.0417 61.332 41.5651 61.332 41ZM68.1162 42.4453V39H69.7803V45H68.1826V43.9102H68.1201C67.9847 44.2617 67.7594 44.5443 67.4443 44.7578C67.1318 44.9714 66.7503 45.0781 66.2998 45.0781C65.8988 45.0781 65.5459 44.987 65.2412 44.8047C64.9365 44.6224 64.6982 44.3633 64.5264 44.0273C64.3571 43.6914 64.2712 43.2891 64.2686 42.8203V39H65.9326V42.5234C65.9352 42.8776 66.0303 43.1576 66.2178 43.3633C66.4053 43.569 66.6566 43.6719 66.9717 43.6719C67.1722 43.6719 67.3597 43.6263 67.5342 43.5352C67.7087 43.4414 67.8493 43.3034 67.9561 43.1211C68.0654 42.9388 68.1188 42.7135 68.1162 42.4453ZM73.8457 45.1172C73.2285 45.1172 72.6973 44.9922 72.252 44.7422C71.8092 44.4896 71.4681 44.1328 71.2285 43.6719C70.9889 43.2083 70.8691 42.6602 70.8691 42.0273C70.8691 41.4102 70.9889 40.8685 71.2285 40.4023C71.4681 39.9362 71.8053 39.5729 72.2402 39.3125C72.6777 39.0521 73.1908 38.9219 73.7793 38.9219C74.1751 38.9219 74.5436 38.9857 74.8848 39.1133C75.2285 39.2383 75.528 39.4271 75.7832 39.6797C76.041 39.9323 76.2415 40.25 76.3848 40.6328C76.528 41.013 76.5996 41.4583 76.5996 41.9687V42.4258H71.5332V41.3945H75.0332C75.0332 41.1549 74.9811 40.9427 74.877 40.7578C74.7728 40.5729 74.6283 40.4284 74.4434 40.3242C74.2611 40.2174 74.0488 40.1641 73.8066 40.1641C73.554 40.1641 73.3301 40.2227 73.1348 40.3398C72.9421 40.4544 72.791 40.6094 72.6816 40.8047C72.5723 40.9974 72.5163 41.2122 72.5137 41.4492V42.4297C72.5137 42.7266 72.5684 42.9831 72.6777 43.1992C72.7897 43.4154 72.9473 43.582 73.1504 43.6992C73.3535 43.8164 73.5944 43.875 73.873 43.875C74.0579 43.875 74.2272 43.849 74.3809 43.7969C74.5345 43.7448 74.666 43.6667 74.7754 43.5625C74.8848 43.4583 74.9681 43.3307 75.0254 43.1797L76.5645 43.2812C76.4863 43.651 76.3262 43.974 76.084 44.25C75.8444 44.5234 75.5345 44.737 75.1543 44.8906C74.7767 45.0417 74.3405 45.1172 73.8457 45.1172ZM82.6777 40.7109L81.1543 40.8047C81.1283 40.6745 81.0723 40.5573 80.9863 40.4531C80.9004 40.3464 80.7871 40.2617 80.6465 40.1992C80.5085 40.1341 80.3431 40.1016 80.1504 40.1016C79.8926 40.1016 79.6751 40.1562 79.498 40.2656C79.321 40.3724 79.2324 40.5156 79.2324 40.6953C79.2324 40.8385 79.2897 40.9596 79.4043 41.0586C79.5189 41.1576 79.7155 41.237 79.9941 41.2969L81.0801 41.5156C81.6634 41.6354 82.0983 41.8281 82.3848 42.0937C82.6712 42.3594 82.8145 42.7083 82.8145 43.1406C82.8145 43.5339 82.6986 43.8789 82.4668 44.1758C82.2376 44.4727 81.9225 44.7044 81.5215 44.8711C81.123 45.0352 80.6634 45.1172 80.1426 45.1172C79.3483 45.1172 78.7155 44.9518 78.2441 44.6211C77.7754 44.2878 77.5007 43.8346 77.4199 43.2617L79.0566 43.1758C79.1061 43.418 79.2259 43.6029 79.416 43.7305C79.6061 43.8555 79.8496 43.918 80.1465 43.918C80.4382 43.918 80.6725 43.862 80.8496 43.75C81.0293 43.6354 81.1204 43.4883 81.123 43.3086C81.1204 43.1576 81.0566 43.0339 80.9316 42.9375C80.8066 42.8385 80.6139 42.763 80.3535 42.7109L79.3145 42.5039C78.7285 42.3867 78.2923 42.1836 78.0059 41.8945C77.722 41.6055 77.5801 41.237 77.5801 40.7891C77.5801 40.4036 77.6842 40.0716 77.8926 39.793C78.1035 39.5143 78.3991 39.2995 78.7793 39.1484C79.1621 38.9974 79.61 38.9219 80.123 38.9219C80.8809 38.9219 81.4772 39.082 81.9121 39.4023C82.3496 39.7227 82.6048 40.1589 82.6777 40.7109ZM87.0537 39V40.25H83.4404V39H87.0537ZM84.2607 37.5625H85.9248V43.1562C85.9248 43.3099 85.9482 43.4297 85.9951 43.5156C86.042 43.599 86.1071 43.6576 86.1904 43.6914C86.2764 43.7253 86.3753 43.7422 86.4873 43.7422C86.5654 43.7422 86.6436 43.7357 86.7217 43.7227C86.7998 43.707 86.8597 43.6953 86.9014 43.6875L87.1631 44.9258C87.0798 44.9518 86.9626 44.9818 86.8115 45.0156C86.6605 45.0521 86.4769 45.0742 86.2607 45.082C85.8597 45.0977 85.5081 45.0443 85.2061 44.9219C84.9066 44.7995 84.6735 44.6094 84.5068 44.3516C84.3402 44.0937 84.2581 43.7682 84.2607 43.375V37.5625ZM88.1377 45V39H89.8018V45H88.1377ZM88.9736 38.2266C88.7262 38.2266 88.514 38.1445 88.3369 37.9805C88.1624 37.8138 88.0752 37.6146 88.0752 37.3828C88.0752 37.1536 88.1624 36.957 88.3369 36.793C88.514 36.6263 88.7262 36.543 88.9736 36.543C89.221 36.543 89.432 36.6263 89.6064 36.793C89.7835 36.957 89.8721 37.1536 89.8721 37.3828C89.8721 37.6146 89.7835 37.8138 89.6064 37.9805C89.432 38.1445 89.221 38.2266 88.9736 38.2266ZM93.8457 45.1172C93.2389 45.1172 92.7142 44.9883 92.2715 44.7305C91.8314 44.4701 91.4915 44.1081 91.252 43.6445C91.0124 43.1784 90.8926 42.638 90.8926 42.0234C90.8926 41.4036 91.0124 40.862 91.252 40.3984C91.4915 39.9323 91.8314 39.5703 92.2715 39.3125C92.7142 39.0521 93.2389 38.9219 93.8457 38.9219C94.4525 38.9219 94.9759 39.0521 95.416 39.3125C95.8587 39.5703 96.1999 39.9323 96.4395 40.3984C96.679 40.862 96.7988 41.4036 96.7988 42.0234C96.7988 42.638 96.679 43.1784 96.4395 43.6445C96.1999 44.1081 95.8587 44.4701 95.416 44.7305C94.9759 44.9883 94.4525 45.1172 93.8457 45.1172ZM93.8535 43.8281C94.1296 43.8281 94.36 43.75 94.5449 43.5938C94.7298 43.4349 94.8691 43.2187 94.9629 42.9453C95.0592 42.6719 95.1074 42.3607 95.1074 42.0117C95.1074 41.6628 95.0592 41.3516 94.9629 41.0781C94.8691 40.8047 94.7298 40.5885 94.5449 40.4297C94.36 40.2708 94.1296 40.1914 93.8535 40.1914C93.5749 40.1914 93.3405 40.2708 93.1504 40.4297C92.9629 40.5885 92.821 40.8047 92.7246 41.0781C92.6309 41.3516 92.584 41.6628 92.584 42.0117C92.584 42.3607 92.6309 42.6719 92.7246 42.9453C92.821 43.2187 92.9629 43.4349 93.1504 43.5938C93.3405 43.75 93.5749 43.8281 93.8535 43.8281ZM99.5449 41.5313V45H97.8809V39H99.4668V40.0586H99.5371C99.6699 39.7096 99.8926 39.4336 100.205 39.2305C100.518 39.0247 100.896 38.9219 101.342 38.9219C101.758 38.9219 102.122 39.013 102.432 39.1953C102.742 39.3776 102.982 39.638 103.154 39.9766C103.326 40.3125 103.412 40.7135 103.412 41.1797V45H101.748V41.4766C101.751 41.1094 101.657 40.8229 101.467 40.6172C101.277 40.4089 101.015 40.3047 100.682 40.3047C100.458 40.3047 100.26 40.3529 100.088 40.4492C99.9186 40.5456 99.7858 40.6862 99.6895 40.8711C99.5957 41.0534 99.5475 41.2734 99.5449 41.5313ZM109.716 40.7109L108.192 40.8047C108.166 40.6745 108.11 40.5573 108.024 40.4531C107.938 40.3464 107.825 40.2617 107.685 40.1992C107.547 40.1341 107.381 40.1016 107.188 40.1016C106.931 40.1016 106.713 40.1562 106.536 40.2656C106.359 40.3724 106.271 40.5156 106.271 40.6953C106.271 40.8385 106.328 40.9596 106.442 41.0586C106.557 41.1576 106.754 41.237 107.032 41.2969L108.118 41.5156C108.701 41.6354 109.136 41.8281 109.423 42.0937C109.709 42.3594 109.853 42.7083 109.853 43.1406C109.853 43.5339 109.737 43.8789 109.505 44.1758C109.276 44.4727 108.961 44.7044 108.56 44.8711C108.161 45.0352 107.701 45.1172 107.181 45.1172C106.386 45.1172 105.754 44.9518 105.282 44.6211C104.813 44.2878 104.539 43.8346 104.458 43.2617L106.095 43.1758C106.144 43.418 106.264 43.6029 106.454 43.7305C106.644 43.8555 106.888 43.918 107.185 43.918C107.476 43.918 107.711 43.862 107.888 43.75C108.067 43.6354 108.159 43.4883 108.161 43.3086C108.159 43.1576 108.095 43.0339 107.97 42.9375C107.845 42.8385 107.652 42.763 107.392 42.7109L106.353 42.5039C105.767 42.3867 105.33 42.1836 105.044 41.8945C104.76 41.6055 104.618 41.237 104.618 40.7891C104.618 40.4036 104.722 40.0716 104.931 39.793C105.142 39.5143 105.437 39.2995 105.817 39.1484C106.2 38.9974 106.648 38.9219 107.161 38.9219C107.919 38.9219 108.515 39.082 108.95 39.4023C109.388 39.7227 109.643 40.1589 109.716 40.7109ZM114.856 45H113.044L115.806 37H117.985L120.743 45H118.931L116.927 38.8281H116.864L114.856 45ZM114.743 41.8555H119.024V43.1758H114.743V41.8555ZM121.706 45V37H123.37V40.0078H123.421C123.494 39.8464 123.599 39.6823 123.737 39.5156C123.878 39.3464 124.06 39.2057 124.284 39.0938C124.511 38.9792 124.792 38.9219 125.128 38.9219C125.565 38.9219 125.969 39.0365 126.339 39.2656C126.709 39.4922 127.004 39.8346 127.226 40.293C127.447 40.7487 127.558 41.3203 127.558 42.0078C127.558 42.6771 127.45 43.2422 127.233 43.7031C127.02 44.1615 126.728 44.5091 126.358 44.7461C125.991 44.9805 125.58 45.0977 125.124 45.0977C124.801 45.0977 124.526 45.0443 124.3 44.9375C124.076 44.8307 123.892 44.6966 123.749 44.5352C123.606 44.3711 123.496 44.2057 123.421 44.0391H123.347V45H121.706ZM123.335 42C123.335 42.3568 123.384 42.668 123.483 42.9336C123.582 43.1992 123.726 43.4062 123.913 43.5547C124.101 43.7005 124.328 43.7734 124.597 43.7734C124.868 43.7734 125.097 43.6992 125.284 43.5508C125.472 43.3997 125.614 43.1914 125.71 42.9258C125.809 42.6576 125.858 42.349 125.858 42C125.858 41.6536 125.81 41.349 125.714 41.0859C125.618 40.8229 125.476 40.6172 125.288 40.4687C125.101 40.3203 124.87 40.2461 124.597 40.2461C124.326 40.2461 124.097 40.3177 123.909 40.4609C123.724 40.6042 123.582 40.8073 123.483 41.0703C123.384 41.3333 123.335 41.6432 123.335 42ZM131.379 45.1172C130.772 45.1172 130.247 44.9883 129.805 44.7305C129.365 44.4701 129.025 44.1081 128.785 43.6445C128.546 43.1784 128.426 42.638 128.426 42.0234C128.426 41.4036 128.546 40.862 128.785 40.3984C129.025 39.9323 129.365 39.5703 129.805 39.3125C130.247 39.0521 130.772 38.9219 131.379 38.9219C131.986 38.9219 132.509 39.0521 132.949 39.3125C133.392 39.5703 133.733 39.9323 133.973 40.3984C134.212 40.862 134.332 41.4036 134.332 42.0234C134.332 42.638 134.212 43.1784 133.973 43.6445C133.733 44.1081 133.392 44.4701 132.949 44.7305C132.509 44.9883 131.986 45.1172 131.379 45.1172ZM131.387 43.8281C131.663 43.8281 131.893 43.75 132.078 43.5938C132.263 43.4349 132.402 43.2187 132.496 42.9453C132.592 42.6719 132.641 42.3607 132.641 42.0117C132.641 41.6628 132.592 41.3516 132.496 41.0781C132.402 40.8047 132.263 40.5885 132.078 40.4297C131.893 40.2708 131.663 40.1914 131.387 40.1914C131.108 40.1914 130.874 40.2708 130.684 40.4297C130.496 40.5885 130.354 40.8047 130.258 41.0781C130.164 41.3516 130.117 41.6628 130.117 42.0117C130.117 42.3607 130.164 42.6719 130.258 42.9453C130.354 43.2187 130.496 43.4349 130.684 43.5938C130.874 43.75 131.108 43.8281 131.387 43.8281ZM139.262 42.4453V39H140.926V45H139.328V43.9102H139.266C139.13 44.2617 138.905 44.5443 138.59 44.7578C138.277 44.9714 137.896 45.0781 137.445 45.0781C137.044 45.0781 136.691 44.987 136.387 44.8047C136.082 44.6224 135.844 44.3633 135.672 44.0273C135.503 43.6914 135.417 43.2891 135.414 42.8203V39H137.078V42.5234C137.081 42.8776 137.176 43.1576 137.363 43.3633C137.551 43.569 137.802 43.6719 138.117 43.6719C138.318 43.6719 138.505 43.6263 138.68 43.5352C138.854 43.4414 138.995 43.3034 139.102 43.1211C139.211 42.9388 139.264 42.7135 139.262 42.4453ZM145.448 39V40.25H141.835V39H145.448ZM142.655 37.5625H144.319V43.1562C144.319 43.3099 144.343 43.4297 144.39 43.5156C144.437 43.599 144.502 43.6576 144.585 43.6914C144.671 43.7253 144.77 43.7422 144.882 43.7422C144.96 43.7422 145.038 43.7357 145.116 43.7227C145.194 43.707 145.254 43.6953 145.296 43.6875L145.558 44.9258C145.474 44.9518 145.357 44.9818 145.206 45.0156C145.055 45.0521 144.871 45.0742 144.655 45.082C144.254 45.0977 143.903 45.0443 143.601 44.9219C143.301 44.7995 143.068 44.6094 142.901 44.3516C142.735 44.0937 142.653 43.7682 142.655 43.375V37.5625ZM151.945 45H149.109V37H151.969C152.773 37 153.466 37.1602 154.047 37.4805C154.628 37.7982 155.074 38.2552 155.387 38.8516C155.702 39.4479 155.859 40.1615 155.859 40.9922C155.859 41.8255 155.702 42.5417 155.387 43.1406C155.074 43.7396 154.625 44.1992 154.039 44.5195C153.456 44.8398 152.758 45 151.945 45ZM150.801 43.5508H151.875C152.375 43.5508 152.796 43.4622 153.137 43.2852C153.48 43.1055 153.738 42.8281 153.91 42.4531C154.085 42.0755 154.172 41.5885 154.172 40.9922C154.172 40.401 154.085 39.918 153.91 39.543C153.738 39.168 153.482 38.8919 153.141 38.7148C152.799 38.5378 152.379 38.4492 151.879 38.4492H150.801V43.5508ZM159.792 45.1172C159.185 45.1172 158.66 44.9883 158.218 44.7305C157.778 44.4701 157.438 44.1081 157.198 43.6445C156.959 43.1784 156.839 42.638 156.839 42.0234C156.839 41.4036 156.959 40.862 157.198 40.3984C157.438 39.9323 157.778 39.5703 158.218 39.3125C158.66 39.0521 159.185 38.9219 159.792 38.9219C160.399 38.9219 160.922 39.0521 161.362 39.3125C161.805 39.5703 162.146 39.9323 162.386 40.3984C162.625 40.862 162.745 41.4036 162.745 42.0234C162.745 42.638 162.625 43.1784 162.386 43.6445C162.146 44.1081 161.805 44.4701 161.362 44.7305C160.922 44.9883 160.399 45.1172 159.792 45.1172ZM159.8 43.8281C160.076 43.8281 160.306 43.75 160.491 43.5938C160.676 43.4349 160.815 43.2187 160.909 42.9453C161.006 42.6719 161.054 42.3607 161.054 42.0117C161.054 41.6628 161.006 41.3516 160.909 41.0781C160.815 40.8047 160.676 40.5885 160.491 40.4297C160.306 40.2708 160.076 40.1914 159.8 40.1914C159.521 40.1914 159.287 40.2708 159.097 40.4297C158.909 40.5885 158.767 40.8047 158.671 41.0781C158.577 41.3516 158.53 41.6628 158.53 42.0117C158.53 42.3607 158.577 42.6719 158.671 42.9453C158.767 43.2187 158.909 43.4349 159.097 43.5938C159.287 43.75 159.521 43.8281 159.8 43.8281ZM166.53 47.375C165.991 47.375 165.529 47.3008 165.144 47.1523C164.761 47.0065 164.456 46.8073 164.229 46.5547C164.003 46.3021 163.856 46.0182 163.788 45.7031L165.327 45.4961C165.374 45.6159 165.448 45.7279 165.55 45.832C165.651 45.9362 165.785 46.0195 165.952 46.082C166.121 46.1471 166.327 46.1797 166.569 46.1797C166.931 46.1797 167.229 46.0911 167.464 45.9141C167.701 45.7396 167.819 45.4466 167.819 45.0352V43.9375H167.749C167.676 44.1042 167.567 44.2617 167.421 44.4102C167.275 44.5586 167.088 44.6797 166.858 44.7734C166.629 44.8672 166.356 44.9141 166.038 44.9141C165.588 44.9141 165.177 44.8099 164.808 44.6016C164.44 44.3906 164.147 44.069 163.929 43.6367C163.713 43.2018 163.604 42.6523 163.604 41.9883C163.604 41.3086 163.715 40.7409 163.937 40.2852C164.158 39.8294 164.452 39.4883 164.819 39.2617C165.189 39.0352 165.594 38.9219 166.034 38.9219C166.37 38.9219 166.651 38.9792 166.878 39.0938C167.104 39.2057 167.287 39.3464 167.425 39.5156C167.565 39.6823 167.674 39.8464 167.749 40.0078H167.812V39H169.464V45.0586C169.464 45.569 169.339 45.9961 169.089 46.3398C168.839 46.6836 168.493 46.9414 168.05 47.1133C167.61 47.2878 167.103 47.375 166.53 47.375ZM166.565 43.6641C166.834 43.6641 167.06 43.5977 167.245 43.4648C167.433 43.3294 167.576 43.1367 167.675 42.8867C167.776 42.6341 167.827 42.332 167.827 41.9805C167.827 41.6289 167.778 41.3242 167.679 41.0664C167.58 40.806 167.437 40.6042 167.249 40.4609C167.062 40.3177 166.834 40.2461 166.565 40.2461C166.292 40.2461 166.062 40.3203 165.874 40.4687C165.687 40.6146 165.545 40.8177 165.448 41.0781C165.352 41.3385 165.304 41.6393 165.304 41.9805C165.304 42.3268 165.352 42.6263 165.448 42.8789C165.547 43.1289 165.689 43.3229 165.874 43.4609C166.062 43.5964 166.292 43.6641 166.565 43.6641ZM175.78 40.7109L174.257 40.8047C174.231 40.6745 174.175 40.5573 174.089 40.4531C174.003 40.3464 173.89 40.2617 173.749 40.1992C173.611 40.1341 173.446 40.1016 173.253 40.1016C172.995 40.1016 172.778 40.1562 172.601 40.2656C172.424 40.3724 172.335 40.5156 172.335 40.6953C172.335 40.8385 172.392 40.9596 172.507 41.0586C172.621 41.1576 172.818 41.237 173.097 41.2969L174.183 41.5156C174.766 41.6354 175.201 41.8281 175.487 42.0937C175.774 42.3594 175.917 42.7083 175.917 43.1406C175.917 43.5339 175.801 43.8789 175.569 44.1758C175.34 44.4727 175.025 44.7044 174.624 44.8711C174.226 45.0352 173.766 45.1172 173.245 45.1172C172.451 45.1172 171.818 44.9518 171.347 44.6211C170.878 44.2878 170.603 43.8346 170.522 43.2617L172.159 43.1758C172.209 43.418 172.328 43.6029 172.519 43.7305C172.709 43.8555 172.952 43.918 173.249 43.918C173.541 43.918 173.775 43.862 173.952 43.75C174.132 43.6354 174.223 43.4883 174.226 43.3086C174.223 43.1576 174.159 43.0339 174.034 42.9375C173.909 42.8385 173.716 42.763 173.456 42.7109L172.417 42.5039C171.831 42.3867 171.395 42.1836 171.108 41.8945C170.825 41.6055 170.683 41.237 170.683 40.7891C170.683 40.4036 170.787 40.0716 170.995 39.793C171.206 39.5143 171.502 39.2995 171.882 39.1484C172.265 38.9974 172.713 38.9219 173.226 38.9219C173.983 38.9219 174.58 39.082 175.015 39.4023C175.452 39.7227 175.707 40.1589 175.78 40.7109Z" fill="#5167F6"/>
<mask id="path-4-inside-1_903_2102" fill="white">
<path d="M52 51H205V83H52V51Z"/>
</mask>
<path d="M52 51H205V83H52V51Z" fill="white"/>
<path d="M205 82.5H52V83.5H205V82.5Z" fill="#9F9F9F" mask="url(#path-4-inside-1_903_2102)"/>
<rect x="55" y="54" width="56" height="4" rx="2" fill="#EBEBEB"/>
<mask id="path-7-inside-2_903_2102" fill="white">
<path d="M52 88H205V129H52V88Z"/>
</mask>
<path d="M52 88H205V129H52V88Z" fill="white"/>
<path d="M205 128.5H52V129.5H205V128.5Z" fill="#9F9F9F" mask="url(#path-7-inside-2_903_2102)"/>
<mask id="path-9-inside-3_903_2102" fill="white">
<path d="M55 100H139V117H55V100Z"/>
</mask>
<path d="M55 100H139V117H55V100Z" fill="white"/>
<path d="M139 116.5H55V117.5H139V116.5Z" fill="#C2C2C2" mask="url(#path-9-inside-3_903_2102)"/>
<rect x="55" y="93" width="68" height="4" rx="2" fill="#EBEBEB"/>
<rect x="62" y="63" width="15" height="3.33333" rx="1.66667" fill="#EBEBEB"/>
<path d="M62 70.5002C62 69.5797 62.7462 68.8335 63.6667 68.8335H75.3333C76.2538 68.8335 77 69.5797 77 70.5002V70.5002C77 71.4206 76.2538 72.1668 75.3333 72.1668H63.6667C62.7462 72.1668 62 71.4206 62 70.5002V70.5002Z" fill="#EBEBEB"/>
<path d="M62 76.3332C62 75.4127 62.7462 74.6665 63.6667 74.6665H75.3333C76.2538 74.6665 77 75.4127 77 76.3332V76.3332C77 77.2536 76.2538 77.9998 75.3333 77.9998H63.6667C62.7462 77.9998 62 77.2536 62 76.3332V76.3332Z" fill="#EBEBEB"/>
<ellipse cx="57" cy="64.6667" rx="2" ry="1.66667" fill="#EBEBEB"/>
<ellipse cx="57" cy="70.5002" rx="2" ry="1.66667" fill="#EBEBEB"/>
<ellipse cx="57" cy="76.3332" rx="2" ry="1.66667" fill="#EBEBEB"/>
<rect x="45" y="10" width="167" height="13" rx="4" fill="white"/>
<rect x="52" y="13" width="29" height="7" rx="2" fill="#5167F6"/>
<rect x="86" y="13" width="29" height="7" rx="2" fill="#5167F6"/>
<rect x="120" y="13" width="29" height="7" rx="2" fill="#5167F6"/>
<rect x="154" y="13" width="29" height="7" rx="2" fill="#5167F6"/>
</svg>
