<svg width="32" height="32" viewBox="0 0 32 32" fill="none" xmlns="http://www.w3.org/2000/svg">
<path d="M10 9H14M10 16H22M10 20H22M10 24H14M8 29H24C24.5304 29 25.0391 28.7893 25.4142 28.4142C25.7893 28.0391 26 27.5304 26 27V5C26 4.46957 25.7893 3.96086 25.4142 3.58579C25.0391 3.21071 24.5304 3 24 3H8C7.46957 3 6.96086 3.21071 6.58579 3.58579C6.21071 3.96086 6 4.46957 6 5V27C6 27.5304 6.21071 28.0391 6.58579 28.4142C6.96086 28.7893 7.46957 29 8 29Z" stroke="black" stroke-width="2" stroke-linecap="round" stroke-linejoin="round"/>
<path d="M22 9.5C22.2761 9.5 22.5 9.27614 22.5 9C22.5 8.72386 22.2761 8.5 22 8.5C21.7239 8.5 21.5 8.72386 21.5 9C21.5 9.27614 21.7239 9.5 22 9.5Z" fill="black" stroke="black"/>
</svg>
