<svg width="15" height="8" viewBox="0 0 15 8" fill="none" xmlns="http://www.w3.org/2000/svg">
<path d="M7.56696 7.60886L13.9032 1.04832C14.009 0.938858 14.0668 0.795008 14.0648 0.646613C14.0628 0.498217 14.0011 0.356663 13.8924 0.251309L13.885 0.244517C13.8323 0.193263 13.7692 0.152857 13.6994 0.125756C13.6297 0.0986553 13.5548 0.0854263 13.4793 0.0868738C13.4038 0.0883213 13.3294 0.104415 13.2604 0.134176C13.1914 0.163938 13.1294 0.206744 13.0781 0.259991L7.11182 6.43793L0.98339 0.49194C0.930696 0.440686 0.867557 0.40028 0.797814 0.373179C0.728071 0.346078 0.653184 0.332849 0.577706 0.334296C0.502228 0.335744 0.427738 0.351838 0.358767 0.381599C0.289797 0.41136 0.227786 0.454166 0.176511 0.507414L0.169346 0.514484C0.0635682 0.623951 0.00568344 0.767799 0.00769755 0.916195C0.00971165 1.06459 0.0714701 1.20615 0.180163 1.3115L6.69112 7.62565C6.74838 7.68119 6.81694 7.72495 6.89263 7.75431C6.96832 7.78366 7.04958 7.79798 7.13147 7.79641C7.21337 7.79484 7.29419 7.77741 7.36905 7.74517C7.44391 7.71293 7.51124 7.66656 7.56696 7.60886Z" fill="white"/>
</svg>
