<svg width="445" height="277" viewBox="0 0 445 277" fill="none" xmlns="http://www.w3.org/2000/svg">
<rect x="35" width="410" height="239" rx="6" fill="#465EFE"/>
<g clip-path="url(#clip0_898_600)">
<rect y="39" width="410" height="238" rx="6" fill="#5167F6"/>
<g clip-path="url(#clip1_898_600)">
<rect x="103" y="97" width="205" height="193" rx="6" fill="white"/>
<rect x="113.5" y="130.5" width="184" height="103" rx="5.5" fill="white" stroke="#9F9F9F"/>
<rect x="179" y="147.339" width="18.8396" height="4.39477" fill="#FF9F40"/>
<rect x="179" y="138" width="18.8396" height="4.39477" fill="#36A2EB"/>
<rect x="214.248" y="138" width="18.8396" height="4.39477" fill="#FF6384"/>
<rect x="214.248" y="147.339" width="18.8396" height="4.39477" fill="#FFCD56"/>
<path d="M206 158.875C215.268 158.875 224.156 162.145 230.71 167.966C237.263 173.787 240.945 181.681 240.945 189.913C240.945 198.145 237.263 206.04 230.71 211.86C224.156 217.681 215.268 220.951 206 220.951L206 189.913V158.875Z" fill="#36A2EB"/>
<path d="M177.52 173.124C180.7 168.856 184.966 165.342 189.947 162.889C194.927 160.436 200.471 159.117 206.096 159.048L206 190.462L177.52 173.124Z" fill="#FACE66"/>
<path d="M176.321 206.071C173.038 200.97 171.374 195.155 171.517 189.284C171.66 183.413 173.605 177.721 177.132 172.853L206 190.462L176.321 206.071Z" fill="#FF9F40"/>
<path d="M206 220.951C200.017 220.951 194.134 219.599 188.915 217.023C183.696 214.448 179.315 210.736 176.192 206.243L206 190.188V220.951Z" fill="#FF6384"/>
<rect x="113.5" y="240.5" width="184" height="68" rx="5.5" fill="white" stroke="#9F9F9F"/>
<rect x="119" y="251" width="175" height="19" rx="6" fill="#F0F8FF"/>
<rect x="119" y="275" width="175" height="19" rx="6" fill="#F0F8FF"/>
<path d="M116.715 114.219H118.152L118.875 115.148L119.586 115.977L120.926 117.656H119.348L118.426 116.523L117.953 115.852L116.715 114.219ZM121.047 113C121.047 113.872 120.882 114.615 120.551 115.227C120.223 115.839 119.775 116.306 119.207 116.629C118.642 116.949 118.007 117.109 117.301 117.109C116.59 117.109 115.952 116.948 115.387 116.625C114.822 116.302 114.375 115.835 114.047 115.223C113.719 114.611 113.555 113.87 113.555 113C113.555 112.128 113.719 111.385 114.047 110.773C114.375 110.161 114.822 109.695 115.387 109.375C115.952 109.052 116.59 108.891 117.301 108.891C118.007 108.891 118.642 109.052 119.207 109.375C119.775 109.695 120.223 110.161 120.551 110.773C120.882 111.385 121.047 112.128 121.047 113ZM119.332 113C119.332 112.435 119.247 111.958 119.078 111.57C118.911 111.182 118.676 110.888 118.371 110.688C118.066 110.487 117.71 110.387 117.301 110.387C116.892 110.387 116.535 110.487 116.23 110.688C115.926 110.888 115.689 111.182 115.52 111.57C115.353 111.958 115.27 112.435 115.27 113C115.27 113.565 115.353 114.042 115.52 114.43C115.689 114.818 115.926 115.112 116.23 115.312C116.535 115.513 116.892 115.613 117.301 115.613C117.71 115.613 118.066 115.513 118.371 115.312C118.676 115.112 118.911 114.818 119.078 114.43C119.247 114.042 119.332 113.565 119.332 113ZM126.116 114.445V111H127.78V117H126.183V115.91H126.12C125.985 116.262 125.759 116.544 125.444 116.758C125.132 116.971 124.75 117.078 124.3 117.078C123.899 117.078 123.546 116.987 123.241 116.805C122.937 116.622 122.698 116.363 122.526 116.027C122.357 115.691 122.271 115.289 122.269 114.82V111H123.933V114.523C123.935 114.878 124.03 115.158 124.218 115.363C124.405 115.569 124.657 115.672 124.972 115.672C125.172 115.672 125.36 115.626 125.534 115.535C125.709 115.441 125.849 115.303 125.956 115.121C126.065 114.939 126.119 114.714 126.116 114.445ZM131.846 117.117C131.229 117.117 130.697 116.992 130.252 116.742C129.809 116.49 129.468 116.133 129.229 115.672C128.989 115.208 128.869 114.66 128.869 114.027C128.869 113.41 128.989 112.868 129.229 112.402C129.468 111.936 129.805 111.573 130.24 111.312C130.678 111.052 131.191 110.922 131.779 110.922C132.175 110.922 132.544 110.986 132.885 111.113C133.229 111.238 133.528 111.427 133.783 111.68C134.041 111.932 134.242 112.25 134.385 112.633C134.528 113.013 134.6 113.458 134.6 113.969V114.426H129.533V113.395H133.033C133.033 113.155 132.981 112.943 132.877 112.758C132.773 112.573 132.628 112.428 132.443 112.324C132.261 112.217 132.049 112.164 131.807 112.164C131.554 112.164 131.33 112.223 131.135 112.34C130.942 112.454 130.791 112.609 130.682 112.805C130.572 112.997 130.516 113.212 130.514 113.449V114.43C130.514 114.727 130.568 114.983 130.678 115.199C130.79 115.415 130.947 115.582 131.15 115.699C131.354 115.816 131.594 115.875 131.873 115.875C132.058 115.875 132.227 115.849 132.381 115.797C132.535 115.745 132.666 115.667 132.775 115.562C132.885 115.458 132.968 115.331 133.025 115.18L134.564 115.281C134.486 115.651 134.326 115.974 134.084 116.25C133.844 116.523 133.535 116.737 133.154 116.891C132.777 117.042 132.34 117.117 131.846 117.117ZM140.678 112.711L139.154 112.805C139.128 112.674 139.072 112.557 138.986 112.453C138.9 112.346 138.787 112.262 138.646 112.199C138.508 112.134 138.343 112.102 138.15 112.102C137.893 112.102 137.675 112.156 137.498 112.266C137.321 112.372 137.232 112.516 137.232 112.695C137.232 112.839 137.29 112.96 137.404 113.059C137.519 113.158 137.715 113.237 137.994 113.297L139.08 113.516C139.663 113.635 140.098 113.828 140.385 114.094C140.671 114.359 140.814 114.708 140.814 115.141C140.814 115.534 140.699 115.879 140.467 116.176C140.238 116.473 139.923 116.704 139.521 116.871C139.123 117.035 138.663 117.117 138.143 117.117C137.348 117.117 136.715 116.952 136.244 116.621C135.775 116.288 135.501 115.835 135.42 115.262L137.057 115.176C137.106 115.418 137.226 115.603 137.416 115.73C137.606 115.855 137.85 115.918 138.146 115.918C138.438 115.918 138.673 115.862 138.85 115.75C139.029 115.635 139.12 115.488 139.123 115.309C139.12 115.158 139.057 115.034 138.932 114.938C138.807 114.839 138.614 114.763 138.354 114.711L137.314 114.504C136.729 114.387 136.292 114.184 136.006 113.895C135.722 113.605 135.58 113.237 135.58 112.789C135.58 112.404 135.684 112.072 135.893 111.793C136.104 111.514 136.399 111.299 136.779 111.148C137.162 110.997 137.61 110.922 138.123 110.922C138.881 110.922 139.477 111.082 139.912 111.402C140.35 111.723 140.605 112.159 140.678 112.711ZM145.054 111V112.25H141.44V111H145.054ZM142.261 109.562H143.925V115.156C143.925 115.31 143.948 115.43 143.995 115.516C144.042 115.599 144.107 115.658 144.19 115.691C144.276 115.725 144.375 115.742 144.487 115.742C144.565 115.742 144.644 115.736 144.722 115.723C144.8 115.707 144.86 115.695 144.901 115.687L145.163 116.926C145.08 116.952 144.963 116.982 144.812 117.016C144.66 117.052 144.477 117.074 144.261 117.082C143.86 117.098 143.508 117.044 143.206 116.922C142.907 116.799 142.674 116.609 142.507 116.352C142.34 116.094 142.258 115.768 142.261 115.375V109.562ZM146.138 117V111H147.802V117H146.138ZM146.974 110.227C146.726 110.227 146.514 110.145 146.337 109.98C146.162 109.814 146.075 109.615 146.075 109.383C146.075 109.154 146.162 108.957 146.337 108.793C146.514 108.626 146.726 108.543 146.974 108.543C147.221 108.543 147.432 108.626 147.606 108.793C147.784 108.957 147.872 109.154 147.872 109.383C147.872 109.615 147.784 109.814 147.606 109.98C147.432 110.145 147.221 110.227 146.974 110.227ZM151.846 117.117C151.239 117.117 150.714 116.988 150.271 116.73C149.831 116.47 149.492 116.108 149.252 115.645C149.012 115.178 148.893 114.638 148.893 114.023C148.893 113.404 149.012 112.862 149.252 112.398C149.492 111.932 149.831 111.57 150.271 111.312C150.714 111.052 151.239 110.922 151.846 110.922C152.452 110.922 152.976 111.052 153.416 111.312C153.859 111.57 154.2 111.932 154.439 112.398C154.679 112.862 154.799 113.404 154.799 114.023C154.799 114.638 154.679 115.178 154.439 115.645C154.2 116.108 153.859 116.47 153.416 116.73C152.976 116.988 152.452 117.117 151.846 117.117ZM151.854 115.828C152.13 115.828 152.36 115.75 152.545 115.594C152.73 115.435 152.869 115.219 152.963 114.945C153.059 114.672 153.107 114.361 153.107 114.012C153.107 113.663 153.059 113.352 152.963 113.078C152.869 112.805 152.73 112.589 152.545 112.43C152.36 112.271 152.13 112.191 151.854 112.191C151.575 112.191 151.34 112.271 151.15 112.43C150.963 112.589 150.821 112.805 150.725 113.078C150.631 113.352 150.584 113.663 150.584 114.012C150.584 114.361 150.631 114.672 150.725 114.945C150.821 115.219 150.963 115.435 151.15 115.594C151.34 115.75 151.575 115.828 151.854 115.828ZM157.545 113.531V117H155.881V111H157.467V112.059H157.537C157.67 111.71 157.893 111.434 158.205 111.23C158.518 111.025 158.896 110.922 159.342 110.922C159.758 110.922 160.122 111.013 160.432 111.195C160.742 111.378 160.982 111.638 161.154 111.977C161.326 112.312 161.412 112.714 161.412 113.18V117H159.748V113.477C159.751 113.109 159.657 112.823 159.467 112.617C159.277 112.409 159.015 112.305 158.682 112.305C158.458 112.305 158.26 112.353 158.088 112.449C157.919 112.546 157.786 112.686 157.689 112.871C157.596 113.053 157.548 113.273 157.545 113.531ZM167.716 112.711L166.192 112.805C166.166 112.674 166.11 112.557 166.024 112.453C165.938 112.346 165.825 112.262 165.685 112.199C165.547 112.134 165.381 112.102 165.188 112.102C164.931 112.102 164.713 112.156 164.536 112.266C164.359 112.372 164.271 112.516 164.271 112.695C164.271 112.839 164.328 112.96 164.442 113.059C164.557 113.158 164.754 113.237 165.032 113.297L166.118 113.516C166.701 113.635 167.136 113.828 167.423 114.094C167.709 114.359 167.853 114.708 167.853 115.141C167.853 115.534 167.737 115.879 167.505 116.176C167.276 116.473 166.961 116.704 166.56 116.871C166.161 117.035 165.701 117.117 165.181 117.117C164.386 117.117 163.754 116.952 163.282 116.621C162.813 116.288 162.539 115.835 162.458 115.262L164.095 115.176C164.144 115.418 164.264 115.603 164.454 115.73C164.644 115.855 164.888 115.918 165.185 115.918C165.476 115.918 165.711 115.862 165.888 115.75C166.067 115.635 166.159 115.488 166.161 115.309C166.159 115.158 166.095 115.034 165.97 114.938C165.845 114.839 165.652 114.763 165.392 114.711L164.353 114.504C163.767 114.387 163.33 114.184 163.044 113.895C162.76 113.605 162.618 113.237 162.618 112.789C162.618 112.404 162.722 112.072 162.931 111.793C163.142 111.514 163.437 111.299 163.817 111.148C164.2 110.997 164.648 110.922 165.161 110.922C165.919 110.922 166.515 111.082 166.95 111.402C167.388 111.723 167.643 112.159 167.716 112.711ZM172.856 117H171.044L173.806 109H175.985L178.743 117H176.931L174.927 110.828H174.864L172.856 117ZM172.743 113.855H177.024V115.176H172.743V113.855ZM179.706 117V109H181.37V112.008H181.421C181.494 111.846 181.599 111.682 181.737 111.516C181.878 111.346 182.06 111.206 182.284 111.094C182.511 110.979 182.792 110.922 183.128 110.922C183.565 110.922 183.969 111.036 184.339 111.266C184.709 111.492 185.004 111.835 185.226 112.293C185.447 112.749 185.558 113.32 185.558 114.008C185.558 114.677 185.45 115.242 185.233 115.703C185.02 116.161 184.728 116.509 184.358 116.746C183.991 116.98 183.58 117.098 183.124 117.098C182.801 117.098 182.526 117.044 182.3 116.937C182.076 116.831 181.892 116.697 181.749 116.535C181.606 116.371 181.496 116.206 181.421 116.039H181.347V117H179.706ZM181.335 114C181.335 114.357 181.384 114.668 181.483 114.934C181.582 115.199 181.726 115.406 181.913 115.555C182.101 115.701 182.328 115.773 182.597 115.773C182.868 115.773 183.097 115.699 183.284 115.551C183.472 115.4 183.614 115.191 183.71 114.926C183.809 114.658 183.858 114.349 183.858 114C183.858 113.654 183.81 113.349 183.714 113.086C183.618 112.823 183.476 112.617 183.288 112.469C183.101 112.32 182.87 112.246 182.597 112.246C182.326 112.246 182.097 112.318 181.909 112.461C181.724 112.604 181.582 112.807 181.483 113.07C181.384 113.333 181.335 113.643 181.335 114ZM189.379 117.117C188.772 117.117 188.247 116.988 187.805 116.73C187.365 116.47 187.025 116.108 186.785 115.645C186.546 115.178 186.426 114.638 186.426 114.023C186.426 113.404 186.546 112.862 186.785 112.398C187.025 111.932 187.365 111.57 187.805 111.312C188.247 111.052 188.772 110.922 189.379 110.922C189.986 110.922 190.509 111.052 190.949 111.312C191.392 111.57 191.733 111.932 191.973 112.398C192.212 112.862 192.332 113.404 192.332 114.023C192.332 114.638 192.212 115.178 191.973 115.645C191.733 116.108 191.392 116.47 190.949 116.73C190.509 116.988 189.986 117.117 189.379 117.117ZM189.387 115.828C189.663 115.828 189.893 115.75 190.078 115.594C190.263 115.435 190.402 115.219 190.496 114.945C190.592 114.672 190.641 114.361 190.641 114.012C190.641 113.663 190.592 113.352 190.496 113.078C190.402 112.805 190.263 112.589 190.078 112.43C189.893 112.271 189.663 112.191 189.387 112.191C189.108 112.191 188.874 112.271 188.684 112.43C188.496 112.589 188.354 112.805 188.258 113.078C188.164 113.352 188.117 113.663 188.117 114.012C188.117 114.361 188.164 114.672 188.258 114.945C188.354 115.219 188.496 115.435 188.684 115.594C188.874 115.75 189.108 115.828 189.387 115.828ZM197.262 114.445V111H198.926V117H197.328V115.91H197.266C197.13 116.262 196.905 116.544 196.59 116.758C196.277 116.971 195.896 117.078 195.445 117.078C195.044 117.078 194.691 116.987 194.387 116.805C194.082 116.622 193.844 116.363 193.672 116.027C193.503 115.691 193.417 115.289 193.414 114.82V111H195.078V114.523C195.081 114.878 195.176 115.158 195.363 115.363C195.551 115.569 195.802 115.672 196.117 115.672C196.318 115.672 196.505 115.626 196.68 115.535C196.854 115.441 196.995 115.303 197.102 115.121C197.211 114.939 197.264 114.714 197.262 114.445ZM203.448 111V112.25H199.835V111H203.448ZM200.655 109.562H202.319V115.156C202.319 115.31 202.343 115.43 202.39 115.516C202.437 115.599 202.502 115.658 202.585 115.691C202.671 115.725 202.77 115.742 202.882 115.742C202.96 115.742 203.038 115.736 203.116 115.723C203.194 115.707 203.254 115.695 203.296 115.687L203.558 116.926C203.474 116.952 203.357 116.982 203.206 117.016C203.055 117.052 202.871 117.074 202.655 117.082C202.254 117.098 201.903 117.044 201.601 116.922C201.301 116.799 201.068 116.609 200.901 116.352C200.735 116.094 200.653 115.768 200.655 115.375V109.562ZM209.945 117H207.109V109H209.969C210.773 109 211.466 109.16 212.047 109.48C212.628 109.798 213.074 110.255 213.387 110.852C213.702 111.448 213.859 112.161 213.859 112.992C213.859 113.826 213.702 114.542 213.387 115.141C213.074 115.74 212.625 116.199 212.039 116.52C211.456 116.84 210.758 117 209.945 117ZM208.801 115.551H209.875C210.375 115.551 210.796 115.462 211.137 115.285C211.48 115.105 211.738 114.828 211.91 114.453C212.085 114.076 212.172 113.589 212.172 112.992C212.172 112.401 212.085 111.918 211.91 111.543C211.738 111.168 211.482 110.892 211.141 110.715C210.799 110.538 210.379 110.449 209.879 110.449H208.801V115.551ZM217.792 117.117C217.185 117.117 216.66 116.988 216.218 116.73C215.778 116.47 215.438 116.108 215.198 115.645C214.959 115.178 214.839 114.638 214.839 114.023C214.839 113.404 214.959 112.862 215.198 112.398C215.438 111.932 215.778 111.57 216.218 111.312C216.66 111.052 217.185 110.922 217.792 110.922C218.399 110.922 218.922 111.052 219.362 111.312C219.805 111.57 220.146 111.932 220.386 112.398C220.625 112.862 220.745 113.404 220.745 114.023C220.745 114.638 220.625 115.178 220.386 115.645C220.146 116.108 219.805 116.47 219.362 116.73C218.922 116.988 218.399 117.117 217.792 117.117ZM217.8 115.828C218.076 115.828 218.306 115.75 218.491 115.594C218.676 115.435 218.815 115.219 218.909 114.945C219.006 114.672 219.054 114.361 219.054 114.012C219.054 113.663 219.006 113.352 218.909 113.078C218.815 112.805 218.676 112.589 218.491 112.43C218.306 112.271 218.076 112.191 217.8 112.191C217.521 112.191 217.287 112.271 217.097 112.43C216.909 112.589 216.767 112.805 216.671 113.078C216.577 113.352 216.53 113.663 216.53 114.012C216.53 114.361 216.577 114.672 216.671 114.945C216.767 115.219 216.909 115.435 217.097 115.594C217.287 115.75 217.521 115.828 217.8 115.828ZM224.53 119.375C223.991 119.375 223.529 119.301 223.144 119.152C222.761 119.007 222.456 118.807 222.229 118.555C222.003 118.302 221.856 118.018 221.788 117.703L223.327 117.496C223.374 117.616 223.448 117.728 223.55 117.832C223.651 117.936 223.785 118.02 223.952 118.082C224.121 118.147 224.327 118.18 224.569 118.18C224.931 118.18 225.229 118.091 225.464 117.914C225.701 117.74 225.819 117.447 225.819 117.035V115.937H225.749C225.676 116.104 225.567 116.262 225.421 116.41C225.275 116.559 225.088 116.68 224.858 116.773C224.629 116.867 224.356 116.914 224.038 116.914C223.588 116.914 223.177 116.81 222.808 116.602C222.44 116.391 222.147 116.069 221.929 115.637C221.713 115.202 221.604 114.652 221.604 113.988C221.604 113.309 221.715 112.741 221.937 112.285C222.158 111.829 222.452 111.488 222.819 111.262C223.189 111.035 223.594 110.922 224.034 110.922C224.37 110.922 224.651 110.979 224.878 111.094C225.104 111.206 225.287 111.346 225.425 111.516C225.565 111.682 225.674 111.846 225.749 112.008H225.812V111H227.464V117.059C227.464 117.569 227.339 117.996 227.089 118.34C226.839 118.684 226.493 118.941 226.05 119.113C225.61 119.288 225.103 119.375 224.53 119.375ZM224.565 115.664C224.834 115.664 225.06 115.598 225.245 115.465C225.433 115.329 225.576 115.137 225.675 114.887C225.776 114.634 225.827 114.332 225.827 113.98C225.827 113.629 225.778 113.324 225.679 113.066C225.58 112.806 225.437 112.604 225.249 112.461C225.062 112.318 224.834 112.246 224.565 112.246C224.292 112.246 224.062 112.32 223.874 112.469C223.687 112.615 223.545 112.818 223.448 113.078C223.352 113.339 223.304 113.639 223.304 113.98C223.304 114.327 223.352 114.626 223.448 114.879C223.547 115.129 223.689 115.323 223.874 115.461C224.062 115.596 224.292 115.664 224.565 115.664ZM233.78 112.711L232.257 112.805C232.231 112.674 232.175 112.557 232.089 112.453C232.003 112.346 231.89 112.262 231.749 112.199C231.611 112.134 231.446 112.102 231.253 112.102C230.995 112.102 230.778 112.156 230.601 112.266C230.424 112.372 230.335 112.516 230.335 112.695C230.335 112.839 230.392 112.96 230.507 113.059C230.621 113.158 230.818 113.237 231.097 113.297L232.183 113.516C232.766 113.635 233.201 113.828 233.487 114.094C233.774 114.359 233.917 114.708 233.917 115.141C233.917 115.534 233.801 115.879 233.569 116.176C233.34 116.473 233.025 116.704 232.624 116.871C232.226 117.035 231.766 117.117 231.245 117.117C230.451 117.117 229.818 116.952 229.347 116.621C228.878 116.288 228.603 115.835 228.522 115.262L230.159 115.176C230.209 115.418 230.328 115.603 230.519 115.73C230.709 115.855 230.952 115.918 231.249 115.918C231.541 115.918 231.775 115.862 231.952 115.75C232.132 115.635 232.223 115.488 232.226 115.309C232.223 115.158 232.159 115.034 232.034 114.938C231.909 114.839 231.716 114.763 231.456 114.711L230.417 114.504C229.831 114.387 229.395 114.184 229.108 113.895C228.825 113.605 228.683 113.237 228.683 112.789C228.683 112.404 228.787 112.072 228.995 111.793C229.206 111.514 229.502 111.299 229.882 111.148C230.265 110.997 230.713 110.922 231.226 110.922C231.983 110.922 232.58 111.082 233.015 111.402C233.452 111.723 233.707 112.159 233.78 112.711Z" fill="black"/>
</g>
<rect x="103" y="56" width="205" height="33" rx="6" fill="white"/>
<rect x="111" y="64" width="57" height="17" rx="6" fill="#5167F6"/>
<path d="M130.365 75V69.1818H132.695C133.123 69.1818 133.48 69.2453 133.766 69.3722C134.052 69.4991 134.267 69.6752 134.411 69.9006C134.554 70.1241 134.626 70.3816 134.626 70.6733C134.626 70.9006 134.581 71.1004 134.49 71.2727C134.399 71.4432 134.274 71.5833 134.115 71.6932C133.958 71.8011 133.778 71.8778 133.575 71.9233V71.9801C133.797 71.9896 134.004 72.0521 134.197 72.1676C134.393 72.2831 134.551 72.4451 134.672 72.6534C134.793 72.8598 134.854 73.1061 134.854 73.392C134.854 73.7008 134.777 73.9763 134.624 74.2188C134.472 74.4593 134.248 74.6496 133.95 74.7898C133.653 74.9299 133.286 75 132.851 75H130.365ZM131.595 73.9943H132.598C132.941 73.9943 133.191 73.929 133.348 73.7983C133.505 73.6657 133.584 73.4896 133.584 73.2699C133.584 73.1089 133.545 72.9669 133.467 72.8438C133.39 72.7206 133.279 72.6241 133.135 72.554C132.993 72.4839 132.823 72.4489 132.626 72.4489H131.595V73.9943ZM131.595 71.6165H132.507C132.676 71.6165 132.825 71.5871 132.956 71.5284C133.089 71.4678 133.193 71.3826 133.268 71.2727C133.346 71.1629 133.385 71.0312 133.385 70.8778C133.385 70.6676 133.31 70.4981 133.161 70.3693C133.013 70.2405 132.803 70.1761 132.53 70.1761H131.595V71.6165ZM136.876 75.0824C136.597 75.0824 136.349 75.0341 136.131 74.9375C135.914 74.839 135.741 74.6941 135.614 74.5028C135.489 74.3097 135.427 74.0691 135.427 73.7812C135.427 73.5388 135.471 73.3352 135.56 73.1705C135.649 73.0057 135.771 72.8731 135.924 72.7727C136.077 72.6723 136.252 72.5966 136.447 72.5455C136.644 72.4943 136.85 72.4583 137.066 72.4375C137.32 72.411 137.524 72.3864 137.68 72.3636C137.835 72.339 137.948 72.303 138.018 72.2557C138.088 72.2083 138.123 72.1383 138.123 72.0455V72.0284C138.123 71.8485 138.066 71.7093 137.952 71.6108C137.841 71.5123 137.682 71.4631 137.475 71.4631C137.257 71.4631 137.084 71.5114 136.955 71.608C136.826 71.7027 136.741 71.822 136.7 71.9659L135.58 71.875C135.637 71.6098 135.749 71.3807 135.915 71.1875C136.082 70.9924 136.297 70.8428 136.56 70.7386C136.826 70.6326 137.132 70.5795 137.481 70.5795C137.723 70.5795 137.955 70.608 138.177 70.6648C138.4 70.7216 138.598 70.8097 138.771 70.929C138.945 71.0483 139.082 71.2017 139.183 71.3892C139.283 71.5748 139.333 71.7973 139.333 72.0568V75H138.185V74.3949H138.151C138.081 74.5312 137.987 74.6515 137.87 74.7557C137.753 74.858 137.612 74.9384 137.447 74.9972C137.282 75.054 137.092 75.0824 136.876 75.0824ZM137.222 74.2472C137.4 74.2472 137.558 74.2121 137.694 74.142C137.83 74.0701 137.937 73.9735 138.015 73.8523C138.093 73.7311 138.131 73.5937 138.131 73.4403V72.9773C138.094 73.0019 138.041 73.0246 137.975 73.0455C137.911 73.0644 137.838 73.0824 137.756 73.0994C137.675 73.1146 137.594 73.1288 137.512 73.142C137.431 73.1534 137.357 73.1638 137.29 73.1733C137.148 73.1941 137.024 73.2273 136.918 73.2727C136.812 73.3182 136.73 73.3797 136.671 73.4574C136.612 73.5331 136.583 73.6278 136.583 73.7415C136.583 73.9062 136.643 74.0322 136.762 74.1193C136.883 74.2045 137.037 74.2472 137.222 74.2472ZM142.244 75.0852C141.797 75.0852 141.412 74.9905 141.09 74.8011C140.77 74.6098 140.524 74.3447 140.352 74.0057C140.181 73.6667 140.096 73.2765 140.096 72.8352C140.096 72.3883 140.182 71.9962 140.354 71.6591C140.529 71.3201 140.776 71.0559 141.096 70.8665C141.416 70.6752 141.797 70.5795 142.238 70.5795C142.619 70.5795 142.952 70.6487 143.238 70.7869C143.524 70.9252 143.75 71.1193 143.917 71.3693C144.084 71.6193 144.175 71.9129 144.192 72.25H143.05C143.018 72.0322 142.933 71.857 142.795 71.7244C142.658 71.59 142.479 71.5227 142.258 71.5227C142.07 71.5227 141.906 71.5739 141.766 71.6761C141.628 71.7765 141.52 71.9233 141.442 72.1165C141.365 72.3097 141.326 72.5436 141.326 72.8182C141.326 73.0966 141.364 73.3333 141.44 73.5284C141.517 73.7235 141.626 73.8722 141.766 73.9744C141.906 74.0767 142.07 74.1278 142.258 74.1278C142.396 74.1278 142.52 74.0994 142.63 74.0426C142.742 73.9858 142.834 73.9034 142.906 73.7955C142.979 73.6856 143.028 73.554 143.05 73.4006H144.192C144.174 73.7339 144.083 74.0275 143.92 74.2812C143.759 74.5331 143.536 74.7301 143.252 74.8722C142.968 75.0142 142.632 75.0852 142.244 75.0852ZM146.064 73.7443L146.067 72.2926H146.243L147.641 70.6364H149.03L147.152 72.8295H146.865L146.064 73.7443ZM144.967 75V69.1818H146.178V75H144.967ZM147.695 75L146.411 73.0994L147.217 72.2443L149.112 75H147.695Z" fill="white"/>
</g>
<defs>
<clipPath id="clip0_898_600">
<rect y="39" width="410" height="238" rx="6" fill="white"/>
</clipPath>
<clipPath id="clip1_898_600">
<rect x="103" y="97" width="205" height="193" rx="6" fill="white"/>
</clipPath>
</defs>
</svg>
