<svg width="445" height="286" viewBox="0 0 445 286" fill="none" xmlns="http://www.w3.org/2000/svg">
<rect x="35" width="410" height="247" rx="6" fill="#465EFE"/>
<g clip-path="url(#clip0_901_1766)">
<rect y="40" width="410" height="246" rx="6" fill="#5167F6"/>
<g clip-path="url(#clip1_901_1766)">
<rect x="103" y="86" width="205" height="205" rx="4" fill="white"/>
<rect x="113.25" y="227.25" width="184.5" height="68.5" rx="3.75" fill="white" stroke="#9F9F9F" stroke-width="0.5"/>
<rect x="118" y="246" width="175" height="19" rx="6" fill="#EBEBEB"/>
<rect x="118" y="272" width="175" height="19" rx="6" fill="#EBEBEB"/>
<rect x="113.25" y="114.25" width="184.5" height="105.5" rx="3.75" fill="white" stroke="#9F9F9F" stroke-width="0.5"/>
<rect x="182" y="133.339" width="18.8396" height="4.39477" rx="2.19738" fill="#FF9F40"/>
<rect x="182" y="124" width="18.8396" height="4.39477" rx="2.19738" fill="#36A2EB"/>
<rect x="211" y="124" width="18.8396" height="4.39477" rx="2.19738" fill="#FF6384"/>
<rect x="211" y="133.339" width="18.8396" height="4.39477" rx="2.19738" fill="#FFCD56"/>
<path d="M206 144.875C215.268 144.875 224.156 148.145 230.71 153.966C237.263 159.787 240.945 167.681 240.945 175.913C240.945 184.145 237.263 192.04 230.71 197.86C224.156 203.681 215.268 206.951 206 206.951L206 175.913V144.875Z" fill="#36A2EB"/>
<path d="M177.52 159.124C180.7 154.856 184.966 151.342 189.947 148.889C194.927 146.436 200.471 145.117 206.096 145.048L206 176.462L177.52 159.124Z" fill="#FACE66"/>
<path d="M176.321 192.07C173.038 186.97 171.374 181.154 171.517 175.283C171.66 169.412 173.605 163.72 177.132 158.852L206 176.462L176.321 192.07Z" fill="#FF9F40"/>
<path d="M206 206.952C200.017 206.952 194.134 205.599 188.915 203.024C183.695 200.448 179.315 196.736 176.192 192.243L206 176.188V206.952Z" fill="#FF6384"/>
<path d="M288.045 125.602L290.881 122.465C290.928 122.413 290.954 122.344 290.953 122.273C290.952 122.202 290.924 122.134 290.875 122.083L290.872 122.08C290.848 122.055 290.82 122.036 290.789 122.023C290.757 122.01 290.724 122.004 290.69 122.004C290.656 122.005 290.623 122.012 290.592 122.027C290.561 122.041 290.533 122.061 290.51 122.087L287.84 125.04L285.089 122.187C285.065 122.162 285.037 122.143 285.005 122.13C284.974 122.117 284.941 122.111 284.907 122.111C284.873 122.112 284.84 122.119 284.809 122.134C284.778 122.148 284.75 122.168 284.727 122.194L284.724 122.197C284.676 122.25 284.651 122.318 284.652 122.389C284.653 122.461 284.68 122.528 284.729 122.579L287.652 125.609C287.678 125.636 287.708 125.657 287.742 125.671C287.776 125.685 287.813 125.692 287.849 125.691C287.886 125.69 287.922 125.682 287.956 125.667C287.989 125.651 288.02 125.629 288.045 125.602Z" fill="#9F9F9F"/>
<path d="M288.397 238.602L291.233 235.465C291.28 235.413 291.306 235.344 291.305 235.273C291.304 235.202 291.276 235.134 291.227 235.083L291.224 235.08C291.201 235.055 291.172 235.036 291.141 235.023C291.11 235.01 291.076 235.004 291.042 235.004C291.008 235.005 290.975 235.012 290.944 235.027C290.913 235.041 290.885 235.061 290.862 235.087L288.192 238.04L285.441 235.187C285.417 235.162 285.389 235.143 285.358 235.13C285.326 235.117 285.293 235.111 285.259 235.111C285.225 235.112 285.192 235.119 285.161 235.134C285.13 235.148 285.102 235.168 285.079 235.194L285.076 235.197C285.029 235.25 285.003 235.318 285.004 235.389C285.005 235.461 285.033 235.528 285.081 235.579L288.004 238.609C288.03 238.636 288.061 238.657 288.095 238.671C288.129 238.685 288.165 238.692 288.202 238.691C288.238 238.69 288.275 238.682 288.308 238.667C288.342 238.651 288.372 238.629 288.397 238.602Z" fill="#9F9F9F"/>
<rect width="205" height="28" transform="translate(103 86)" fill="white"/>
<path d="M116.715 102.219H118.152L118.875 103.148L119.586 103.977L120.926 105.656H119.348L118.426 104.523L117.953 103.852L116.715 102.219ZM121.047 101C121.047 101.872 120.882 102.615 120.551 103.227C120.223 103.839 119.775 104.306 119.207 104.629C118.642 104.949 118.007 105.109 117.301 105.109C116.59 105.109 115.952 104.948 115.387 104.625C114.822 104.302 114.375 103.835 114.047 103.223C113.719 102.611 113.555 101.87 113.555 101C113.555 100.128 113.719 99.3854 114.047 98.7734C114.375 98.1615 114.822 97.6953 115.387 97.375C115.952 97.0521 116.59 96.8906 117.301 96.8906C118.007 96.8906 118.642 97.0521 119.207 97.375C119.775 97.6953 120.223 98.1615 120.551 98.7734C120.882 99.3854 121.047 100.128 121.047 101ZM119.332 101C119.332 100.435 119.247 99.9583 119.078 99.5703C118.911 99.1823 118.676 98.888 118.371 98.6875C118.066 98.487 117.71 98.3867 117.301 98.3867C116.892 98.3867 116.535 98.487 116.23 98.6875C115.926 98.888 115.689 99.1823 115.52 99.5703C115.353 99.9583 115.27 100.435 115.27 101C115.27 101.565 115.353 102.042 115.52 102.43C115.689 102.818 115.926 103.112 116.23 103.312C116.535 103.513 116.892 103.613 117.301 103.613C117.71 103.613 118.066 103.513 118.371 103.312C118.676 103.112 118.911 102.818 119.078 102.43C119.247 102.042 119.332 101.565 119.332 101ZM126.116 102.445V99H127.78V105H126.183V103.91H126.12C125.985 104.262 125.759 104.544 125.444 104.758C125.132 104.971 124.75 105.078 124.3 105.078C123.899 105.078 123.546 104.987 123.241 104.805C122.937 104.622 122.698 104.363 122.526 104.027C122.357 103.691 122.271 103.289 122.269 102.82V99H123.933V102.523C123.935 102.878 124.03 103.158 124.218 103.363C124.405 103.569 124.657 103.672 124.972 103.672C125.172 103.672 125.36 103.626 125.534 103.535C125.709 103.441 125.849 103.303 125.956 103.121C126.065 102.939 126.119 102.714 126.116 102.445ZM131.846 105.117C131.229 105.117 130.697 104.992 130.252 104.742C129.809 104.49 129.468 104.133 129.229 103.672C128.989 103.208 128.869 102.66 128.869 102.027C128.869 101.41 128.989 100.868 129.229 100.402C129.468 99.9362 129.805 99.5729 130.24 99.3125C130.678 99.0521 131.191 98.9219 131.779 98.9219C132.175 98.9219 132.544 98.9857 132.885 99.1133C133.229 99.2383 133.528 99.4271 133.783 99.6797C134.041 99.9323 134.242 100.25 134.385 100.633C134.528 101.013 134.6 101.458 134.6 101.969V102.426H129.533V101.395H133.033C133.033 101.155 132.981 100.943 132.877 100.758C132.773 100.573 132.628 100.428 132.443 100.324C132.261 100.217 132.049 100.164 131.807 100.164C131.554 100.164 131.33 100.223 131.135 100.34C130.942 100.454 130.791 100.609 130.682 100.805C130.572 100.997 130.516 101.212 130.514 101.449V102.43C130.514 102.727 130.568 102.983 130.678 103.199C130.79 103.415 130.947 103.582 131.15 103.699C131.354 103.816 131.594 103.875 131.873 103.875C132.058 103.875 132.227 103.849 132.381 103.797C132.535 103.745 132.666 103.667 132.775 103.562C132.885 103.458 132.968 103.331 133.025 103.18L134.564 103.281C134.486 103.651 134.326 103.974 134.084 104.25C133.844 104.523 133.535 104.737 133.154 104.891C132.777 105.042 132.34 105.117 131.846 105.117ZM140.678 100.711L139.154 100.805C139.128 100.674 139.072 100.557 138.986 100.453C138.9 100.346 138.787 100.262 138.646 100.199C138.508 100.134 138.343 100.102 138.15 100.102C137.893 100.102 137.675 100.156 137.498 100.266C137.321 100.372 137.232 100.516 137.232 100.695C137.232 100.839 137.29 100.96 137.404 101.059C137.519 101.158 137.715 101.237 137.994 101.297L139.08 101.516C139.663 101.635 140.098 101.828 140.385 102.094C140.671 102.359 140.814 102.708 140.814 103.141C140.814 103.534 140.699 103.879 140.467 104.176C140.238 104.473 139.923 104.704 139.521 104.871C139.123 105.035 138.663 105.117 138.143 105.117C137.348 105.117 136.715 104.952 136.244 104.621C135.775 104.288 135.501 103.835 135.42 103.262L137.057 103.176C137.106 103.418 137.226 103.603 137.416 103.73C137.606 103.855 137.85 103.918 138.146 103.918C138.438 103.918 138.673 103.862 138.85 103.75C139.029 103.635 139.12 103.488 139.123 103.309C139.12 103.158 139.057 103.034 138.932 102.938C138.807 102.839 138.614 102.763 138.354 102.711L137.314 102.504C136.729 102.387 136.292 102.184 136.006 101.895C135.722 101.605 135.58 101.237 135.58 100.789C135.58 100.404 135.684 100.072 135.893 99.793C136.104 99.5143 136.399 99.2995 136.779 99.1484C137.162 98.9974 137.61 98.9219 138.123 98.9219C138.881 98.9219 139.477 99.082 139.912 99.4023C140.35 99.7227 140.605 100.159 140.678 100.711ZM145.054 99V100.25H141.44V99H145.054ZM142.261 97.5625H143.925V103.156C143.925 103.31 143.948 103.43 143.995 103.516C144.042 103.599 144.107 103.658 144.19 103.691C144.276 103.725 144.375 103.742 144.487 103.742C144.565 103.742 144.644 103.736 144.722 103.723C144.8 103.707 144.86 103.695 144.901 103.687L145.163 104.926C145.08 104.952 144.963 104.982 144.812 105.016C144.66 105.052 144.477 105.074 144.261 105.082C143.86 105.098 143.508 105.044 143.206 104.922C142.907 104.799 142.674 104.609 142.507 104.352C142.34 104.094 142.258 103.768 142.261 103.375V97.5625ZM146.138 105V99H147.802V105H146.138ZM146.974 98.2266C146.726 98.2266 146.514 98.1445 146.337 97.9805C146.162 97.8138 146.075 97.6146 146.075 97.3828C146.075 97.1536 146.162 96.957 146.337 96.793C146.514 96.6263 146.726 96.543 146.974 96.543C147.221 96.543 147.432 96.6263 147.606 96.793C147.784 96.957 147.872 97.1536 147.872 97.3828C147.872 97.6146 147.784 97.8138 147.606 97.9805C147.432 98.1445 147.221 98.2266 146.974 98.2266ZM151.846 105.117C151.239 105.117 150.714 104.988 150.271 104.73C149.831 104.47 149.492 104.108 149.252 103.645C149.012 103.178 148.893 102.638 148.893 102.023C148.893 101.404 149.012 100.862 149.252 100.398C149.492 99.9323 149.831 99.5703 150.271 99.3125C150.714 99.0521 151.239 98.9219 151.846 98.9219C152.452 98.9219 152.976 99.0521 153.416 99.3125C153.859 99.5703 154.2 99.9323 154.439 100.398C154.679 100.862 154.799 101.404 154.799 102.023C154.799 102.638 154.679 103.178 154.439 103.645C154.2 104.108 153.859 104.47 153.416 104.73C152.976 104.988 152.452 105.117 151.846 105.117ZM151.854 103.828C152.13 103.828 152.36 103.75 152.545 103.594C152.73 103.435 152.869 103.219 152.963 102.945C153.059 102.672 153.107 102.361 153.107 102.012C153.107 101.663 153.059 101.352 152.963 101.078C152.869 100.805 152.73 100.589 152.545 100.43C152.36 100.271 152.13 100.191 151.854 100.191C151.575 100.191 151.34 100.271 151.15 100.43C150.963 100.589 150.821 100.805 150.725 101.078C150.631 101.352 150.584 101.663 150.584 102.012C150.584 102.361 150.631 102.672 150.725 102.945C150.821 103.219 150.963 103.435 151.15 103.594C151.34 103.75 151.575 103.828 151.854 103.828ZM157.545 101.531V105H155.881V99H157.467V100.059H157.537C157.67 99.7096 157.893 99.4336 158.205 99.2305C158.518 99.0247 158.896 98.9219 159.342 98.9219C159.758 98.9219 160.122 99.013 160.432 99.1953C160.742 99.3776 160.982 99.638 161.154 99.9766C161.326 100.312 161.412 100.714 161.412 101.18V105H159.748V101.477C159.751 101.109 159.657 100.823 159.467 100.617C159.277 100.409 159.015 100.305 158.682 100.305C158.458 100.305 158.26 100.353 158.088 100.449C157.919 100.546 157.786 100.686 157.689 100.871C157.596 101.053 157.548 101.273 157.545 101.531ZM167.716 100.711L166.192 100.805C166.166 100.674 166.11 100.557 166.024 100.453C165.938 100.346 165.825 100.262 165.685 100.199C165.547 100.134 165.381 100.102 165.188 100.102C164.931 100.102 164.713 100.156 164.536 100.266C164.359 100.372 164.271 100.516 164.271 100.695C164.271 100.839 164.328 100.96 164.442 101.059C164.557 101.158 164.754 101.237 165.032 101.297L166.118 101.516C166.701 101.635 167.136 101.828 167.423 102.094C167.709 102.359 167.853 102.708 167.853 103.141C167.853 103.534 167.737 103.879 167.505 104.176C167.276 104.473 166.961 104.704 166.56 104.871C166.161 105.035 165.701 105.117 165.181 105.117C164.386 105.117 163.754 104.952 163.282 104.621C162.813 104.288 162.539 103.835 162.458 103.262L164.095 103.176C164.144 103.418 164.264 103.603 164.454 103.73C164.644 103.855 164.888 103.918 165.185 103.918C165.476 103.918 165.711 103.862 165.888 103.75C166.067 103.635 166.159 103.488 166.161 103.309C166.159 103.158 166.095 103.034 165.97 102.938C165.845 102.839 165.652 102.763 165.392 102.711L164.353 102.504C163.767 102.387 163.33 102.184 163.044 101.895C162.76 101.605 162.618 101.237 162.618 100.789C162.618 100.404 162.722 100.072 162.931 99.793C163.142 99.5143 163.437 99.2995 163.817 99.1484C164.2 98.9974 164.648 98.9219 165.161 98.9219C165.919 98.9219 166.515 99.082 166.95 99.4023C167.388 99.7227 167.643 100.159 167.716 100.711ZM172.856 105H171.044L173.806 97H175.985L178.743 105H176.931L174.927 98.8281H174.864L172.856 105ZM172.743 101.855H177.024V103.176H172.743V101.855ZM179.706 105V97H181.37V100.008H181.421C181.494 99.8464 181.599 99.6823 181.737 99.5156C181.878 99.3464 182.06 99.2057 182.284 99.0938C182.511 98.9792 182.792 98.9219 183.128 98.9219C183.565 98.9219 183.969 99.0365 184.339 99.2656C184.709 99.4922 185.004 99.8346 185.226 100.293C185.447 100.749 185.558 101.32 185.558 102.008C185.558 102.677 185.45 103.242 185.233 103.703C185.02 104.161 184.728 104.509 184.358 104.746C183.991 104.98 183.58 105.098 183.124 105.098C182.801 105.098 182.526 105.044 182.3 104.937C182.076 104.831 181.892 104.697 181.749 104.535C181.606 104.371 181.496 104.206 181.421 104.039H181.347V105H179.706ZM181.335 102C181.335 102.357 181.384 102.668 181.483 102.934C181.582 103.199 181.726 103.406 181.913 103.555C182.101 103.701 182.328 103.773 182.597 103.773C182.868 103.773 183.097 103.699 183.284 103.551C183.472 103.4 183.614 103.191 183.71 102.926C183.809 102.658 183.858 102.349 183.858 102C183.858 101.654 183.81 101.349 183.714 101.086C183.618 100.823 183.476 100.617 183.288 100.469C183.101 100.32 182.87 100.246 182.597 100.246C182.326 100.246 182.097 100.318 181.909 100.461C181.724 100.604 181.582 100.807 181.483 101.07C181.384 101.333 181.335 101.643 181.335 102ZM189.379 105.117C188.772 105.117 188.247 104.988 187.805 104.73C187.365 104.47 187.025 104.108 186.785 103.645C186.546 103.178 186.426 102.638 186.426 102.023C186.426 101.404 186.546 100.862 186.785 100.398C187.025 99.9323 187.365 99.5703 187.805 99.3125C188.247 99.0521 188.772 98.9219 189.379 98.9219C189.986 98.9219 190.509 99.0521 190.949 99.3125C191.392 99.5703 191.733 99.9323 191.973 100.398C192.212 100.862 192.332 101.404 192.332 102.023C192.332 102.638 192.212 103.178 191.973 103.645C191.733 104.108 191.392 104.47 190.949 104.73C190.509 104.988 189.986 105.117 189.379 105.117ZM189.387 103.828C189.663 103.828 189.893 103.75 190.078 103.594C190.263 103.435 190.402 103.219 190.496 102.945C190.592 102.672 190.641 102.361 190.641 102.012C190.641 101.663 190.592 101.352 190.496 101.078C190.402 100.805 190.263 100.589 190.078 100.43C189.893 100.271 189.663 100.191 189.387 100.191C189.108 100.191 188.874 100.271 188.684 100.43C188.496 100.589 188.354 100.805 188.258 101.078C188.164 101.352 188.117 101.663 188.117 102.012C188.117 102.361 188.164 102.672 188.258 102.945C188.354 103.219 188.496 103.435 188.684 103.594C188.874 103.75 189.108 103.828 189.387 103.828ZM197.262 102.445V99H198.926V105H197.328V103.91H197.266C197.13 104.262 196.905 104.544 196.59 104.758C196.277 104.971 195.896 105.078 195.445 105.078C195.044 105.078 194.691 104.987 194.387 104.805C194.082 104.622 193.844 104.363 193.672 104.027C193.503 103.691 193.417 103.289 193.414 102.82V99H195.078V102.523C195.081 102.878 195.176 103.158 195.363 103.363C195.551 103.569 195.802 103.672 196.117 103.672C196.318 103.672 196.505 103.626 196.68 103.535C196.854 103.441 196.995 103.303 197.102 103.121C197.211 102.939 197.264 102.714 197.262 102.445ZM203.448 99V100.25H199.835V99H203.448ZM200.655 97.5625H202.319V103.156C202.319 103.31 202.343 103.43 202.39 103.516C202.437 103.599 202.502 103.658 202.585 103.691C202.671 103.725 202.77 103.742 202.882 103.742C202.96 103.742 203.038 103.736 203.116 103.723C203.194 103.707 203.254 103.695 203.296 103.687L203.558 104.926C203.474 104.952 203.357 104.982 203.206 105.016C203.055 105.052 202.871 105.074 202.655 105.082C202.254 105.098 201.903 105.044 201.601 104.922C201.301 104.799 201.068 104.609 200.901 104.352C200.735 104.094 200.653 103.768 200.655 103.375V97.5625ZM209.945 105H207.109V97H209.969C210.773 97 211.466 97.1602 212.047 97.4805C212.628 97.7982 213.074 98.2552 213.387 98.8516C213.702 99.4479 213.859 100.161 213.859 100.992C213.859 101.826 213.702 102.542 213.387 103.141C213.074 103.74 212.625 104.199 212.039 104.52C211.456 104.84 210.758 105 209.945 105ZM208.801 103.551H209.875C210.375 103.551 210.796 103.462 211.137 103.285C211.48 103.105 211.738 102.828 211.91 102.453C212.085 102.076 212.172 101.589 212.172 100.992C212.172 100.401 212.085 99.918 211.91 99.543C211.738 99.168 211.482 98.8919 211.141 98.7148C210.799 98.5378 210.379 98.4492 209.879 98.4492H208.801V103.551ZM217.792 105.117C217.185 105.117 216.66 104.988 216.218 104.73C215.778 104.47 215.438 104.108 215.198 103.645C214.959 103.178 214.839 102.638 214.839 102.023C214.839 101.404 214.959 100.862 215.198 100.398C215.438 99.9323 215.778 99.5703 216.218 99.3125C216.66 99.0521 217.185 98.9219 217.792 98.9219C218.399 98.9219 218.922 99.0521 219.362 99.3125C219.805 99.5703 220.146 99.9323 220.386 100.398C220.625 100.862 220.745 101.404 220.745 102.023C220.745 102.638 220.625 103.178 220.386 103.645C220.146 104.108 219.805 104.47 219.362 104.73C218.922 104.988 218.399 105.117 217.792 105.117ZM217.8 103.828C218.076 103.828 218.306 103.75 218.491 103.594C218.676 103.435 218.815 103.219 218.909 102.945C219.006 102.672 219.054 102.361 219.054 102.012C219.054 101.663 219.006 101.352 218.909 101.078C218.815 100.805 218.676 100.589 218.491 100.43C218.306 100.271 218.076 100.191 217.8 100.191C217.521 100.191 217.287 100.271 217.097 100.43C216.909 100.589 216.767 100.805 216.671 101.078C216.577 101.352 216.53 101.663 216.53 102.012C216.53 102.361 216.577 102.672 216.671 102.945C216.767 103.219 216.909 103.435 217.097 103.594C217.287 103.75 217.521 103.828 217.8 103.828ZM224.53 107.375C223.991 107.375 223.529 107.301 223.144 107.152C222.761 107.007 222.456 106.807 222.229 106.555C222.003 106.302 221.856 106.018 221.788 105.703L223.327 105.496C223.374 105.616 223.448 105.728 223.55 105.832C223.651 105.936 223.785 106.02 223.952 106.082C224.121 106.147 224.327 106.18 224.569 106.18C224.931 106.18 225.229 106.091 225.464 105.914C225.701 105.74 225.819 105.447 225.819 105.035V103.937H225.749C225.676 104.104 225.567 104.262 225.421 104.41C225.275 104.559 225.088 104.68 224.858 104.773C224.629 104.867 224.356 104.914 224.038 104.914C223.588 104.914 223.177 104.81 222.808 104.602C222.44 104.391 222.147 104.069 221.929 103.637C221.713 103.202 221.604 102.652 221.604 101.988C221.604 101.309 221.715 100.741 221.937 100.285C222.158 99.8294 222.452 99.4883 222.819 99.2617C223.189 99.0352 223.594 98.9219 224.034 98.9219C224.37 98.9219 224.651 98.9792 224.878 99.0938C225.104 99.2057 225.287 99.3464 225.425 99.5156C225.565 99.6823 225.674 99.8464 225.749 100.008H225.812V99H227.464V105.059C227.464 105.569 227.339 105.996 227.089 106.34C226.839 106.684 226.493 106.941 226.05 107.113C225.61 107.288 225.103 107.375 224.53 107.375ZM224.565 103.664C224.834 103.664 225.06 103.598 225.245 103.465C225.433 103.329 225.576 103.137 225.675 102.887C225.776 102.634 225.827 102.332 225.827 101.98C225.827 101.629 225.778 101.324 225.679 101.066C225.58 100.806 225.437 100.604 225.249 100.461C225.062 100.318 224.834 100.246 224.565 100.246C224.292 100.246 224.062 100.32 223.874 100.469C223.687 100.615 223.545 100.818 223.448 101.078C223.352 101.339 223.304 101.639 223.304 101.98C223.304 102.327 223.352 102.626 223.448 102.879C223.547 103.129 223.689 103.323 223.874 103.461C224.062 103.596 224.292 103.664 224.565 103.664ZM233.78 100.711L232.257 100.805C232.231 100.674 232.175 100.557 232.089 100.453C232.003 100.346 231.89 100.262 231.749 100.199C231.611 100.134 231.446 100.102 231.253 100.102C230.995 100.102 230.778 100.156 230.601 100.266C230.424 100.372 230.335 100.516 230.335 100.695C230.335 100.839 230.392 100.96 230.507 101.059C230.621 101.158 230.818 101.237 231.097 101.297L232.183 101.516C232.766 101.635 233.201 101.828 233.487 102.094C233.774 102.359 233.917 102.708 233.917 103.141C233.917 103.534 233.801 103.879 233.569 104.176C233.34 104.473 233.025 104.704 232.624 104.871C232.226 105.035 231.766 105.117 231.245 105.117C230.451 105.117 229.818 104.952 229.347 104.621C228.878 104.288 228.603 103.835 228.522 103.262L230.159 103.176C230.209 103.418 230.328 103.603 230.519 103.73C230.709 103.855 230.952 103.918 231.249 103.918C231.541 103.918 231.775 103.862 231.952 103.75C232.132 103.635 232.223 103.488 232.226 103.309C232.223 103.158 232.159 103.034 232.034 102.938C231.909 102.839 231.716 102.763 231.456 102.711L230.417 102.504C229.831 102.387 229.395 102.184 229.108 101.895C228.825 101.605 228.683 101.237 228.683 100.789C228.683 100.404 228.787 100.072 228.995 99.793C229.206 99.5143 229.502 99.2995 229.882 99.1484C230.265 98.9974 230.713 98.9219 231.226 98.9219C231.983 98.9219 232.58 99.082 233.015 99.4023C233.452 99.7227 233.707 100.159 233.78 100.711Z" fill="black"/>
</g>
<rect x="103" y="62" width="205" height="19" rx="4" fill="white"/>
<rect x="110" y="66" width="32" height="12" rx="2" fill="#5167F6"/>
<path d="M119.149 74V69.6364H120.896C121.217 69.6364 121.485 69.6839 121.699 69.7791C121.914 69.8743 122.075 70.0064 122.183 70.1754C122.291 70.343 122.345 70.5362 122.345 70.755C122.345 70.9254 122.311 71.0753 122.243 71.2045C122.174 71.3324 122.081 71.4375 121.961 71.5199C121.843 71.6009 121.708 71.6584 121.556 71.6925V71.7351C121.723 71.7422 121.878 71.7891 122.023 71.8757C122.169 71.9624 122.288 72.0838 122.379 72.2401C122.47 72.3949 122.515 72.5795 122.515 72.794C122.515 73.0256 122.458 73.2322 122.343 73.4141C122.229 73.5945 122.061 73.7372 121.838 73.8423C121.615 73.9474 121.34 74 121.013 74H119.149ZM120.071 73.2457H120.824C121.081 73.2457 121.268 73.1967 121.386 73.0987C121.504 72.9993 121.563 72.8672 121.563 72.7024C121.563 72.5817 121.534 72.4751 121.475 72.3828C121.417 72.2905 121.334 72.218 121.226 72.1655C121.12 72.1129 120.993 72.0866 120.845 72.0866H120.071V73.2457ZM120.071 71.4624H120.755C120.882 71.4624 120.994 71.4403 121.092 71.3963C121.191 71.3509 121.27 71.2869 121.326 71.2045C121.385 71.1222 121.414 71.0234 121.414 70.9084C121.414 70.7507 121.358 70.6236 121.245 70.527C121.135 70.4304 120.977 70.3821 120.772 70.3821H120.071V71.4624ZM124.032 74.0618C123.823 74.0618 123.637 74.0256 123.474 73.9531C123.31 73.8793 123.181 73.7706 123.086 73.6271C122.992 73.4822 122.945 73.3018 122.945 73.0859C122.945 72.9041 122.979 72.7514 123.045 72.6278C123.112 72.5043 123.203 72.4048 123.318 72.3295C123.433 72.2543 123.564 72.1974 123.71 72.1591C123.858 72.1207 124.013 72.0938 124.175 72.0781C124.365 72.0582 124.518 72.0398 124.635 72.0227C124.751 72.0043 124.836 71.9773 124.888 71.9418C124.941 71.9062 124.967 71.8537 124.967 71.7841V71.7713C124.967 71.6364 124.925 71.532 124.839 71.4581C124.756 71.3842 124.636 71.3473 124.481 71.3473C124.318 71.3473 124.188 71.3835 124.091 71.456C123.995 71.527 123.931 71.6165 123.9 71.7244L123.06 71.6562C123.103 71.4574 123.187 71.2855 123.312 71.1406C123.437 70.9943 123.598 70.8821 123.795 70.804C123.994 70.7244 124.224 70.6847 124.486 70.6847C124.667 70.6847 124.841 70.706 125.008 70.7486C125.175 70.7912 125.324 70.8572 125.453 70.9467C125.584 71.0362 125.687 71.1513 125.762 71.2919C125.837 71.4311 125.875 71.598 125.875 71.7926V74H125.014V73.5462H124.988C124.936 73.6484 124.866 73.7386 124.778 73.8168C124.689 73.8935 124.584 73.9538 124.46 73.9979C124.336 74.0405 124.194 74.0618 124.032 74.0618ZM124.292 73.4354C124.425 73.4354 124.543 73.4091 124.645 73.3565C124.748 73.3026 124.828 73.2301 124.886 73.1392C124.944 73.0483 124.974 72.9453 124.974 72.8303V72.483C124.945 72.5014 124.906 72.5185 124.856 72.5341C124.808 72.5483 124.753 72.5618 124.692 72.5746C124.631 72.5859 124.57 72.5966 124.509 72.6065C124.448 72.6151 124.393 72.6229 124.343 72.63C124.236 72.6456 124.143 72.6705 124.064 72.7045C123.984 72.7386 123.922 72.7848 123.878 72.843C123.834 72.8999 123.812 72.9709 123.812 73.0561C123.812 73.1797 123.857 73.2741 123.947 73.3395C124.037 73.4034 124.153 73.4354 124.292 73.4354ZM128.058 74.0639C127.722 74.0639 127.434 73.9929 127.193 73.8509C126.953 73.7074 126.768 73.5085 126.639 73.2543C126.511 73 126.447 72.7074 126.447 72.3764C126.447 72.0412 126.512 71.7472 126.641 71.4943C126.771 71.2401 126.957 71.0419 127.197 70.8999C127.437 70.7564 127.722 70.6847 128.053 70.6847C128.339 70.6847 128.589 70.7365 128.803 70.8402C129.018 70.9439 129.188 71.0895 129.313 71.277C129.438 71.4645 129.507 71.6847 129.519 71.9375H128.663C128.639 71.7741 128.575 71.6428 128.471 71.5433C128.369 71.4425 128.235 71.392 128.068 71.392C127.928 71.392 127.805 71.4304 127.7 71.5071C127.596 71.5824 127.515 71.6925 127.457 71.8374C127.399 71.9822 127.369 72.1577 127.369 72.3636C127.369 72.5724 127.398 72.75 127.455 72.8963C127.513 73.0426 127.595 73.1541 127.7 73.2308C127.805 73.3075 127.928 73.3459 128.068 73.3459C128.172 73.3459 128.265 73.3246 128.347 73.282C128.431 73.2393 128.5 73.1776 128.554 73.0966C128.61 73.0142 128.646 72.9155 128.663 72.8004H129.519C129.505 73.0504 129.437 73.2706 129.315 73.4609C129.194 73.6499 129.027 73.7976 128.814 73.9041C128.601 74.0107 128.349 74.0639 128.058 74.0639ZM130.923 73.0582L130.925 71.9695H131.057L132.105 70.7273H133.147L131.739 72.3722H131.524L130.923 73.0582ZM130.1 74V69.6364H131.008V74H130.1ZM132.146 74L131.183 72.5746L131.788 71.9332L133.209 74H132.146Z" fill="white"/>
</g>
<defs>
<clipPath id="clip0_901_1766">
<rect y="40" width="410" height="246" rx="6" fill="white"/>
</clipPath>
<clipPath id="clip1_901_1766">
<rect x="103" y="86" width="205" height="205" rx="4" fill="white"/>
</clipPath>
</defs>
</svg>
