<svg width="237" height="73" viewBox="0 0 237 73" fill="none" xmlns="http://www.w3.org/2000/svg">
<rect x="0.25" y="0.25" width="236.5" height="72.5" rx="5.75" fill="white"/>
<g clip-path="url(#clip0_901_1934)">
<rect width="200" height="22" transform="translate(18 4)" fill="white"/>
<path d="M18.6953 20V12H20.3867V18.6055H23.8164V20H18.6953ZM24.9053 20V14H26.5693V20H24.9053ZM25.7412 13.2266C25.4938 13.2266 25.2816 13.1445 25.1045 12.9805C24.93 12.8138 24.8428 12.6146 24.8428 12.3828C24.8428 12.1536 24.93 11.957 25.1045 11.793C25.2816 11.6263 25.4938 11.543 25.7412 11.543C25.9886 11.543 26.1995 11.6263 26.374 11.793C26.5511 11.957 26.6396 12.1536 26.6396 12.3828C26.6396 12.6146 26.5511 12.8138 26.374 12.9805C26.1995 13.1445 25.9886 13.2266 25.7412 13.2266ZM29.5664 16.5313V20H27.9023V14H29.4883V15.0586H29.5586C29.6914 14.7096 29.9141 14.4336 30.2266 14.2305C30.5391 14.0247 30.918 13.9219 31.3633 13.9219C31.7799 13.9219 32.1432 14.013 32.4531 14.1953C32.763 14.3776 33.0039 14.638 33.1758 14.9766C33.3477 15.3125 33.4336 15.7135 33.4336 16.1797V20H31.7695V16.4766C31.7721 16.1094 31.6784 15.8229 31.4883 15.6172C31.2982 15.4089 31.0365 15.3047 30.7031 15.3047C30.4792 15.3047 30.2813 15.3529 30.1094 15.4492C29.9401 15.5456 29.8073 15.6862 29.7109 15.8711C29.6172 16.0534 29.569 16.2734 29.5664 16.5313ZM36.2529 18.2734L36.2568 16.2773H36.499L38.4209 14H40.3311L37.749 17.0156H37.3545L36.2529 18.2734ZM34.7451 20V12H36.4092V20H34.7451ZM38.4951 20L36.7295 17.3867L37.8389 16.2109L40.4443 20H38.4951Z" fill="black"/>
<path d="M215.864 15L218.024 12.9051C218.127 12.8058 218.184 12.6711 218.184 12.5306C218.185 12.3902 218.127 12.2554 218.025 12.1559C217.922 12.0565 217.784 12.0006 217.639 12.0005C217.494 12.0003 217.355 12.056 217.253 12.1553L215.093 14.2502L212.933 12.1553C212.831 12.0559 212.692 12 212.547 12C212.402 12 212.263 12.0559 212.16 12.1553C212.058 12.2547 212 12.3896 212 12.5302C212 12.6708 212.058 12.8056 212.16 12.9051L214.32 15L212.16 17.0949C212.058 17.1944 212 17.3292 212 17.4698C212 17.6104 212.058 17.7453 212.16 17.8447C212.263 17.9441 212.402 18 212.547 18C212.692 18 212.831 17.9441 212.933 17.8447L215.093 15.7498L217.253 17.8447C217.355 17.9441 217.494 18 217.639 18C217.784 18 217.923 17.9441 218.025 17.8447C218.128 17.7453 218.186 17.6104 218.186 17.4698C218.186 17.3292 218.128 17.1944 218.025 17.0949L215.864 15Z" fill="black"/>
</g>
<rect x="18.25" y="26.25" width="199.5" height="31.5" rx="1.75" fill="white" stroke="#9F9F9F" stroke-width="0.5"/>
<rect x="21" y="32" width="68" height="4" rx="2" fill="#EBEBEB"/>
<rect x="21" y="48" width="136" height="4" rx="2" fill="#EBEBEB"/>
<rect x="21" y="40" width="136" height="4" rx="2" fill="#EBEBEB"/>
<rect x="177" y="37" width="34" height="11" rx="2" fill="#5167F6"/>
<rect x="0.25" y="0.25" width="236.5" height="72.5" rx="5.75" stroke="#5167F6" stroke-width="0.5"/>
<defs>
<clipPath id="clip0_901_1934">
<rect width="200" height="22" fill="white" transform="translate(18 4)"/>
</clipPath>
</defs>
</svg>
