<svg width="41" height="39" viewBox="0 0 41 39" fill="none" xmlns="http://www.w3.org/2000/svg">
<path d="M20.6021 0C15.1922 -6.16722e-08 10.0039 2.05446 6.17854 5.71142C2.35317 9.36838 0.204102 14.3283 0.204102 19.5C0.204101 24.6717 2.35317 29.6316 6.17854 33.2886C10.0039 36.9455 15.1922 39 20.6021 39L20.6021 19.5L20.6021 0Z" fill="#1F1C68"/>
<path d="M20.5 0C25.9369 -6.16722e-08 31.1512 2.05446 34.9957 5.71142C38.8402 9.36838 41 14.3283 41 19.5C41 24.6717 38.8402 29.6316 34.9957 33.2886C31.1512 36.9455 25.9369 39 20.5 39L20.5 19.5L20.5 0Z" fill="#5167F6"/>
<path d="M26.0442 11.613L26.1906 11.4531C26.3007 11.3329 26.4315 11.2375 26.5754 11.1724C26.7193 11.1074 26.8736 11.0739 27.0293 11.074C27.1851 11.074 27.3393 11.1076 27.4832 11.1727C27.6271 11.2379 27.7578 11.3333 27.8679 11.4536C27.978 11.574 28.0653 11.7168 28.1249 11.874C28.1844 12.0312 28.2151 12.1996 28.215 12.3697C28.215 12.5398 28.1842 12.7083 28.1246 12.8654C28.065 13.0226 27.9776 13.1653 27.8674 13.2856L27.721 13.4444C27.9714 13.7511 28.1049 14.1507 28.0941 14.5615C28.0833 14.9722 27.9291 15.3629 27.6631 15.6534L17.5529 26.6965C17.4897 26.7652 17.4106 26.8138 17.3241 26.8371L13.3948 27.9099C13.3125 27.9323 13.2264 27.931 13.1447 27.9063C13.0631 27.8816 12.9887 27.8342 12.9288 27.7687C12.8689 27.7033 12.8255 27.622 12.8028 27.5328C12.7801 27.4436 12.779 27.3496 12.7995 27.2598L13.7818 22.9683C13.8033 22.8741 13.8478 22.7881 13.9105 22.7194L23.3821 12.3747C23.2874 12.3019 23.1721 12.268 23.0567 12.279C22.9413 12.29 22.8332 12.3452 22.7514 12.4348L19.5176 15.9678C19.4719 16.0176 19.4177 16.0572 19.3581 16.0842C19.2984 16.1112 19.2344 16.1251 19.1699 16.1251C19.1053 16.1251 19.0413 16.1112 18.9817 16.0842C18.922 16.0572 18.8678 16.0176 18.8221 15.9678C18.7764 15.9179 18.7402 15.8587 18.7155 15.7935C18.6908 15.7283 18.6781 15.6585 18.6781 15.588C18.6781 15.5174 18.6908 15.4476 18.7155 15.3824C18.7402 15.3173 18.7764 15.258 18.8221 15.2082L22.0579 11.6763C22.3241 11.3855 22.6821 11.2171 23.0584 11.2055C23.4347 11.194 23.8008 11.3401 24.0815 11.614C24.3514 11.3506 24.7007 11.2049 25.0627 11.2047C25.4246 11.2045 25.774 11.3498 26.0442 11.613Z" fill="white"/>
</svg>
