<svg width="19" height="11" viewBox="0 0 19 11" fill="none" xmlns="http://www.w3.org/2000/svg">
<path d="M0 10.0833C0 10.5896 0.410406 11 0.916666 11H8.58333C9.08959 11 9.5 10.5896 9.5 10.0833C9.5 9.57707 9.08959 9.16667 8.58333 9.16667H0.916666C0.410405 9.16667 0 9.57707 0 10.0833ZM0 7.02682C0 7.53308 0.410406 7.94349 0.916666 7.94349H18.0833C18.5896 7.94349 19 7.53308 19 7.02682C19 6.52056 18.5896 6.11016 18.0833 6.11016H0.916667C0.410406 6.11016 0 6.52056 0 7.02682ZM9.5 3.97318C9.5 3.46692 9.08959 3.05651 8.58333 3.05651H0.916666C0.410405 3.05651 0 3.46692 0 3.97318C0 4.47944 0.410406 4.88984 0.916666 4.88984H8.58333C9.08959 4.88984 9.5 4.47944 9.5 3.97318ZM0.916667 0C0.410406 0 0 0.410406 0 0.916667C0 1.42293 0.410406 1.83333 0.916666 1.83333H18.0833C18.5896 1.83333 19 1.42293 19 0.916667C19 0.410406 18.5896 0 18.0833 0H0.916667Z" fill="white"/>
</svg>
