<svg width="15" height="15" viewBox="0 0 15 15" fill="none" xmlns="http://www.w3.org/2000/svg">
<path d="M13.8158 12.3529C14.1199 12.3531 14.4123 12.484 14.6324 12.7186C14.8525 12.9532 14.9834 13.2734 14.998 13.6129C15.0127 13.9524 14.9098 14.2851 14.7109 14.5422C14.512 14.7993 14.2322 14.961 13.9295 14.9938L13.8158 15H1.18421C0.880092 14.9998 0.587688 14.8689 0.367589 14.6343C0.147491 14.3998 0.0165695 14.0796 0.00195453 13.7401C-0.0126604 13.4006 0.0901514 13.0678 0.289086 12.8107C0.48802 12.5536 0.767827 12.3919 1.07053 12.3591L1.18421 12.3529H13.8158ZM13.8158 6.17647C14.1299 6.17647 14.4311 6.31591 14.6532 6.56412C14.8752 6.81233 15 7.14898 15 7.5C15 7.85102 14.8752 8.18767 14.6532 8.43588C14.4311 8.68409 14.1299 8.82353 13.8158 8.82353H1.18421C0.870138 8.82353 0.56893 8.68409 0.346847 8.43588C0.124765 8.18767 0 7.85102 0 7.5C0 7.14898 0.124765 6.81233 0.346847 6.56412C0.56893 6.31591 0.870138 6.17647 1.18421 6.17647H13.8158ZM13.8158 0C14.1299 0 14.4311 0.139443 14.6532 0.387653C14.8752 0.635863 15 0.972508 15 1.32353C15 1.67455 14.8752 2.0112 14.6532 2.25941C14.4311 2.50762 14.1299 2.64706 13.8158 2.64706H1.18421C0.870138 2.64706 0.56893 2.50762 0.346847 2.25941C0.124765 2.0112 0 1.67455 0 1.32353C0 0.972508 0.124765 0.635863 0.346847 0.387653C0.56893 0.139443 0.870138 0 1.18421 0H13.8158Z" fill="black"/>
</svg>
