<svg width="286" height="182" viewBox="0 0 286 182" fill="none" xmlns="http://www.w3.org/2000/svg">
<g clip-path="url(#clip0_491_812)">
<path opacity="0.18" d="M99.5734 122.83C114.161 128.244 130.659 128.161 146.594 127.982C154.953 127.893 163.601 127.75 171.212 124.825C181.792 120.758 188.663 112.027 197.946 106.119C208.604 99.3231 222.246 96.3929 232.58 89.252C237.609 85.779 241.682 81.4223 244.514 76.485C247.347 71.5478 248.871 66.1486 248.98 60.6635C249.09 55.1783 247.782 49.7389 245.148 44.7239C242.514 39.7089 238.618 35.2388 233.729 31.6247C228.263 27.5868 221.738 24.734 215.27 21.9289L182.787 7.81389C175.176 4.50848 167.367 1.14947 158.875 0.250157C151.708 -0.506216 144.457 0.541986 137.452 1.89393C117.49 5.70557 97.683 12.2747 83.0394 24.2992C70.4413 34.6621 62.2166 48.5806 48.4335 57.806C44.9066 60.1585 40.9988 62.237 38.4312 65.3459C29.1908 76.5485 38.5511 90.8601 50.5567 96.6013C67.1825 104.546 82.1435 116.368 99.5734 122.83Z" fill="#5167F6"/>
<path d="M143.004 182C204.431 182 254.228 176.806 254.228 170.398C254.228 163.991 204.431 158.797 143.004 158.797C81.5763 158.797 31.7795 163.991 31.7795 170.398C31.7795 176.806 81.5763 182 143.004 182Z" fill="#5167F6"/>
<path d="M143.004 182C204.431 182 254.228 176.806 254.228 170.398C254.228 163.991 204.431 158.797 143.004 158.797C81.5763 158.797 31.7795 163.991 31.7795 170.398C31.7795 176.806 81.5763 182 143.004 182Z" fill="url(#paint0_linear_491_812)"/>
<path d="M82.0728 57.0555C80.0098 55.8743 77.6868 55.0547 75.2417 54.6455C72.7966 54.2363 70.279 54.2457 67.8383 54.6733C66.9449 54.7908 66.1008 55.0959 65.3836 55.5607C63.7118 56.7518 63.9728 58.9673 63.5284 60.7898C62.9853 63.035 61.2007 64.9587 60.5588 67.1743C60.185 68.8414 60.1635 70.5512 60.4953 72.2247C61.4351 78.8259 63.3083 85.3082 66.0748 91.533L58.3157 177.837C58.3157 177.837 66.2512 178.921 82.3479 180.005L84.0549 97.8163L82.0728 57.0555Z" fill="#EEA886"/>
<path d="M73.2485 107.387L83.5259 142.478V91.8666L78.955 80.3959L73.2485 107.387Z" fill="url(#paint1_linear_491_812)"/>
<path d="M207.644 57.794C209.712 56.6215 212.037 55.8108 214.482 55.4098C216.927 55.0089 219.442 55.0257 221.879 55.4594C222.774 55.5796 223.619 55.8844 224.341 56.3468C226.005 57.5379 225.751 59.7535 226.189 61.5819C226.739 63.8272 228.524 65.7508 229.165 67.9664C229.54 69.6316 229.56 71.34 229.222 73.0108C228.289 79.6124 226.418 86.0952 223.649 92.3192L231.373 177.42C231.373 177.42 222.732 178.647 207.292 179.88L205.634 98.5965L207.644 57.794Z" fill="#EEA886"/>
<path d="M217.788 104.88L214.141 120.692L206.375 134.956L205.691 103.915L217.788 104.88Z" fill="url(#paint2_linear_491_812)"/>
<path d="M212.342 28.8255H74.8147C71.554 28.8255 68.9106 31.0574 68.9106 33.8105V103.272C68.9106 106.025 71.554 108.257 74.8147 108.257H212.342C215.603 108.257 218.246 106.025 218.246 103.272V33.8105C218.246 31.0574 215.603 28.8255 212.342 28.8255Z" fill="#5167F6"/>
<path d="M212.342 28.8255H74.8147C71.554 28.8255 68.9106 31.0574 68.9106 33.8105V103.272C68.9106 106.025 71.554 108.257 74.8147 108.257H212.342C215.603 108.257 218.246 106.025 218.246 103.272V33.8105C218.246 31.0574 215.603 28.8255 212.342 28.8255Z" fill="url(#paint3_linear_491_812)"/>
<path d="M212.342 25.6393H74.8147C71.554 25.6393 68.9106 27.8711 68.9106 30.6242V100.085C68.9106 102.839 71.554 105.07 74.8147 105.07H212.342C215.603 105.07 218.246 102.839 218.246 100.085V30.6242C218.246 27.8711 215.603 25.6393 212.342 25.6393Z" fill="#5167F6"/>
<path d="M75.2378 56.0133C75.8431 56.2677 76.3587 56.6517 76.7332 57.127C77.0431 57.6855 77.1952 58.2971 77.1776 58.9137L77.3892 62.7551C77.485 63.3871 77.3953 64.0293 77.1282 64.6252C76.9859 64.9192 76.7255 65.1615 76.3927 65.3096C76.06 65.4577 75.6761 65.5022 75.3083 65.4352C75.5784 66.1829 75.6658 66.9691 75.5652 67.7461C75.4645 68.5232 75.178 69.2748 74.7229 69.9556C74.4948 70.2423 74.3166 70.5552 74.1938 70.8846C74.1352 71.2821 74.1591 71.6852 74.2644 72.0758C74.4243 73.0393 74.3391 74.0206 74.0143 74.9542C73.6896 75.8877 73.1327 76.752 72.381 77.4895C72.1512 77.7311 71.8687 77.9333 71.5487 78.0851C71.129 78.2361 70.6787 78.3171 70.2226 78.3233L68.1487 78.4722C68.0462 78.5006 67.9373 78.5088 67.8305 78.4961C67.7236 78.4834 67.6217 78.4501 67.5324 78.399C67.4432 78.3478 67.369 78.2799 67.3157 78.2007C67.2623 78.1216 67.2312 78.0331 67.2247 77.9421C65.6501 73.7249 64.9345 69.3126 65.1086 64.8932C65.1901 62.6663 65.5064 60.45 66.0538 58.2705C66.3853 56.996 67.0342 55.0544 68.6496 54.5363C70.7375 53.9169 73.432 55.1378 75.2378 56.0133Z" fill="#EEA886"/>
<path d="M211.46 56.0133C210.855 56.2677 210.34 56.6517 209.965 57.127C209.655 57.6855 209.503 58.2971 209.521 58.9137L209.309 62.7551C209.213 63.3871 209.303 64.0293 209.57 64.6252C209.712 64.9192 209.973 65.1615 210.306 65.3096C210.638 65.4577 211.022 65.5022 211.39 65.4352C211.12 66.1827 211.033 66.9684 211.132 67.7453C211.232 68.5221 211.516 69.2739 211.968 69.9556C212.201 70.2407 212.382 70.5539 212.504 70.8846C212.564 71.2824 212.538 71.686 212.427 72.0758C212.27 73.0397 212.358 74.0208 212.684 74.9541C213.009 75.8873 213.566 76.7515 214.317 77.4895C214.547 77.7311 214.83 77.9333 215.15 78.0851C215.569 78.2362 216.02 78.3171 216.476 78.3233L218.571 78.496C218.673 78.5244 218.782 78.5326 218.889 78.5199C218.996 78.5072 219.098 78.474 219.187 78.4228C219.276 78.3716 219.35 78.3038 219.404 78.2246C219.457 78.1454 219.488 78.0569 219.495 77.966C221.069 73.7487 221.785 69.3364 221.611 64.917C221.53 62.6898 221.212 60.4732 220.659 58.2943C220.334 57.0198 219.953 55.4237 218.352 54.9055C216.243 54.2564 213.266 55.1378 211.46 56.0133Z" fill="#EEA886"/>
<path d="M106.041 51.3636V63H103.916L98.8537 55.6761H98.7685V63H96.3082V51.3636H98.4673L103.49 58.6818H103.592V51.3636H106.041ZM111.972 63.1705C111.089 63.1705 110.326 62.983 109.682 62.608C109.042 62.2292 108.547 61.7027 108.199 61.0284C107.85 60.3504 107.676 59.5644 107.676 58.6705C107.676 57.7689 107.85 56.9811 108.199 56.3068C108.547 55.6288 109.042 55.1023 109.682 54.7273C110.326 54.3485 111.089 54.1591 111.972 54.1591C112.854 54.1591 113.616 54.3485 114.256 54.7273C114.9 55.1023 115.396 55.6288 115.744 56.3068C116.093 56.9811 116.267 57.7689 116.267 58.6705C116.267 59.5644 116.093 60.3504 115.744 61.0284C115.396 61.7027 114.9 62.2292 114.256 62.608C113.616 62.983 112.854 63.1705 111.972 63.1705ZM111.983 61.2955C112.384 61.2955 112.72 61.1818 112.989 60.9545C113.258 60.7235 113.46 60.4091 113.597 60.0114C113.737 59.6136 113.807 59.161 113.807 58.6534C113.807 58.1458 113.737 57.6932 113.597 57.2955C113.46 56.8977 113.258 56.5833 112.989 56.3523C112.72 56.1212 112.384 56.0057 111.983 56.0057C111.578 56.0057 111.237 56.1212 110.96 56.3523C110.688 56.5833 110.481 56.8977 110.341 57.2955C110.205 57.6932 110.136 58.1458 110.136 58.6534C110.136 59.161 110.205 59.6136 110.341 60.0114C110.481 60.4091 110.688 60.7235 110.96 60.9545C111.237 61.1818 111.578 61.2955 111.983 61.2955ZM120.261 57.9545V63H117.841V54.2727H120.148V55.8125H120.25C120.443 55.3049 120.767 54.9034 121.222 54.608C121.676 54.3087 122.227 54.1591 122.875 54.1591C123.481 54.1591 124.009 54.2917 124.46 54.5568C124.911 54.822 125.261 55.2008 125.511 55.6932C125.761 56.1818 125.886 56.7652 125.886 57.4432V63H123.466V57.875C123.47 57.3409 123.333 56.9242 123.057 56.625C122.78 56.322 122.4 56.1705 121.915 56.1705C121.589 56.1705 121.301 56.2405 121.051 56.3807C120.805 56.5208 120.612 56.7254 120.472 56.9943C120.335 57.2595 120.265 57.5795 120.261 57.9545ZM131.771 63.1705C130.874 63.1705 130.101 62.9886 129.453 62.625C128.809 62.2576 128.313 61.7386 127.964 61.0682C127.616 60.3939 127.442 59.5966 127.442 58.6761C127.442 57.7784 127.616 56.9905 127.964 56.3125C128.313 55.6345 128.804 55.1061 129.436 54.7273C130.072 54.3485 130.819 54.1591 131.675 54.1591C132.25 54.1591 132.786 54.2519 133.283 54.4375C133.783 54.6193 134.218 54.8939 134.589 55.2614C134.964 55.6288 135.256 56.0909 135.464 56.6477C135.673 57.2008 135.777 57.8485 135.777 58.5909V59.2557H128.408V57.7557H133.499C133.499 57.4072 133.423 57.0985 133.271 56.8295C133.12 56.5606 132.91 56.3504 132.641 56.1989C132.375 56.0436 132.067 55.9659 131.714 55.9659C131.347 55.9659 131.021 56.0511 130.737 56.2216C130.457 56.3883 130.237 56.6136 130.078 56.8977C129.919 57.178 129.838 57.4905 129.834 57.8352V59.2614C129.834 59.6932 129.913 60.0663 130.072 60.3807C130.235 60.6951 130.464 60.9375 130.76 61.108C131.055 61.2784 131.406 61.3636 131.811 61.3636C132.08 61.3636 132.326 61.3258 132.55 61.25C132.773 61.1742 132.964 61.0606 133.124 60.9091C133.283 60.7576 133.404 60.572 133.487 60.3523L135.726 60.5C135.612 61.0379 135.379 61.5076 135.027 61.9091C134.679 62.3068 134.228 62.6174 133.675 62.8409C133.125 63.0606 132.491 63.1705 131.771 63.1705ZM141.105 63V51.3636H148.81V53.392H143.565V56.1648H148.298V58.1932H143.565V63H141.105ZM153.722 63.1705C152.839 63.1705 152.076 62.983 151.432 62.608C150.792 62.2292 150.297 61.7027 149.949 61.0284C149.6 60.3504 149.426 59.5644 149.426 58.6705C149.426 57.7689 149.6 56.9811 149.949 56.3068C150.297 55.6288 150.792 55.1023 151.432 54.7273C152.076 54.3485 152.839 54.1591 153.722 54.1591C154.604 54.1591 155.366 54.3485 156.006 54.7273C156.65 55.1023 157.146 55.6288 157.494 56.3068C157.843 56.9811 158.017 57.7689 158.017 58.6705C158.017 59.5644 157.843 60.3504 157.494 61.0284C157.146 61.7027 156.65 62.2292 156.006 62.608C155.366 62.983 154.604 63.1705 153.722 63.1705ZM153.733 61.2955C154.134 61.2955 154.47 61.1818 154.739 60.9545C155.008 60.7235 155.21 60.4091 155.347 60.0114C155.487 59.6136 155.557 59.161 155.557 58.6534C155.557 58.1458 155.487 57.6932 155.347 57.2955C155.21 56.8977 155.008 56.5833 154.739 56.3523C154.47 56.1212 154.134 56.0057 153.733 56.0057C153.328 56.0057 152.987 56.1212 152.71 56.3523C152.438 56.5833 152.231 56.8977 152.091 57.2955C151.955 57.6932 151.886 58.1458 151.886 58.6534C151.886 59.161 151.955 59.6136 152.091 60.0114C152.231 60.4091 152.438 60.7235 152.71 60.9545C152.987 61.1818 153.328 61.2955 153.733 61.2955ZM165.188 59.2841V54.2727H167.608V63H165.284V61.4148H165.193C164.996 61.9261 164.669 62.3371 164.21 62.6477C163.756 62.9583 163.201 63.1136 162.545 63.1136C161.962 63.1136 161.449 62.9811 161.006 62.7159C160.563 62.4508 160.216 62.0739 159.966 61.5852C159.72 61.0966 159.595 60.5114 159.591 59.8295V54.2727H162.011V59.3977C162.015 59.9129 162.153 60.3201 162.426 60.6193C162.699 60.9186 163.064 61.0682 163.523 61.0682C163.814 61.0682 164.087 61.0019 164.341 60.8693C164.595 60.733 164.799 60.5322 164.955 60.267C165.114 60.0019 165.191 59.6742 165.188 59.2841ZM171.964 57.9545V63H169.544V54.2727H171.851V55.8125H171.953C172.146 55.3049 172.47 54.9034 172.925 54.608C173.379 54.3087 173.93 54.1591 174.578 54.1591C175.184 54.1591 175.713 54.2917 176.163 54.5568C176.614 54.822 176.964 55.2008 177.214 55.6932C177.464 56.1818 177.589 56.7652 177.589 57.4432V63H175.169V57.875C175.173 57.3409 175.036 56.9242 174.76 56.625C174.483 56.322 174.103 56.1705 173.618 56.1705C173.292 56.1705 173.004 56.2405 172.754 56.3807C172.508 56.5208 172.315 56.7254 172.175 56.9943C172.038 57.2595 171.968 57.5795 171.964 57.9545ZM182.713 63.142C182.05 63.142 181.45 62.9716 180.912 62.6307C180.378 62.286 179.954 61.7803 179.639 61.1136C179.329 60.4432 179.173 59.6212 179.173 58.6477C179.173 57.6477 179.334 56.8163 179.656 56.1534C179.978 55.4867 180.406 54.9886 180.94 54.6591C181.478 54.3258 182.067 54.1591 182.707 54.1591C183.196 54.1591 183.603 54.2424 183.929 54.4091C184.259 54.572 184.524 54.7765 184.724 55.0227C184.929 55.2652 185.084 55.5038 185.19 55.7386H185.264V51.3636H187.679V63H185.293V61.6023H185.19C185.077 61.8447 184.916 62.0852 184.707 62.3239C184.503 62.5587 184.236 62.7538 183.906 62.9091C183.58 63.0644 183.183 63.142 182.713 63.142ZM183.48 61.2159C183.87 61.2159 184.2 61.1098 184.469 60.8977C184.741 60.6818 184.95 60.3807 185.094 59.9943C185.241 59.608 185.315 59.1553 185.315 58.6364C185.315 58.1174 185.243 57.6667 185.099 57.2841C184.955 56.9015 184.747 56.6061 184.474 56.3977C184.202 56.1894 183.87 56.0852 183.48 56.0852C183.082 56.0852 182.747 56.1932 182.474 56.4091C182.202 56.625 181.995 56.9242 181.855 57.3068C181.715 57.6894 181.645 58.1326 181.645 58.6364C181.645 59.1439 181.715 59.5928 181.855 59.983C181.999 60.3693 182.205 60.6723 182.474 60.892C182.747 61.108 183.082 61.2159 183.48 61.2159Z" fill="white"/>
<path d="M110.369 74H109.488C109.436 73.7467 109.345 73.5241 109.215 73.3324C109.087 73.1406 108.93 72.9796 108.746 72.8494C108.564 72.7169 108.361 72.6174 108.139 72.5511C107.916 72.4848 107.684 72.4517 107.443 72.4517C107.002 72.4517 106.603 72.563 106.246 72.7855C105.891 73.008 105.608 73.3359 105.397 73.7692C105.189 74.2024 105.085 74.7339 105.085 75.3636C105.085 75.9934 105.189 76.5249 105.397 76.9581C105.608 77.3913 105.891 77.7192 106.246 77.9418C106.603 78.1643 107.002 78.2756 107.443 78.2756C107.684 78.2756 107.916 78.2424 108.139 78.1761C108.361 78.1098 108.564 78.0116 108.746 77.8814C108.93 77.7488 109.087 77.5866 109.215 77.3949C109.345 77.2008 109.436 76.9782 109.488 76.7273H110.369C110.302 77.099 110.182 77.4316 110.006 77.7251C109.831 78.0187 109.613 78.2685 109.353 78.4744C109.093 78.678 108.8 78.8331 108.476 78.9396C108.154 79.0462 107.81 79.0994 107.443 79.0994C106.822 79.0994 106.271 78.9479 105.788 78.6449C105.305 78.3419 104.925 77.911 104.648 77.3523C104.371 76.7936 104.232 76.1307 104.232 75.3636C104.232 74.5966 104.371 73.9337 104.648 73.375C104.925 72.8163 105.305 72.3854 105.788 72.0824C106.271 71.7794 106.822 71.6278 107.443 71.6278C107.81 71.6278 108.154 71.6811 108.476 71.7876C108.8 71.8942 109.093 72.0504 109.353 72.2564C109.613 72.46 109.831 72.7086 110.006 73.0021C110.182 73.2933 110.302 73.6259 110.369 74ZM111.678 79V73.5455H112.488V74.3693H112.545C112.644 74.0994 112.824 73.8804 113.084 73.7124C113.345 73.5443 113.638 73.4602 113.965 73.4602C114.027 73.4602 114.104 73.4614 114.196 73.4638C114.288 73.4661 114.358 73.4697 114.405 73.4744V74.3267C114.377 74.3196 114.312 74.3089 114.21 74.2947C114.111 74.2782 114.005 74.2699 113.894 74.2699C113.629 74.2699 113.392 74.3255 113.184 74.4368C112.978 74.5457 112.815 74.6972 112.694 74.8913C112.575 75.0831 112.516 75.3021 112.516 75.5483V79H111.678ZM117.52 79.1136C116.994 79.1136 116.541 78.9976 116.16 78.7656C115.781 78.5312 115.489 78.2045 115.283 77.7855C115.079 77.3641 114.977 76.8741 114.977 76.3153C114.977 75.7566 115.079 75.2642 115.283 74.8381C115.489 74.4096 115.775 74.0758 116.142 73.8366C116.511 73.5952 116.942 73.4744 117.435 73.4744C117.719 73.4744 117.999 73.5218 118.276 73.6165C118.553 73.7112 118.805 73.8651 119.033 74.0781C119.26 74.2888 119.441 74.5682 119.576 74.9162C119.711 75.2642 119.778 75.6927 119.778 76.2017V76.5568H115.574V75.8324H118.926C118.926 75.5246 118.864 75.25 118.741 75.0085C118.621 74.767 118.448 74.5765 118.223 74.4368C118 74.2971 117.738 74.2273 117.435 74.2273C117.101 74.2273 116.812 74.3101 116.568 74.4759C116.327 74.6392 116.141 74.8523 116.011 75.1151C115.88 75.3778 115.815 75.6596 115.815 75.9602V76.4432C115.815 76.8551 115.886 77.2043 116.028 77.4908C116.173 77.7749 116.373 77.9915 116.628 78.1406C116.884 78.2874 117.181 78.3608 117.52 78.3608C117.74 78.3608 117.939 78.33 118.116 78.2685C118.296 78.2045 118.451 78.1098 118.582 77.9844C118.712 77.8565 118.812 77.6979 118.883 77.5085L119.693 77.7358C119.608 78.0104 119.465 78.2519 119.263 78.4602C119.062 78.6662 118.814 78.8272 118.518 78.9432C118.222 79.0568 117.889 79.1136 117.52 79.1136ZM122.658 79.1278C122.313 79.1278 121.999 79.0627 121.717 78.9325C121.436 78.8 121.212 78.6094 121.046 78.3608C120.88 78.1098 120.797 77.8068 120.797 77.4517C120.797 77.1392 120.859 76.8859 120.982 76.6918C121.105 76.4953 121.27 76.3414 121.476 76.2301C121.682 76.1188 121.909 76.036 122.158 75.9815C122.409 75.9247 122.661 75.8797 122.914 75.8466C123.245 75.804 123.514 75.772 123.72 75.7507C123.928 75.727 124.08 75.688 124.175 75.6335C124.272 75.5791 124.32 75.4844 124.32 75.3494V75.321C124.32 74.9706 124.224 74.6984 124.033 74.5043C123.843 74.3101 123.556 74.2131 123.17 74.2131C122.77 74.2131 122.456 74.3007 122.229 74.4759C122.001 74.651 121.842 74.8381 121.749 75.0369L120.954 74.7528C121.096 74.4214 121.285 74.1634 121.522 73.9787C121.761 73.7917 122.021 73.6615 122.303 73.5881C122.587 73.5123 122.867 73.4744 123.141 73.4744C123.316 73.4744 123.518 73.4957 123.745 73.5384C123.975 73.5786 124.196 73.6626 124.409 73.7905C124.624 73.9183 124.803 74.1113 124.945 74.3693C125.087 74.6274 125.158 74.973 125.158 75.4062V79H124.32V78.2614H124.278C124.221 78.3797 124.126 78.5064 123.994 78.6413C123.861 78.7763 123.685 78.8911 123.464 78.9858C123.244 79.0805 122.976 79.1278 122.658 79.1278ZM122.786 78.375C123.118 78.375 123.397 78.3099 123.624 78.1797C123.854 78.0495 124.027 77.8814 124.143 77.6754C124.261 77.4695 124.32 77.2528 124.32 77.0256V76.2585C124.285 76.3011 124.207 76.3402 124.086 76.3757C123.967 76.4089 123.83 76.4384 123.674 76.4645C123.52 76.4882 123.37 76.5095 123.223 76.5284C123.079 76.545 122.961 76.5592 122.871 76.571C122.654 76.5994 122.45 76.6456 122.261 76.7095C122.074 76.7711 121.922 76.8646 121.806 76.9901C121.692 77.1132 121.636 77.2812 121.636 77.4943C121.636 77.7855 121.743 78.0057 121.959 78.1548C122.177 78.3016 122.452 78.375 122.786 78.375ZM129.06 73.5455V74.2557H126.233V73.5455H129.06ZM127.057 72.2386H127.895V77.4375C127.895 77.6742 127.93 77.8518 127.998 77.9702C128.069 78.0862 128.159 78.1643 128.268 78.2045C128.379 78.2424 128.497 78.2614 128.62 78.2614C128.712 78.2614 128.788 78.2566 128.847 78.2472C128.906 78.2353 128.954 78.2259 128.989 78.2188L129.16 78.9716C129.103 78.9929 129.023 79.0142 128.922 79.0355C128.82 79.0592 128.691 79.071 128.535 79.071C128.298 79.071 128.066 79.0201 127.839 78.9183C127.614 78.8165 127.427 78.6615 127.277 78.4531C127.131 78.2448 127.057 77.982 127.057 77.6648V72.2386ZM132.549 79.1136C132.024 79.1136 131.57 78.9976 131.189 78.7656C130.81 78.5312 130.518 78.2045 130.312 77.7855C130.108 77.3641 130.006 76.8741 130.006 76.3153C130.006 75.7566 130.108 75.2642 130.312 74.8381C130.518 74.4096 130.804 74.0758 131.171 73.8366C131.541 73.5952 131.971 73.4744 132.464 73.4744C132.748 73.4744 133.028 73.5218 133.305 73.6165C133.582 73.7112 133.835 73.8651 134.062 74.0781C134.289 74.2888 134.47 74.5682 134.605 74.9162C134.74 75.2642 134.808 75.6927 134.808 76.2017V76.5568H130.603V75.8324H133.955C133.955 75.5246 133.894 75.25 133.771 75.0085C133.65 74.767 133.477 74.5765 133.252 74.4368C133.03 74.2971 132.767 74.2273 132.464 74.2273C132.13 74.2273 131.841 74.3101 131.597 74.4759C131.356 74.6392 131.17 74.8523 131.04 75.1151C130.91 75.3778 130.845 75.6596 130.845 75.9602V76.4432C130.845 76.8551 130.916 77.2043 131.058 77.4908C131.202 77.7749 131.402 77.9915 131.658 78.1406C131.913 78.2874 132.211 78.3608 132.549 78.3608C132.769 78.3608 132.968 78.33 133.146 78.2685C133.326 78.2045 133.481 78.1098 133.611 77.9844C133.741 77.8565 133.842 77.6979 133.913 77.5085L134.722 77.7358C134.637 78.0104 134.494 78.2519 134.293 78.4602C134.091 78.6662 133.843 78.8272 133.547 78.9432C133.251 79.0568 132.918 79.1136 132.549 79.1136ZM139.307 79H138.384L141.054 71.7273H141.963L144.634 79H143.71L141.537 72.8778H141.48L139.307 79ZM139.648 76.1591H143.369V76.9403H139.648V76.1591ZM152.556 73.5455C152.514 73.1856 152.341 72.9062 152.038 72.7074C151.735 72.5085 151.363 72.4091 150.923 72.4091C150.601 72.4091 150.319 72.4612 150.078 72.5653C149.838 72.6695 149.651 72.8127 149.516 72.995C149.384 73.1773 149.318 73.3845 149.318 73.6165C149.318 73.8106 149.364 73.9775 149.456 74.1172C149.551 74.2545 149.671 74.3693 149.818 74.4616C149.965 74.5516 150.119 74.6262 150.28 74.6854C150.441 74.7422 150.589 74.7884 150.724 74.8239L151.462 75.0227C151.652 75.0724 151.863 75.1411 152.095 75.2287C152.329 75.3163 152.553 75.4358 152.766 75.5874C152.981 75.7365 153.159 75.9283 153.298 76.1626C153.438 76.397 153.508 76.6847 153.508 77.0256C153.508 77.4186 153.405 77.7737 153.199 78.0909C152.995 78.4081 152.697 78.6603 152.304 78.8473C151.913 79.0343 151.439 79.1278 150.88 79.1278C150.359 79.1278 149.908 79.0438 149.527 78.8757C149.148 78.7076 148.85 78.4732 148.632 78.1726C148.417 77.8719 148.295 77.5227 148.266 77.125H149.176C149.199 77.3996 149.292 77.6269 149.453 77.8068C149.616 77.9844 149.822 78.117 150.07 78.2045C150.321 78.2898 150.591 78.3324 150.88 78.3324C151.216 78.3324 151.518 78.2779 151.786 78.169C152.053 78.0578 152.265 77.9039 152.421 77.7074C152.578 77.5085 152.656 77.2765 152.656 77.0114C152.656 76.7699 152.588 76.5734 152.453 76.4219C152.318 76.2704 152.141 76.1473 151.921 76.0526C151.7 75.9579 151.462 75.875 151.207 75.804L150.312 75.5483C149.744 75.3849 149.294 75.1518 148.962 74.8487C148.631 74.5457 148.465 74.1491 148.465 73.6591C148.465 73.2519 148.575 72.8968 148.796 72.5938C149.018 72.2884 149.316 72.0516 149.69 71.8835C150.067 71.7131 150.487 71.6278 150.951 71.6278C151.42 71.6278 151.836 71.7119 152.201 71.88C152.566 72.0457 152.854 72.273 153.068 72.5618C153.283 72.8506 153.397 73.1785 153.408 73.5455H152.556ZM158.28 76.7699V73.5455H159.118V79H158.28V78.0767H158.223C158.095 78.3537 157.896 78.5893 157.626 78.7834C157.356 78.9751 157.016 79.071 156.604 79.071C156.263 79.071 155.96 78.9964 155.695 78.8473C155.429 78.6958 155.221 78.4685 155.07 78.1655C154.918 77.8601 154.842 77.4754 154.842 77.0114V73.5455H155.68V76.9545C155.68 77.3523 155.792 77.6695 156.014 77.9062C156.239 78.143 156.525 78.2614 156.873 78.2614C157.082 78.2614 157.294 78.2081 157.509 78.1016C157.727 77.995 157.909 77.8317 158.056 77.6115C158.205 77.3913 158.28 77.1108 158.28 76.7699ZM160.653 79V73.5455H161.462V74.3693H161.519C161.619 74.0994 161.799 73.8804 162.059 73.7124C162.319 73.5443 162.613 73.4602 162.94 73.4602C163.001 73.4602 163.078 73.4614 163.171 73.4638C163.263 73.4661 163.333 73.4697 163.38 73.4744V74.3267C163.352 74.3196 163.287 74.3089 163.185 74.2947C163.085 74.2782 162.98 74.2699 162.869 74.2699C162.604 74.2699 162.367 74.3255 162.158 74.4368C161.953 74.5457 161.789 74.6972 161.668 74.8913C161.55 75.0831 161.491 75.3021 161.491 75.5483V79H160.653ZM169 73.5455L166.983 79H166.13L164.113 73.5455H165.022L166.528 77.892H166.585L168.091 73.5455H169ZM172.198 79.1136C171.672 79.1136 171.219 78.9976 170.837 78.7656C170.459 78.5312 170.166 78.2045 169.96 77.7855C169.757 77.3641 169.655 76.8741 169.655 76.3153C169.655 75.7566 169.757 75.2642 169.96 74.8381C170.166 74.4096 170.453 74.0758 170.82 73.8366C171.189 73.5952 171.62 73.4744 172.112 73.4744C172.396 73.4744 172.677 73.5218 172.954 73.6165C173.231 73.7112 173.483 73.8651 173.71 74.0781C173.938 74.2888 174.119 74.5682 174.254 74.9162C174.389 75.2642 174.456 75.6927 174.456 76.2017V76.5568H170.252V75.8324H173.604C173.604 75.5246 173.542 75.25 173.419 75.0085C173.298 74.767 173.126 74.5765 172.901 74.4368C172.678 74.2971 172.415 74.2273 172.112 74.2273C171.778 74.2273 171.49 74.3101 171.246 74.4759C171.004 74.6392 170.819 74.8523 170.688 75.1151C170.558 75.3778 170.493 75.6596 170.493 75.9602V76.4432C170.493 76.8551 170.564 77.2043 170.706 77.4908C170.85 77.7749 171.051 77.9915 171.306 78.1406C171.562 78.2874 171.859 78.3608 172.198 78.3608C172.418 78.3608 172.617 78.33 172.794 78.2685C172.974 78.2045 173.129 78.1098 173.259 77.9844C173.39 77.8565 173.49 77.6979 173.561 77.5085L174.371 77.7358C174.286 78.0104 174.142 78.2519 173.941 78.4602C173.74 78.6662 173.491 78.8272 173.195 78.9432C172.899 79.0568 172.567 79.1136 172.198 79.1136ZM176.105 81.0455C175.963 81.0455 175.836 81.0336 175.725 81.0099C175.613 80.9886 175.536 80.9673 175.494 80.946L175.707 80.2074C175.911 80.2595 176.09 80.2784 176.247 80.2642C176.403 80.25 176.541 80.1802 176.662 80.0547C176.785 79.9316 176.898 79.7315 177 79.4545L177.156 79.0284L175.139 73.5455H176.048L177.554 77.892H177.61L179.116 73.5455H180.025L177.71 79.7955C177.606 80.0772 177.477 80.3104 177.323 80.495C177.169 80.6821 176.99 80.8205 176.786 80.9105C176.585 81.0005 176.358 81.0455 176.105 81.0455Z" fill="white"/>
</g>
<defs>
<linearGradient id="paint0_linear_491_812" x1="142.326" y1="154.252" x2="143.79" y2="203.428" gradientUnits="userSpaceOnUse">
<stop stop-opacity="0"/>
<stop offset="0.95"/>
</linearGradient>
<linearGradient id="paint1_linear_491_812" x1="79.5335" y1="137.952" x2="78.0699" y2="69.401" gradientUnits="userSpaceOnUse">
<stop stop-opacity="0"/>
<stop offset="0.99"/>
</linearGradient>
<linearGradient id="paint2_linear_491_812" x1="212.356" y1="128.506" x2="211.381" y2="85.5029" gradientUnits="userSpaceOnUse">
<stop stop-opacity="0"/>
<stop offset="0.95"/>
</linearGradient>
<linearGradient id="paint3_linear_491_812" x1="141.064" y1="142.013" x2="143.342" y2="48.6773" gradientUnits="userSpaceOnUse">
<stop stop-opacity="0"/>
<stop offset="0.99"/>
</linearGradient>
<clipPath id="clip0_491_812">
<rect width="286" height="182" fill="white"/>
</clipPath>
</defs>
</svg>
