<svg width="209" height="182" viewBox="0 0 209 182" fill="none" xmlns="http://www.w3.org/2000/svg">
<g clip-path="url(#clip0_491_812)">
<path opacity="0.18" d="M63.6728 122.83C77.3956 128.244 92.9167 128.161 107.907 127.982C115.77 127.893 123.906 127.75 131.066 124.825C141.02 120.758 147.483 112.027 156.215 106.119C166.242 99.3231 179.076 96.3929 188.797 89.252C193.529 85.779 197.36 81.4223 200.025 76.485C202.689 71.5478 204.123 66.1486 204.226 60.6635C204.329 55.1783 203.098 49.7389 200.621 44.7239C198.143 39.7089 194.477 35.2388 189.879 31.6247C184.736 27.5868 178.598 24.734 172.513 21.9289L141.955 7.81389C134.795 4.50848 127.449 1.14947 119.46 0.250157C112.718 -0.506216 105.896 0.541986 99.307 1.89393C80.5277 5.70557 61.8944 12.2747 48.1185 24.2992C36.267 34.6621 28.5297 48.5806 15.5634 57.806C12.2455 60.1585 8.56926 62.237 6.15383 65.3459C-2.53904 76.5485 6.26664 90.8601 17.5607 96.6013C33.2013 104.546 47.2758 116.368 63.6728 122.83Z" fill="#5167F6"/>
<path d="M104.529 182C162.317 182 209.162 176.806 209.162 170.398C209.162 163.991 162.317 158.797 104.529 158.797C46.742 158.797 -0.10376 163.991 -0.10376 170.398C-0.10376 176.806 46.742 182 104.529 182Z" fill="#5167F6"/>
<path d="M104.529 182C162.317 182 209.162 176.806 209.162 170.398C209.162 163.991 162.317 158.797 104.529 158.797C46.742 158.797 -0.10376 163.991 -0.10376 170.398C-0.10376 176.806 46.742 182 104.529 182Z" fill="url(#paint0_linear_491_812)"/>
<path d="M47.2092 57.0555C45.2684 55.8743 43.0831 55.0547 40.7829 54.6455C38.4826 54.2363 36.1143 54.2457 33.8182 54.6733C32.9777 54.7908 32.1837 55.0959 31.5089 55.5607C29.9362 56.7518 30.1818 58.9673 29.7637 60.7898C29.2528 63.035 27.5739 64.9587 26.97 67.1743C26.6184 68.8414 26.5982 70.5512 26.9103 72.2247C27.7945 78.8259 29.5567 85.3082 32.1592 91.533L24.8599 177.837C24.8599 177.837 32.3251 178.921 47.468 180.005L49.0738 97.8163L47.2092 57.0555Z" fill="#EEA886"/>
<path d="M38.908 107.387L48.5763 142.478V91.8666L44.2763 80.3959L38.908 107.387Z" fill="url(#paint1_linear_491_812)"/>
<path d="M165.34 57.794C167.285 56.6215 169.472 55.8108 171.772 55.4098C174.072 55.0089 176.438 55.0257 178.731 55.4594C179.572 55.5796 180.368 55.8844 181.046 56.3468C182.613 57.5379 182.374 59.7535 182.785 61.5819C183.303 63.8272 184.981 65.7508 185.585 67.9664C185.938 69.6316 185.956 71.34 185.638 73.0108C184.76 79.6124 183 86.0952 180.396 92.3192L187.662 177.42C187.662 177.42 179.534 178.647 165.008 179.88L163.448 98.5965L165.34 57.794Z" fill="#EEA886"/>
<path d="M174.882 104.88L171.451 120.692L164.145 134.956L163.501 103.915L174.882 104.88Z" fill="url(#paint2_linear_491_812)"/>
<path d="M169.759 28.8255H40.3813C37.3138 28.8255 34.8271 31.0574 34.8271 33.8105V103.272C34.8271 106.025 37.3138 108.257 40.3813 108.257H169.759C172.827 108.257 175.313 106.025 175.313 103.272V33.8105C175.313 31.0574 172.827 28.8255 169.759 28.8255Z" fill="#5167F6"/>
<path d="M169.759 28.8255H40.3813C37.3138 28.8255 34.8271 31.0574 34.8271 33.8105V103.272C34.8271 106.025 37.3138 108.257 40.3813 108.257H169.759C172.827 108.257 175.313 106.025 175.313 103.272V33.8105C175.313 31.0574 172.827 28.8255 169.759 28.8255Z" fill="url(#paint3_linear_491_812)"/>
<path d="M169.759 25.6393H40.3813C37.3138 25.6393 34.8271 27.8711 34.8271 30.6242V100.085C34.8271 102.839 37.3138 105.07 40.3813 105.07H169.759C172.827 105.07 175.313 102.839 175.313 100.085V30.6242C175.313 27.8711 172.827 25.6393 169.759 25.6393Z" fill="#5167F6"/>
<path d="M40.7794 56.0133C41.3487 56.2677 41.8338 56.6517 42.1861 57.127C42.4777 57.6855 42.6208 58.2971 42.6042 58.9137L42.8033 62.7551C42.8933 63.3871 42.809 64.0293 42.5577 64.6252C42.4238 64.9192 42.1789 65.1615 41.8658 65.3096C41.5528 65.4577 41.1916 65.5022 40.8457 65.4352C41.0998 66.1829 41.182 66.9691 41.0873 67.7461C40.9926 68.5232 40.723 69.2748 40.2949 69.9556C40.0804 70.2423 39.9128 70.5552 39.7973 70.8846C39.7421 71.2821 39.7646 71.6852 39.8636 72.0758C40.0141 73.0393 39.9339 74.0206 39.6284 74.9542C39.3228 75.8877 38.799 76.752 38.0919 77.4895C37.8757 77.7311 37.6099 77.9333 37.3088 78.0851C36.9141 78.2361 36.4904 78.3171 36.0613 78.3233L34.1104 78.4722C34.0139 78.5006 33.9115 78.5088 33.811 78.4961C33.7105 78.4834 33.6145 78.4501 33.5306 78.399C33.4466 78.3478 33.3768 78.2799 33.3267 78.2007C33.2765 78.1216 33.2472 78.0331 33.2411 77.9421C31.7598 73.7249 31.0867 69.3126 31.2504 64.8932C31.3271 62.6663 31.6247 60.45 32.1396 58.2705C32.4514 56.996 33.0619 55.0544 34.5815 54.5363C36.5457 53.9169 39.0806 55.1378 40.7794 56.0133Z" fill="#EEA886"/>
<path d="M168.93 56.0133C168.36 56.2677 167.875 56.6517 167.523 57.127C167.231 57.6855 167.088 58.2971 167.105 58.9137L166.906 62.7551C166.816 63.3871 166.9 64.0293 167.151 64.6252C167.285 64.9192 167.53 65.1615 167.843 65.3096C168.156 65.4577 168.517 65.5022 168.863 65.4352C168.61 66.1827 168.527 66.9684 168.621 67.7453C168.714 68.5221 168.982 69.2739 169.407 69.9556C169.627 70.2407 169.797 70.5539 169.912 70.8846C169.968 71.2824 169.943 71.686 169.839 72.0758C169.691 73.0397 169.774 74.0208 170.08 74.9541C170.387 75.8873 170.911 76.7515 171.617 77.4895C171.833 77.7311 172.099 77.9333 172.4 78.0851C172.795 78.2362 173.218 78.3171 173.648 78.3233L175.618 78.496C175.715 78.5244 175.817 78.5326 175.918 78.5199C176.018 78.5072 176.114 78.474 176.198 78.4228C176.282 78.3716 176.352 78.3038 176.402 78.2246C176.452 78.1454 176.482 78.0569 176.488 77.966C177.969 73.7487 178.642 69.3364 178.478 64.917C178.403 62.6898 178.103 60.4732 177.583 58.2943C177.277 57.0198 176.919 55.4237 175.413 54.9055C173.429 54.2564 170.628 55.1378 168.93 56.0133Z" fill="#EEA886"/>
<path d="M68.0412 51.3636V63H65.9162L60.8537 55.6761H60.7685V63H58.3082V51.3636H60.4673L65.4901 58.6818H65.5923V51.3636H68.0412ZM73.9716 63.1705C73.089 63.1705 72.3258 62.983 71.6818 62.608C71.0417 62.2292 70.5473 61.7027 70.1989 61.0284C69.8504 60.3504 69.6761 59.5644 69.6761 58.6705C69.6761 57.7689 69.8504 56.9811 70.1989 56.3068C70.5473 55.6288 71.0417 55.1023 71.6818 54.7273C72.3258 54.3485 73.089 54.1591 73.9716 54.1591C74.8542 54.1591 75.6155 54.3485 76.2557 54.7273C76.8996 55.1023 77.3958 55.6288 77.7443 56.3068C78.0928 56.9811 78.267 57.7689 78.267 58.6705C78.267 59.5644 78.0928 60.3504 77.7443 61.0284C77.3958 61.7027 76.8996 62.2292 76.2557 62.608C75.6155 62.983 74.8542 63.1705 73.9716 63.1705ZM73.983 61.2955C74.3845 61.2955 74.7197 61.1818 74.9886 60.9545C75.2576 60.7235 75.4602 60.4091 75.5966 60.0114C75.7367 59.6136 75.8068 59.161 75.8068 58.6534C75.8068 58.1458 75.7367 57.6932 75.5966 57.2955C75.4602 56.8977 75.2576 56.5833 74.9886 56.3523C74.7197 56.1212 74.3845 56.0057 73.983 56.0057C73.5777 56.0057 73.2367 56.1212 72.9602 56.3523C72.6875 56.5833 72.4811 56.8977 72.3409 57.2955C72.2045 57.6932 72.1364 58.1458 72.1364 58.6534C72.1364 59.161 72.2045 59.6136 72.3409 60.0114C72.4811 60.4091 72.6875 60.7235 72.9602 60.9545C73.2367 61.1818 73.5777 61.2955 73.983 61.2955ZM82.2614 57.9545V63H79.8409V54.2727H82.1477V55.8125H82.25C82.4432 55.3049 82.767 54.9034 83.2216 54.608C83.6761 54.3087 84.2273 54.1591 84.875 54.1591C85.4811 54.1591 86.0095 54.2917 86.4602 54.5568C86.911 54.822 87.2614 55.2008 87.5114 55.6932C87.7614 56.1818 87.8864 56.7652 87.8864 57.4432V63H85.4659V57.875C85.4697 57.3409 85.3333 56.9242 85.0568 56.625C84.7803 56.322 84.3996 56.1705 83.9148 56.1705C83.589 56.1705 83.3011 56.2405 83.0511 56.3807C82.8049 56.5208 82.6117 56.7254 82.4716 56.9943C82.3352 57.2595 82.2652 57.5795 82.2614 57.9545ZM93.7713 63.1705C92.8736 63.1705 92.1009 62.9886 91.4531 62.625C90.8092 62.2576 90.313 61.7386 89.9645 61.0682C89.616 60.3939 89.4418 59.5966 89.4418 58.6761C89.4418 57.7784 89.616 56.9905 89.9645 56.3125C90.313 55.6345 90.8035 55.1061 91.4361 54.7273C92.0724 54.3485 92.8187 54.1591 93.6747 54.1591C94.2505 54.1591 94.7865 54.2519 95.2827 54.4375C95.7827 54.6193 96.2183 54.8939 96.5895 55.2614C96.9645 55.6288 97.2562 56.0909 97.4645 56.6477C97.6728 57.2008 97.777 57.8485 97.777 58.5909V59.2557H90.4077V57.7557H95.4986C95.4986 57.4072 95.4228 57.0985 95.2713 56.8295C95.1198 56.5606 94.9096 56.3504 94.6406 56.1989C94.3755 56.0436 94.0668 55.9659 93.7145 55.9659C93.3471 55.9659 93.0213 56.0511 92.7372 56.2216C92.4569 56.3883 92.2372 56.6136 92.0781 56.8977C91.919 57.178 91.8376 57.4905 91.8338 57.8352V59.2614C91.8338 59.6932 91.9134 60.0663 92.0724 60.3807C92.2353 60.6951 92.4645 60.9375 92.7599 61.108C93.0554 61.2784 93.4058 61.3636 93.8111 61.3636C94.08 61.3636 94.3262 61.3258 94.5497 61.25C94.7732 61.1742 94.9645 61.0606 95.1236 60.9091C95.2827 60.7576 95.4039 60.572 95.4872 60.3523L97.7259 60.5C97.6122 61.0379 97.3793 61.5076 97.027 61.9091C96.6785 62.3068 96.2277 62.6174 95.6747 62.8409C95.1255 63.0606 94.491 63.1705 93.7713 63.1705ZM103.105 63V51.3636H110.81V53.392H105.565V56.1648H110.298V58.1932H105.565V63H103.105ZM115.722 63.1705C114.839 63.1705 114.076 62.983 113.432 62.608C112.792 62.2292 112.297 61.7027 111.949 61.0284C111.6 60.3504 111.426 59.5644 111.426 58.6705C111.426 57.7689 111.6 56.9811 111.949 56.3068C112.297 55.6288 112.792 55.1023 113.432 54.7273C114.076 54.3485 114.839 54.1591 115.722 54.1591C116.604 54.1591 117.366 54.3485 118.006 54.7273C118.65 55.1023 119.146 55.6288 119.494 56.3068C119.843 56.9811 120.017 57.7689 120.017 58.6705C120.017 59.5644 119.843 60.3504 119.494 61.0284C119.146 61.7027 118.65 62.2292 118.006 62.608C117.366 62.983 116.604 63.1705 115.722 63.1705ZM115.733 61.2955C116.134 61.2955 116.47 61.1818 116.739 60.9545C117.008 60.7235 117.21 60.4091 117.347 60.0114C117.487 59.6136 117.557 59.161 117.557 58.6534C117.557 58.1458 117.487 57.6932 117.347 57.2955C117.21 56.8977 117.008 56.5833 116.739 56.3523C116.47 56.1212 116.134 56.0057 115.733 56.0057C115.328 56.0057 114.987 56.1212 114.71 56.3523C114.438 56.5833 114.231 56.8977 114.091 57.2955C113.955 57.6932 113.886 58.1458 113.886 58.6534C113.886 59.161 113.955 59.6136 114.091 60.0114C114.231 60.4091 114.438 60.7235 114.71 60.9545C114.987 61.1818 115.328 61.2955 115.733 61.2955ZM127.188 59.2841V54.2727H129.608V63H127.284V61.4148H127.193C126.996 61.9261 126.669 62.3371 126.21 62.6477C125.756 62.9583 125.201 63.1136 124.545 63.1136C123.962 63.1136 123.449 62.9811 123.006 62.7159C122.563 62.4508 122.216 62.0739 121.966 61.5852C121.72 61.0966 121.595 60.5114 121.591 59.8295V54.2727H124.011V59.3977C124.015 59.9129 124.153 60.3201 124.426 60.6193C124.699 60.9186 125.064 61.0682 125.523 61.0682C125.814 61.0682 126.087 61.0019 126.341 60.8693C126.595 60.733 126.799 60.5322 126.955 60.267C127.114 60.0019 127.191 59.6742 127.188 59.2841ZM133.964 57.9545V63H131.544V54.2727H133.851V55.8125H133.953C134.146 55.3049 134.47 54.9034 134.925 54.608C135.379 54.3087 135.93 54.1591 136.578 54.1591C137.184 54.1591 137.713 54.2917 138.163 54.5568C138.614 54.822 138.964 55.2008 139.214 55.6932C139.464 56.1818 139.589 56.7652 139.589 57.4432V63H137.169V57.875C137.173 57.3409 137.036 56.9242 136.76 56.625C136.483 56.322 136.103 56.1705 135.618 56.1705C135.292 56.1705 135.004 56.2405 134.754 56.3807C134.508 56.5208 134.315 56.7254 134.175 56.9943C134.038 57.2595 133.968 57.5795 133.964 57.9545ZM144.713 63.142C144.05 63.142 143.45 62.9716 142.912 62.6307C142.378 62.286 141.954 61.7803 141.639 61.1136C141.329 60.4432 141.173 59.6212 141.173 58.6477C141.173 57.6477 141.334 56.8163 141.656 56.1534C141.978 55.4867 142.406 54.9886 142.94 54.6591C143.478 54.3258 144.067 54.1591 144.707 54.1591C145.196 54.1591 145.603 54.2424 145.929 54.4091C146.259 54.572 146.524 54.7765 146.724 55.0227C146.929 55.2652 147.084 55.5038 147.19 55.7386H147.264V51.3636H149.679V63H147.293V61.6023H147.19C147.077 61.8447 146.916 62.0852 146.707 62.3239C146.503 62.5587 146.236 62.7538 145.906 62.9091C145.58 63.0644 145.183 63.142 144.713 63.142ZM145.48 61.2159C145.87 61.2159 146.2 61.1098 146.469 60.8977C146.741 60.6818 146.95 60.3807 147.094 59.9943C147.241 59.608 147.315 59.1553 147.315 58.6364C147.315 58.1174 147.243 57.6667 147.099 57.2841C146.955 56.9015 146.747 56.6061 146.474 56.3977C146.202 56.1894 145.87 56.0852 145.48 56.0852C145.082 56.0852 144.747 56.1932 144.474 56.4091C144.202 56.625 143.995 56.9242 143.855 57.3068C143.715 57.6894 143.645 58.1326 143.645 58.6364C143.645 59.1439 143.715 59.5928 143.855 59.983C143.999 60.3693 144.205 60.6723 144.474 60.892C144.747 61.108 145.082 61.2159 145.48 61.2159Z" fill="white"/>
<path d="M72.3687 74H71.488C71.4359 73.7467 71.3448 73.5241 71.2146 73.3324C71.0867 73.1406 70.9305 72.9796 70.7458 72.8494C70.5635 72.7169 70.3611 72.6174 70.1386 72.5511C69.916 72.4848 69.684 72.4517 69.4426 72.4517C69.0022 72.4517 68.6033 72.563 68.2458 72.7855C67.8907 73.008 67.6078 73.3359 67.3971 73.7692C67.1888 74.2024 67.0846 74.7339 67.0846 75.3636C67.0846 75.9934 67.1888 76.5249 67.3971 76.9581C67.6078 77.3913 67.8907 77.7192 68.2458 77.9418C68.6033 78.1643 69.0022 78.2756 69.4426 78.2756C69.684 78.2756 69.916 78.2424 70.1386 78.1761C70.3611 78.1098 70.5635 78.0116 70.7458 77.8814C70.9305 77.7488 71.0867 77.5866 71.2146 77.3949C71.3448 77.2008 71.4359 76.9782 71.488 76.7273H72.3687C72.3024 77.099 72.1817 77.4316 72.0065 77.7251C71.8313 78.0187 71.6135 78.2685 71.3531 78.4744C71.0927 78.678 70.8003 78.8331 70.4759 78.9396C70.154 79.0462 69.8095 79.0994 69.4426 79.0994C68.8223 79.0994 68.2707 78.9479 67.7877 78.6449C67.3048 78.3419 66.9248 77.911 66.6478 77.3523C66.3708 76.7936 66.2323 76.1307 66.2323 75.3636C66.2323 74.5966 66.3708 73.9337 66.6478 73.375C66.9248 72.8163 67.3048 72.3854 67.7877 72.0824C68.2707 71.7794 68.8223 71.6278 69.4426 71.6278C69.8095 71.6278 70.154 71.6811 70.4759 71.7876C70.8003 71.8942 71.0927 72.0504 71.3531 72.2564C71.6135 72.46 71.8313 72.7086 72.0065 73.0021C72.1817 73.2933 72.3024 73.6259 72.3687 74ZM73.6782 79V73.5455H74.4878V74.3693H74.5447C74.6441 74.0994 74.824 73.8804 75.0844 73.7124C75.3448 73.5443 75.6384 73.4602 75.9651 73.4602C76.0267 73.4602 76.1036 73.4614 76.1959 73.4638C76.2883 73.4661 76.3581 73.4697 76.4055 73.4744V74.3267C76.377 74.3196 76.3119 74.3089 76.2101 74.2947C76.1107 74.2782 76.0054 74.2699 75.8941 74.2699C75.6289 74.2699 75.3922 74.3255 75.1839 74.4368C74.9779 74.5457 74.8145 74.6972 74.6938 74.8913C74.5754 75.0831 74.5162 75.3021 74.5162 75.5483V79H73.6782ZM79.5198 79.1136C78.9942 79.1136 78.5409 78.9976 78.1597 78.7656C77.7809 78.5312 77.4885 78.2045 77.2826 77.7855C77.079 77.3641 76.9772 76.8741 76.9772 76.3153C76.9772 75.7566 77.079 75.2642 77.2826 74.8381C77.4885 74.4096 77.775 74.0758 78.142 73.8366C78.5113 73.5952 78.9421 73.4744 79.4346 73.4744C79.7187 73.4744 79.9992 73.5218 80.2762 73.6165C80.5532 73.7112 80.8053 73.8651 81.0326 74.0781C81.2599 74.2888 81.441 74.5682 81.5759 74.9162C81.7108 75.2642 81.7783 75.6927 81.7783 76.2017V76.5568H77.5738V75.8324H80.926C80.926 75.5246 80.8645 75.25 80.7414 75.0085C80.6206 74.767 80.4478 74.5765 80.2229 74.4368C80.0004 74.2971 79.7376 74.2273 79.4346 74.2273C79.1008 74.2273 78.8119 74.3101 78.5681 74.4759C78.3266 74.6392 78.1408 74.8523 78.0106 75.1151C77.8804 75.3778 77.8153 75.6596 77.8153 75.9602V76.4432C77.8153 76.8551 77.8863 77.2043 78.0283 77.4908C78.1727 77.7749 78.3728 77.9915 78.6285 78.1406C78.8841 78.2874 79.1813 78.3608 79.5198 78.3608C79.74 78.3608 79.9388 78.33 80.1164 78.2685C80.2963 78.2045 80.4514 78.1098 80.5816 77.9844C80.7118 77.8565 80.8124 77.6979 80.8834 77.5085L81.6931 77.7358C81.6079 78.0104 81.4646 78.2519 81.2634 78.4602C81.0622 78.6662 80.8136 78.8272 80.5177 78.9432C80.2217 79.0568 79.8891 79.1136 79.5198 79.1136ZM84.6583 79.1278C84.3126 79.1278 83.999 79.0627 83.7172 78.9325C83.4355 78.8 83.2118 78.6094 83.0461 78.3608C82.8804 78.1098 82.7975 77.8068 82.7975 77.4517C82.7975 77.1392 82.859 76.8859 82.9822 76.6918C83.1053 76.4953 83.2698 76.3414 83.4758 76.2301C83.6817 76.1188 83.909 76.036 84.1576 75.9815C84.4085 75.9247 84.6607 75.8797 84.914 75.8466C85.2454 75.804 85.5141 75.772 85.7201 75.7507C85.9284 75.727 86.0799 75.688 86.1746 75.6335C86.2717 75.5791 86.3202 75.4844 86.3202 75.3494V75.321C86.3202 74.9706 86.2243 74.6984 86.0326 74.5043C85.8432 74.3101 85.5555 74.2131 85.1697 74.2131C84.7696 74.2131 84.4559 74.3007 84.2286 74.4759C84.0013 74.651 83.8415 74.8381 83.7492 75.0369L82.9537 74.7528C83.0958 74.4214 83.2852 74.1634 83.5219 73.9787C83.761 73.7917 84.0215 73.6615 84.3032 73.5881C84.5873 73.5123 84.8666 73.4744 85.1412 73.4744C85.3164 73.4744 85.5177 73.4957 85.7449 73.5384C85.9746 73.5786 86.1959 73.6626 86.409 73.7905C86.6244 73.9183 86.8032 74.1113 86.9452 74.3693C87.0873 74.6274 87.1583 74.973 87.1583 75.4062V79H86.3202V78.2614H86.2776C86.2208 78.3797 86.1261 78.5064 85.9935 78.6413C85.8609 78.7763 85.6846 78.8911 85.4644 78.9858C85.2442 79.0805 84.9755 79.1278 84.6583 79.1278ZM84.7861 78.375C85.1176 78.375 85.3969 78.3099 85.6242 78.1797C85.8538 78.0495 86.0267 77.8814 86.1427 77.6754C86.261 77.4695 86.3202 77.2528 86.3202 77.0256V76.2585C86.2847 76.3011 86.2066 76.3402 86.0858 76.3757C85.9675 76.4089 85.8302 76.4384 85.6739 76.4645C85.52 76.4882 85.3697 76.5095 85.2229 76.5284C85.0785 76.545 84.9613 76.5592 84.8714 76.571C84.6536 76.5994 84.45 76.6456 84.2606 76.7095C84.0735 76.7711 83.922 76.8646 83.806 76.9901C83.6924 77.1132 83.6356 77.2812 83.6356 77.4943C83.6356 77.7855 83.7433 78.0057 83.9587 78.1548C84.1765 78.3016 84.4523 78.375 84.7861 78.375ZM91.0601 73.5455V74.2557H88.2334V73.5455H91.0601ZM89.0573 72.2386H89.8953V77.4375C89.8953 77.6742 89.9297 77.8518 89.9983 77.9702C90.0693 78.0862 90.1593 78.1643 90.2682 78.2045C90.3795 78.2424 90.4967 78.2614 90.6198 78.2614C90.7121 78.2614 90.7878 78.2566 90.847 78.2472C90.9062 78.2353 90.9536 78.2259 90.9891 78.2188L91.1595 78.9716C91.1027 78.9929 91.0234 79.0142 90.9216 79.0355C90.8198 79.0592 90.6908 79.071 90.5345 79.071C90.2978 79.071 90.0658 79.0201 89.8385 78.9183C89.6136 78.8165 89.4266 78.6615 89.2774 78.4531C89.1307 78.2448 89.0573 77.982 89.0573 77.6648V72.2386ZM94.5491 79.1136C94.0235 79.1136 93.5702 78.9976 93.189 78.7656C92.8102 78.5312 92.5178 78.2045 92.3119 77.7855C92.1083 77.3641 92.0065 76.8741 92.0065 76.3153C92.0065 75.7566 92.1083 75.2642 92.3119 74.8381C92.5178 74.4096 92.8043 74.0758 93.1713 73.8366C93.5406 73.5952 93.9714 73.4744 94.4639 73.4744C94.748 73.4744 95.0285 73.5218 95.3055 73.6165C95.5825 73.7112 95.8346 73.8651 96.0619 74.0781C96.2892 74.2888 96.4703 74.5682 96.6052 74.9162C96.7401 75.2642 96.8076 75.6927 96.8076 76.2017V76.5568H92.6031V75.8324H95.9553C95.9553 75.5246 95.8938 75.25 95.7707 75.0085C95.6499 74.767 95.4771 74.5765 95.2522 74.4368C95.0297 74.2971 94.7669 74.2273 94.4639 74.2273C94.1301 74.2273 93.8412 74.3101 93.5974 74.4759C93.3559 74.6392 93.1701 74.8523 93.0399 75.1151C92.9097 75.3778 92.8445 75.6596 92.8445 75.9602V76.4432C92.8445 76.8551 92.9156 77.2043 93.0576 77.4908C93.202 77.7749 93.4021 77.9915 93.6578 78.1406C93.9134 78.2874 94.2106 78.3608 94.5491 78.3608C94.7693 78.3608 94.9681 78.33 95.1457 78.2685C95.3256 78.2045 95.4807 78.1098 95.6109 77.9844C95.7411 77.8565 95.8417 77.6979 95.9127 77.5085L96.7224 77.7358C96.6372 78.0104 96.4939 78.2519 96.2927 78.4602C96.0915 78.6662 95.8429 78.8272 95.547 78.9432C95.251 79.0568 94.9184 79.1136 94.5491 79.1136ZM101.307 79H100.384L103.054 71.7273H103.963L106.634 79H105.71L103.537 72.8778H103.48L101.307 79ZM101.648 76.1591H105.369V76.9403H101.648V76.1591ZM114.556 73.5455C114.514 73.1856 114.341 72.9062 114.038 72.7074C113.735 72.5085 113.363 72.4091 112.923 72.4091C112.601 72.4091 112.319 72.4612 112.078 72.5653C111.838 72.6695 111.651 72.8127 111.516 72.995C111.384 73.1773 111.318 73.3845 111.318 73.6165C111.318 73.8106 111.364 73.9775 111.456 74.1172C111.551 74.2545 111.671 74.3693 111.818 74.4616C111.965 74.5516 112.119 74.6262 112.28 74.6854C112.441 74.7422 112.589 74.7884 112.724 74.8239L113.462 75.0227C113.652 75.0724 113.863 75.1411 114.095 75.2287C114.329 75.3163 114.553 75.4358 114.766 75.5874C114.981 75.7365 115.159 75.9283 115.298 76.1626C115.438 76.397 115.508 76.6847 115.508 77.0256C115.508 77.4186 115.405 77.7737 115.199 78.0909C114.995 78.4081 114.697 78.6603 114.304 78.8473C113.913 79.0343 113.439 79.1278 112.88 79.1278C112.359 79.1278 111.908 79.0438 111.527 78.8757C111.148 78.7076 110.85 78.4732 110.632 78.1726C110.417 77.8719 110.295 77.5227 110.266 77.125H111.176C111.199 77.3996 111.292 77.6269 111.453 77.8068C111.616 77.9844 111.822 78.117 112.07 78.2045C112.321 78.2898 112.591 78.3324 112.88 78.3324C113.216 78.3324 113.518 78.2779 113.786 78.169C114.053 78.0578 114.265 77.9039 114.421 77.7074C114.578 77.5085 114.656 77.2765 114.656 77.0114C114.656 76.7699 114.588 76.5734 114.453 76.4219C114.318 76.2704 114.141 76.1473 113.921 76.0526C113.7 75.9579 113.462 75.875 113.207 75.804L112.312 75.5483C111.744 75.3849 111.294 75.1518 110.962 74.8487C110.631 74.5457 110.465 74.1491 110.465 73.6591C110.465 73.2519 110.575 72.8968 110.796 72.5938C111.018 72.2884 111.316 72.0516 111.69 71.8835C112.067 71.7131 112.487 71.6278 112.951 71.6278C113.42 71.6278 113.836 71.7119 114.201 71.88C114.566 72.0457 114.854 72.273 115.068 72.5618C115.283 72.8506 115.397 73.1785 115.408 73.5455H114.556ZM120.28 76.7699V73.5455H121.118V79H120.28V78.0767H120.223C120.095 78.3537 119.896 78.5893 119.626 78.7834C119.356 78.9751 119.016 79.071 118.604 79.071C118.263 79.071 117.96 78.9964 117.695 78.8473C117.429 78.6958 117.221 78.4685 117.07 78.1655C116.918 77.8601 116.842 77.4754 116.842 77.0114V73.5455H117.68V76.9545C117.68 77.3523 117.792 77.6695 118.014 77.9062C118.239 78.143 118.525 78.2614 118.873 78.2614C119.082 78.2614 119.294 78.2081 119.509 78.1016C119.727 77.995 119.909 77.8317 120.056 77.6115C120.205 77.3913 120.28 77.1108 120.28 76.7699ZM122.653 79V73.5455H123.462V74.3693H123.519C123.619 74.0994 123.799 73.8804 124.059 73.7124C124.319 73.5443 124.613 73.4602 124.94 73.4602C125.001 73.4602 125.078 73.4614 125.171 73.4638C125.263 73.4661 125.333 73.4697 125.38 73.4744V74.3267C125.352 74.3196 125.287 74.3089 125.185 74.2947C125.085 74.2782 124.98 74.2699 124.869 74.2699C124.604 74.2699 124.367 74.3255 124.158 74.4368C123.953 74.5457 123.789 74.6972 123.668 74.8913C123.55 75.0831 123.491 75.3021 123.491 75.5483V79H122.653ZM131 73.5455L128.983 79H128.13L126.113 73.5455H127.022L128.528 77.892H128.585L130.091 73.5455H131ZM134.198 79.1136C133.672 79.1136 133.219 78.9976 132.837 78.7656C132.459 78.5312 132.166 78.2045 131.96 77.7855C131.757 77.3641 131.655 76.8741 131.655 76.3153C131.655 75.7566 131.757 75.2642 131.96 74.8381C132.166 74.4096 132.453 74.0758 132.82 73.8366C133.189 73.5952 133.62 73.4744 134.112 73.4744C134.396 73.4744 134.677 73.5218 134.954 73.6165C135.231 73.7112 135.483 73.8651 135.71 74.0781C135.938 74.2888 136.119 74.5682 136.254 74.9162C136.389 75.2642 136.456 75.6927 136.456 76.2017V76.5568H132.252V75.8324H135.604C135.604 75.5246 135.542 75.25 135.419 75.0085C135.298 74.767 135.126 74.5765 134.901 74.4368C134.678 74.2971 134.415 74.2273 134.112 74.2273C133.778 74.2273 133.49 74.3101 133.246 74.4759C133.004 74.6392 132.819 74.8523 132.688 75.1151C132.558 75.3778 132.493 75.6596 132.493 75.9602V76.4432C132.493 76.8551 132.564 77.2043 132.706 77.4908C132.85 77.7749 133.051 77.9915 133.306 78.1406C133.562 78.2874 133.859 78.3608 134.198 78.3608C134.418 78.3608 134.617 78.33 134.794 78.2685C134.974 78.2045 135.129 78.1098 135.259 77.9844C135.39 77.8565 135.49 77.6979 135.561 77.5085L136.371 77.7358C136.286 78.0104 136.142 78.2519 135.941 78.4602C135.74 78.6662 135.491 78.8272 135.195 78.9432C134.899 79.0568 134.567 79.1136 134.198 79.1136ZM138.105 81.0455C137.963 81.0455 137.836 81.0336 137.725 81.0099C137.613 80.9886 137.536 80.9673 137.494 80.946L137.707 80.2074C137.911 80.2595 138.09 80.2784 138.247 80.2642C138.403 80.25 138.541 80.1802 138.662 80.0547C138.785 79.9316 138.898 79.7315 139 79.4545L139.156 79.0284L137.139 73.5455H138.048L139.554 77.892H139.61L141.116 73.5455H142.025L139.71 79.7955C139.606 80.0772 139.477 80.3104 139.323 80.495C139.169 80.6821 138.99 80.8205 138.786 80.9105C138.585 81.0005 138.358 81.0455 138.105 81.0455Z" fill="white"/>
</g>
<defs>
<linearGradient id="paint0_linear_491_812" x1="103.892" y1="154.252" x2="105.448" y2="203.423" gradientUnits="userSpaceOnUse">
<stop stop-opacity="0"/>
<stop offset="0.95"/>
</linearGradient>
<linearGradient id="paint1_linear_491_812" x1="44.8204" y1="137.952" x2="43.2648" y2="69.4051" gradientUnits="userSpaceOnUse">
<stop stop-opacity="0"/>
<stop offset="0.99"/>
</linearGradient>
<linearGradient id="paint2_linear_491_812" x1="169.772" y1="128.506" x2="168.735" y2="85.5058" gradientUnits="userSpaceOnUse">
<stop stop-opacity="0"/>
<stop offset="0.95"/>
</linearGradient>
<linearGradient id="paint3_linear_491_812" x1="102.705" y1="142.013" x2="105.126" y2="48.6845" gradientUnits="userSpaceOnUse">
<stop stop-opacity="0"/>
<stop offset="0.99"/>
</linearGradient>
<clipPath id="clip0_491_812">
<rect width="209" height="182" fill="white"/>
</clipPath>
</defs>
</svg>
