<svg width="16" height="17" viewBox="0 0 16 17" fill="none" xmlns="http://www.w3.org/2000/svg">
<path d="M13.2593 0.538996L13.4056 0.379138C13.5158 0.258886 13.6466 0.163512 13.7905 0.0984592C13.9344 0.0334067 14.0887 -4.97573e-05 14.2444 5.55422e-08C14.4002 4.98683e-05 14.5544 0.033605 14.6983 0.0987496C14.8421 0.163894 14.9729 0.259352 15.083 0.379674C15.1931 0.499996 15.2804 0.642824 15.34 0.800005C15.3995 0.957186 15.4302 1.12564 15.4301 1.29575C15.4301 1.46586 15.3993 1.6343 15.3397 1.79144C15.28 1.94858 15.1926 2.09136 15.0825 2.21161L14.9361 2.37039C15.1865 2.67709 15.32 3.07677 15.3092 3.4875C15.2984 3.89823 15.1442 4.28891 14.8782 4.57944L4.76804 15.6225C4.70483 15.6912 4.62571 15.7398 4.53915 15.7631L0.609845 16.836C0.527616 16.8583 0.441489 16.8571 0.359835 16.8323C0.278181 16.8076 0.203778 16.7602 0.143859 16.6947C0.0839388 16.6293 0.0405408 16.548 0.017883 16.4588C-0.00477477 16.3697 -0.00592154 16.2756 0.0145542 16.1858L0.996882 11.8943C1.01837 11.8001 1.06285 11.7141 1.12557 11.6454L10.5972 1.30074C10.5024 1.22792 10.3872 1.19401 10.2718 1.20501C10.1564 1.216 10.0483 1.27119 9.96651 1.36082L6.73269 4.89379C6.68703 4.94367 6.63281 4.98323 6.57315 5.01022C6.51348 5.03722 6.44953 5.05111 6.38495 5.05111C6.32037 5.05111 6.25642 5.03722 6.19675 5.01022C6.13708 4.98323 6.08287 4.94367 6.0372 4.89379C5.99154 4.84392 5.95531 4.78471 5.9306 4.71954C5.90588 4.65437 5.89316 4.58453 5.89316 4.514C5.89316 4.44346 5.90588 4.37362 5.9306 4.30845C5.95531 4.24328 5.99154 4.18407 6.0372 4.1342L9.27299 0.602295C9.53918 0.311563 9.89715 0.143128 10.2735 0.131556C10.6498 0.119985 11.0158 0.266154 11.2966 0.540069C11.5665 0.276612 11.9158 0.130887 12.2777 0.130689C12.6397 0.130492 12.9891 0.275835 13.2593 0.538996Z" fill="black"/>
</svg>
