<svg width="256" height="139" viewBox="0 0 256 139" fill="none" xmlns="http://www.w3.org/2000/svg">
<mask id="mask0_903_2074" style="mask-type:luminance" maskUnits="userSpaceOnUse" x="0" y="0" width="256" height="139">
<path d="M252.254 0H3.74634C1.67729 0 0 1.51786 0 3.39024V135.61C0 137.482 1.67729 139 3.74634 139H252.254C254.323 139 256 137.482 256 135.61V3.39024C256 1.51786 254.323 0 252.254 0Z" fill="white"/>
</mask>
<g mask="url(#mask0_903_2074)">
<path d="M252.254 0H3.74634C1.67729 0 0 1.49602 0 3.34146V133.659C0 135.504 1.67729 137 3.74634 137H252.254C254.323 137 256 135.504 256 133.659V3.34146C256 1.49602 254.323 0 252.254 0Z" fill="#5167F6"/>
<rect x="45" y="12" width="167" height="13" rx="4" fill="white"/>
<rect x="52" y="15" width="29" height="7" rx="2" fill="#5167F6"/>
<mask id="mask1_903_2074" style="mask-type:luminance" maskUnits="userSpaceOnUse" x="45" y="25" width="167" height="117">
<path d="M208.741 25.561H48.2585C46.4589 25.561 45 26.5729 45 27.8212V139.134C45 140.382 46.4589 141.394 48.2585 141.394H208.741C210.541 141.394 212 140.382 212 139.134V27.8212C212 26.5729 210.541 25.561 208.741 25.561Z" fill="white"/>
</mask>
<g mask="url(#mask1_903_2074)">
<path d="M208.741 29H48.2585C46.4589 29 45 30.0119 45 31.2602V142.573C45 143.821 46.4589 144.833 48.2585 144.833H208.741C210.541 144.833 212 143.821 212 142.573V31.2602C212 30.0119 210.541 29 208.741 29Z" fill="white"/>
<path d="M200.245 54.439H56.0549C54.3677 54.439 53 55.3876 53 56.5579V111.932C53 113.102 54.3677 114.051 56.0549 114.051H200.245C201.932 114.051 203.3 113.102 203.3 111.932V56.5579C203.3 55.3876 201.932 54.439 200.245 54.439Z" fill="white" stroke="#9F9F9F" stroke-width="0.5"/>
<path d="M123.66 65.2251H114.408C113.63 65.2251 113 65.781 113 66.4667V66.4667C113 67.1524 113.63 67.7083 114.408 67.7083H123.66C124.438 67.7083 125.068 67.1524 125.068 66.4667V66.4667C125.068 65.781 124.438 65.2251 123.66 65.2251Z" fill="#FF9F40"/>
<path d="M123.66 59.9482H114.408C113.63 59.9482 113 60.5041 113 61.1899V61.1899C113 61.8756 113.63 62.4315 114.408 62.4315H123.66C124.438 62.4315 125.068 61.8756 125.068 61.1899C125.068 60.5041 124.438 59.9482 123.66 59.9482Z" fill="#36A2EB"/>
<path d="M142.236 59.9482H132.984C132.206 59.9482 131.576 60.5041 131.576 61.1899V61.1899C131.576 61.8756 132.206 62.4315 132.984 62.4315H142.236C143.014 62.4315 143.644 61.8756 143.644 61.1899C143.644 60.5041 143.014 59.9482 142.236 59.9482Z" fill="#FF6384"/>
<path d="M142.236 65.2251H132.984C132.206 65.2251 131.576 65.781 131.576 66.4667V66.4667C131.576 67.1524 132.206 67.7083 132.984 67.7083H142.236C143.014 67.7083 143.644 67.1524 143.644 66.4667V66.4667C143.644 65.781 143.014 65.2251 142.236 65.2251Z" fill="#FFCD56"/>
<path d="M128.448 71.7432C134.48 71.7432 140.264 73.5908 144.53 76.88C148.794 80.1691 151.191 84.6295 151.191 89.2809C151.191 93.9323 148.794 98.3933 144.53 101.682C140.264 104.971 134.48 106.819 128.448 106.819V89.2809V71.7432Z" fill="#36A2EB"/>
<path d="M109.912 79.7948C111.982 77.3832 114.758 75.3977 118 74.0116C121.241 72.6256 124.849 71.8803 128.51 71.8413L128.448 89.5915L109.912 79.7948Z" fill="#FACE66"/>
<path d="M109.132 98.4106C106.995 95.5289 105.912 92.2427 106.006 88.9253C106.099 85.6079 107.364 82.3917 109.66 79.6411L128.448 89.5915L109.132 98.4106Z" fill="#FF9F40"/>
<path d="M128.448 106.819C124.554 106.819 120.725 106.055 117.328 104.6C113.931 103.144 111.081 101.047 109.048 98.5082L128.448 89.4365V106.819Z" fill="#FF6384"/>
<path d="M195.394 60.8531L197.704 59.0807C197.743 59.0512 197.764 59.0123 197.763 58.9721C197.762 58.9319 197.739 58.8936 197.699 58.865L197.697 58.8632C197.678 58.8493 197.655 58.8383 197.629 58.831C197.603 58.8236 197.576 58.8199 197.549 58.8203C197.521 58.8207 197.494 58.825 197.469 58.833C197.444 58.841 197.421 58.8526 197.402 58.867L195.227 60.536L192.986 58.9237C192.966 58.9098 192.944 58.8988 192.918 58.8914C192.892 58.8841 192.865 58.8805 192.838 58.8808C192.81 58.8811 192.783 58.8855 192.758 58.8935C192.733 58.9015 192.71 58.9131 192.691 58.9275L192.689 58.9294C192.65 58.9589 192.629 58.9978 192.63 59.038C192.631 59.0782 192.653 59.1165 192.693 59.1451L195.074 60.8572C195.095 60.8722 195.12 60.8841 195.147 60.8921C195.175 60.9001 195.205 60.904 195.234 60.9036C195.265 60.9032 195.294 60.8986 195.322 60.8899C195.348 60.8812 195.374 60.8687 195.394 60.8531Z" fill="#9F9F9F"/>
<path d="M200.245 118.439H56.0549C54.3677 118.439 53 119.388 53 120.558V155.025C53 156.196 54.3677 157.144 56.0549 157.144H200.245C201.932 157.144 203.3 156.196 203.3 155.025V120.558C203.3 119.388 201.932 118.439 200.245 118.439Z" fill="white" stroke="#9F9F9F" stroke-width="0.5"/>
<path d="M194.673 129.034H61.8878C59.1883 129.034 57 130.552 57 132.424V136.379C57 138.252 59.1883 139.769 61.8878 139.769H194.673C197.373 139.769 199.561 138.252 199.561 136.379V132.424C199.561 130.552 197.373 129.034 194.673 129.034Z" fill="#EBEBEB"/>
<path d="M195.681 124.853L197.991 123.081C198.029 123.051 198.05 123.012 198.05 122.972C198.049 122.932 198.026 122.894 197.986 122.865L197.984 122.863C197.965 122.849 197.941 122.838 197.916 122.831C197.891 122.824 197.863 122.82 197.835 122.82C197.808 122.821 197.781 122.825 197.756 122.833C197.73 122.841 197.708 122.853 197.689 122.867L195.514 124.536L193.273 122.924C193.253 122.91 193.23 122.899 193.205 122.892C193.179 122.884 193.152 122.881 193.124 122.881C193.097 122.881 193.07 122.885 193.045 122.894C193.019 122.902 192.996 122.913 192.978 122.928L192.975 122.929C192.937 122.959 192.916 122.998 192.917 123.038C192.917 123.079 192.94 123.116 192.979 123.145L195.361 124.857C195.382 124.873 195.407 124.884 195.435 124.892C195.462 124.9 195.492 124.904 195.522 124.904C195.551 124.903 195.581 124.899 195.608 124.89C195.636 124.881 195.66 124.869 195.681 124.853Z" fill="#9F9F9F"/>
<path d="M212 29H45V44.8211H212V29Z" fill="white"/>
<path d="M55.7148 42.2188H57.1523L57.875 43.1484L58.5859 43.9766L59.9258 45.6563H58.3477L57.4258 44.5234L56.9531 43.8516L55.7148 42.2188ZM60.0469 41C60.0469 41.8724 59.8815 42.6146 59.5508 43.2266C59.2227 43.8385 58.7747 44.306 58.207 44.6289C57.6419 44.9492 57.0065 45.1094 56.3008 45.1094C55.5898 45.1094 54.9518 44.9479 54.3867 44.625C53.8216 44.3021 53.375 43.8346 53.0469 43.2227C52.7188 42.6107 52.5547 41.8698 52.5547 41C52.5547 40.1276 52.7188 39.3854 53.0469 38.7734C53.375 38.1615 53.8216 37.6953 54.3867 37.375C54.9518 37.0521 55.5898 36.8906 56.3008 36.8906C57.0065 36.8906 57.6419 37.0521 58.207 37.375C58.7747 37.6953 59.2227 38.1615 59.5508 38.7734C59.8815 39.3854 60.0469 40.1276 60.0469 41ZM58.332 41C58.332 40.4349 58.2474 39.9583 58.0781 39.5703C57.9115 39.1823 57.6758 38.888 57.3711 38.6875C57.0664 38.487 56.7096 38.3867 56.3008 38.3867C55.8919 38.3867 55.5352 38.487 55.2305 38.6875C54.9258 38.888 54.6888 39.1823 54.5195 39.5703C54.3529 39.9583 54.2695 40.4349 54.2695 41C54.2695 41.5651 54.3529 42.0417 54.5195 42.4297C54.6888 42.8177 54.9258 43.112 55.2305 43.3125C55.5352 43.513 55.8919 43.6133 56.3008 43.6133C56.7096 43.6133 57.0664 43.513 57.3711 43.3125C57.6758 43.112 57.9115 42.8177 58.0781 42.4297C58.2474 42.0417 58.332 41.5651 58.332 41ZM65.1162 42.4453V39H66.7803V45H65.1826V43.9102H65.1201C64.9847 44.2617 64.7594 44.5443 64.4443 44.7578C64.1318 44.9714 63.7503 45.0781 63.2998 45.0781C62.8988 45.0781 62.5459 44.987 62.2412 44.8047C61.9365 44.6224 61.6982 44.3633 61.5264 44.0273C61.3571 43.6914 61.2712 43.2891 61.2686 42.8203V39H62.9326V42.5234C62.9352 42.8776 63.0303 43.1576 63.2178 43.3633C63.4053 43.569 63.6566 43.6719 63.9717 43.6719C64.1722 43.6719 64.3597 43.6263 64.5342 43.5352C64.7087 43.4414 64.8493 43.3034 64.9561 43.1211C65.0654 42.9388 65.1188 42.7135 65.1162 42.4453ZM70.8457 45.1172C70.2285 45.1172 69.6973 44.9922 69.252 44.7422C68.8092 44.4896 68.4681 44.1328 68.2285 43.6719C67.9889 43.2083 67.8691 42.6602 67.8691 42.0273C67.8691 41.4102 67.9889 40.8685 68.2285 40.4023C68.4681 39.9362 68.8053 39.5729 69.2402 39.3125C69.6777 39.0521 70.1908 38.9219 70.7793 38.9219C71.1751 38.9219 71.5436 38.9857 71.8848 39.1133C72.2285 39.2383 72.528 39.4271 72.7832 39.6797C73.041 39.9323 73.2415 40.25 73.3848 40.6328C73.528 41.013 73.5996 41.4583 73.5996 41.9687V42.4258H68.5332V41.3945H72.0332C72.0332 41.1549 71.9811 40.9427 71.877 40.7578C71.7728 40.5729 71.6283 40.4284 71.4434 40.3242C71.2611 40.2174 71.0488 40.1641 70.8066 40.1641C70.554 40.1641 70.3301 40.2227 70.1348 40.3398C69.9421 40.4544 69.791 40.6094 69.6816 40.8047C69.5723 40.9974 69.5163 41.2122 69.5137 41.4492V42.4297C69.5137 42.7266 69.5684 42.9831 69.6777 43.1992C69.7897 43.4154 69.9473 43.582 70.1504 43.6992C70.3535 43.8164 70.5944 43.875 70.873 43.875C71.0579 43.875 71.2272 43.849 71.3809 43.7969C71.5345 43.7448 71.666 43.6667 71.7754 43.5625C71.8848 43.4583 71.9681 43.3307 72.0254 43.1797L73.5645 43.2812C73.4863 43.651 73.3262 43.974 73.084 44.25C72.8444 44.5234 72.5345 44.737 72.1543 44.8906C71.7767 45.0417 71.3405 45.1172 70.8457 45.1172ZM79.6777 40.7109L78.1543 40.8047C78.1283 40.6745 78.0723 40.5573 77.9863 40.4531C77.9004 40.3464 77.7871 40.2617 77.6465 40.1992C77.5085 40.1341 77.3431 40.1016 77.1504 40.1016C76.8926 40.1016 76.6751 40.1562 76.498 40.2656C76.321 40.3724 76.2324 40.5156 76.2324 40.6953C76.2324 40.8385 76.2897 40.9596 76.4043 41.0586C76.5189 41.1576 76.7155 41.237 76.9941 41.2969L78.0801 41.5156C78.6634 41.6354 79.0983 41.8281 79.3848 42.0937C79.6712 42.3594 79.8145 42.7083 79.8145 43.1406C79.8145 43.5339 79.6986 43.8789 79.4668 44.1758C79.2376 44.4727 78.9225 44.7044 78.5215 44.8711C78.123 45.0352 77.6634 45.1172 77.1426 45.1172C76.3483 45.1172 75.7155 44.9518 75.2441 44.6211C74.7754 44.2878 74.5007 43.8346 74.4199 43.2617L76.0566 43.1758C76.1061 43.418 76.2259 43.6029 76.416 43.7305C76.6061 43.8555 76.8496 43.918 77.1465 43.918C77.4382 43.918 77.6725 43.862 77.8496 43.75C78.0293 43.6354 78.1204 43.4883 78.123 43.3086C78.1204 43.1576 78.0566 43.0339 77.9316 42.9375C77.8066 42.8385 77.6139 42.763 77.3535 42.7109L76.3145 42.5039C75.7285 42.3867 75.2923 42.1836 75.0059 41.8945C74.722 41.6055 74.5801 41.237 74.5801 40.7891C74.5801 40.4036 74.6842 40.0716 74.8926 39.793C75.1035 39.5143 75.3991 39.2995 75.7793 39.1484C76.1621 38.9974 76.61 38.9219 77.123 38.9219C77.8809 38.9219 78.4772 39.082 78.9121 39.4023C79.3496 39.7227 79.6048 40.1589 79.6777 40.7109ZM84.0537 39V40.25H80.4404V39H84.0537ZM81.2607 37.5625H82.9248V43.1562C82.9248 43.3099 82.9482 43.4297 82.9951 43.5156C83.042 43.599 83.1071 43.6576 83.1904 43.6914C83.2764 43.7253 83.3753 43.7422 83.4873 43.7422C83.5654 43.7422 83.6436 43.7357 83.7217 43.7227C83.7998 43.707 83.8597 43.6953 83.9014 43.6875L84.1631 44.9258C84.0798 44.9518 83.9626 44.9818 83.8115 45.0156C83.6605 45.0521 83.4769 45.0742 83.2607 45.082C82.8597 45.0977 82.5081 45.0443 82.2061 44.9219C81.9066 44.7995 81.6735 44.6094 81.5068 44.3516C81.3402 44.0937 81.2581 43.7682 81.2607 43.375V37.5625ZM85.1377 45V39H86.8018V45H85.1377ZM85.9736 38.2266C85.7262 38.2266 85.514 38.1445 85.3369 37.9805C85.1624 37.8138 85.0752 37.6146 85.0752 37.3828C85.0752 37.1536 85.1624 36.957 85.3369 36.793C85.514 36.6263 85.7262 36.543 85.9736 36.543C86.221 36.543 86.432 36.6263 86.6064 36.793C86.7835 36.957 86.8721 37.1536 86.8721 37.3828C86.8721 37.6146 86.7835 37.8138 86.6064 37.9805C86.432 38.1445 86.221 38.2266 85.9736 38.2266ZM90.8457 45.1172C90.2389 45.1172 89.7142 44.9883 89.2715 44.7305C88.8314 44.4701 88.4915 44.1081 88.252 43.6445C88.0124 43.1784 87.8926 42.638 87.8926 42.0234C87.8926 41.4036 88.0124 40.862 88.252 40.3984C88.4915 39.9323 88.8314 39.5703 89.2715 39.3125C89.7142 39.0521 90.2389 38.9219 90.8457 38.9219C91.4525 38.9219 91.9759 39.0521 92.416 39.3125C92.8587 39.5703 93.1999 39.9323 93.4395 40.3984C93.679 40.862 93.7988 41.4036 93.7988 42.0234C93.7988 42.638 93.679 43.1784 93.4395 43.6445C93.1999 44.1081 92.8587 44.4701 92.416 44.7305C91.9759 44.9883 91.4525 45.1172 90.8457 45.1172ZM90.8535 43.8281C91.1296 43.8281 91.36 43.75 91.5449 43.5938C91.7298 43.4349 91.8691 43.2187 91.9629 42.9453C92.0592 42.6719 92.1074 42.3607 92.1074 42.0117C92.1074 41.6628 92.0592 41.3516 91.9629 41.0781C91.8691 40.8047 91.7298 40.5885 91.5449 40.4297C91.36 40.2708 91.1296 40.1914 90.8535 40.1914C90.5749 40.1914 90.3405 40.2708 90.1504 40.4297C89.9629 40.5885 89.821 40.8047 89.7246 41.0781C89.6309 41.3516 89.584 41.6628 89.584 42.0117C89.584 42.3607 89.6309 42.6719 89.7246 42.9453C89.821 43.2187 89.9629 43.4349 90.1504 43.5938C90.3405 43.75 90.5749 43.8281 90.8535 43.8281ZM96.5449 41.5313V45H94.8809V39H96.4668V40.0586H96.5371C96.6699 39.7096 96.8926 39.4336 97.2051 39.2305C97.5176 39.0247 97.8965 38.9219 98.3418 38.9219C98.7585 38.9219 99.1217 39.013 99.4316 39.1953C99.7415 39.3776 99.9824 39.638 100.154 39.9766C100.326 40.3125 100.412 40.7135 100.412 41.1797V45H98.748V41.4766C98.7507 41.1094 98.6569 40.8229 98.4668 40.6172C98.2767 40.4089 98.015 40.3047 97.6816 40.3047C97.4577 40.3047 97.2598 40.3529 97.0879 40.4492C96.9186 40.5456 96.7858 40.6862 96.6895 40.8711C96.5957 41.0534 96.5475 41.2734 96.5449 41.5313ZM106.716 40.7109L105.192 40.8047C105.166 40.6745 105.11 40.5573 105.024 40.4531C104.938 40.3464 104.825 40.2617 104.685 40.1992C104.547 40.1341 104.381 40.1016 104.188 40.1016C103.931 40.1016 103.713 40.1562 103.536 40.2656C103.359 40.3724 103.271 40.5156 103.271 40.6953C103.271 40.8385 103.328 40.9596 103.442 41.0586C103.557 41.1576 103.754 41.237 104.032 41.2969L105.118 41.5156C105.701 41.6354 106.136 41.8281 106.423 42.0937C106.709 42.3594 106.853 42.7083 106.853 43.1406C106.853 43.5339 106.737 43.8789 106.505 44.1758C106.276 44.4727 105.961 44.7044 105.56 44.8711C105.161 45.0352 104.701 45.1172 104.181 45.1172C103.386 45.1172 102.754 44.9518 102.282 44.6211C101.813 44.2878 101.539 43.8346 101.458 43.2617L103.095 43.1758C103.144 43.418 103.264 43.6029 103.454 43.7305C103.644 43.8555 103.888 43.918 104.185 43.918C104.476 43.918 104.711 43.862 104.888 43.75C105.067 43.6354 105.159 43.4883 105.161 43.3086C105.159 43.1576 105.095 43.0339 104.97 42.9375C104.845 42.8385 104.652 42.763 104.392 42.7109L103.353 42.5039C102.767 42.3867 102.33 42.1836 102.044 41.8945C101.76 41.6055 101.618 41.237 101.618 40.7891C101.618 40.4036 101.722 40.0716 101.931 39.793C102.142 39.5143 102.437 39.2995 102.817 39.1484C103.2 38.9974 103.648 38.9219 104.161 38.9219C104.919 38.9219 105.515 39.082 105.95 39.4023C106.388 39.7227 106.643 40.1589 106.716 40.7109ZM111.856 45H110.044L112.806 37H114.985L117.743 45H115.931L113.927 38.8281H113.864L111.856 45ZM111.743 41.8555H116.024V43.1758H111.743V41.8555ZM118.706 45V37H120.37V40.0078H120.421C120.494 39.8464 120.599 39.6823 120.737 39.5156C120.878 39.3464 121.06 39.2057 121.284 39.0938C121.511 38.9792 121.792 38.9219 122.128 38.9219C122.565 38.9219 122.969 39.0365 123.339 39.2656C123.709 39.4922 124.004 39.8346 124.226 40.293C124.447 40.7487 124.558 41.3203 124.558 42.0078C124.558 42.6771 124.45 43.2422 124.233 43.7031C124.02 44.1615 123.728 44.5091 123.358 44.7461C122.991 44.9805 122.58 45.0977 122.124 45.0977C121.801 45.0977 121.526 45.0443 121.3 44.9375C121.076 44.8307 120.892 44.6966 120.749 44.5352C120.606 44.3711 120.496 44.2057 120.421 44.0391H120.347V45H118.706ZM120.335 42C120.335 42.3568 120.384 42.668 120.483 42.9336C120.582 43.1992 120.726 43.4062 120.913 43.5547C121.101 43.7005 121.328 43.7734 121.597 43.7734C121.868 43.7734 122.097 43.6992 122.284 43.5508C122.472 43.3997 122.614 43.1914 122.71 42.9258C122.809 42.6576 122.858 42.349 122.858 42C122.858 41.6536 122.81 41.349 122.714 41.0859C122.618 40.8229 122.476 40.6172 122.288 40.4687C122.101 40.3203 121.87 40.2461 121.597 40.2461C121.326 40.2461 121.097 40.3177 120.909 40.4609C120.724 40.6042 120.582 40.8073 120.483 41.0703C120.384 41.3333 120.335 41.6432 120.335 42ZM128.379 45.1172C127.772 45.1172 127.247 44.9883 126.805 44.7305C126.365 44.4701 126.025 44.1081 125.785 43.6445C125.546 43.1784 125.426 42.638 125.426 42.0234C125.426 41.4036 125.546 40.862 125.785 40.3984C126.025 39.9323 126.365 39.5703 126.805 39.3125C127.247 39.0521 127.772 38.9219 128.379 38.9219C128.986 38.9219 129.509 39.0521 129.949 39.3125C130.392 39.5703 130.733 39.9323 130.973 40.3984C131.212 40.862 131.332 41.4036 131.332 42.0234C131.332 42.638 131.212 43.1784 130.973 43.6445C130.733 44.1081 130.392 44.4701 129.949 44.7305C129.509 44.9883 128.986 45.1172 128.379 45.1172ZM128.387 43.8281C128.663 43.8281 128.893 43.75 129.078 43.5938C129.263 43.4349 129.402 43.2187 129.496 42.9453C129.592 42.6719 129.641 42.3607 129.641 42.0117C129.641 41.6628 129.592 41.3516 129.496 41.0781C129.402 40.8047 129.263 40.5885 129.078 40.4297C128.893 40.2708 128.663 40.1914 128.387 40.1914C128.108 40.1914 127.874 40.2708 127.684 40.4297C127.496 40.5885 127.354 40.8047 127.258 41.0781C127.164 41.3516 127.117 41.6628 127.117 42.0117C127.117 42.3607 127.164 42.6719 127.258 42.9453C127.354 43.2187 127.496 43.4349 127.684 43.5938C127.874 43.75 128.108 43.8281 128.387 43.8281ZM136.262 42.4453V39H137.926V45H136.328V43.9102H136.266C136.13 44.2617 135.905 44.5443 135.59 44.7578C135.277 44.9714 134.896 45.0781 134.445 45.0781C134.044 45.0781 133.691 44.987 133.387 44.8047C133.082 44.6224 132.844 44.3633 132.672 44.0273C132.503 43.6914 132.417 43.2891 132.414 42.8203V39H134.078V42.5234C134.081 42.8776 134.176 43.1576 134.363 43.3633C134.551 43.569 134.802 43.6719 135.117 43.6719C135.318 43.6719 135.505 43.6263 135.68 43.5352C135.854 43.4414 135.995 43.3034 136.102 43.1211C136.211 42.9388 136.264 42.7135 136.262 42.4453ZM142.448 39V40.25H138.835V39H142.448ZM139.655 37.5625H141.319V43.1562C141.319 43.3099 141.343 43.4297 141.39 43.5156C141.437 43.599 141.502 43.6576 141.585 43.6914C141.671 43.7253 141.77 43.7422 141.882 43.7422C141.96 43.7422 142.038 43.7357 142.116 43.7227C142.194 43.707 142.254 43.6953 142.296 43.6875L142.558 44.9258C142.474 44.9518 142.357 44.9818 142.206 45.0156C142.055 45.0521 141.871 45.0742 141.655 45.082C141.254 45.0977 140.903 45.0443 140.601 44.9219C140.301 44.7995 140.068 44.6094 139.901 44.3516C139.735 44.0937 139.653 43.7682 139.655 43.375V37.5625ZM148.945 45H146.109V37H148.969C149.773 37 150.466 37.1602 151.047 37.4805C151.628 37.7982 152.074 38.2552 152.387 38.8516C152.702 39.4479 152.859 40.1615 152.859 40.9922C152.859 41.8255 152.702 42.5417 152.387 43.1406C152.074 43.7396 151.625 44.1992 151.039 44.5195C150.456 44.8398 149.758 45 148.945 45ZM147.801 43.5508H148.875C149.375 43.5508 149.796 43.4622 150.137 43.2852C150.48 43.1055 150.738 42.8281 150.91 42.4531C151.085 42.0755 151.172 41.5885 151.172 40.9922C151.172 40.401 151.085 39.918 150.91 39.543C150.738 39.168 150.482 38.8919 150.141 38.7148C149.799 38.5378 149.379 38.4492 148.879 38.4492H147.801V43.5508ZM156.792 45.1172C156.185 45.1172 155.66 44.9883 155.218 44.7305C154.778 44.4701 154.438 44.1081 154.198 43.6445C153.959 43.1784 153.839 42.638 153.839 42.0234C153.839 41.4036 153.959 40.862 154.198 40.3984C154.438 39.9323 154.778 39.5703 155.218 39.3125C155.66 39.0521 156.185 38.9219 156.792 38.9219C157.399 38.9219 157.922 39.0521 158.362 39.3125C158.805 39.5703 159.146 39.9323 159.386 40.3984C159.625 40.862 159.745 41.4036 159.745 42.0234C159.745 42.638 159.625 43.1784 159.386 43.6445C159.146 44.1081 158.805 44.4701 158.362 44.7305C157.922 44.9883 157.399 45.1172 156.792 45.1172ZM156.8 43.8281C157.076 43.8281 157.306 43.75 157.491 43.5938C157.676 43.4349 157.815 43.2187 157.909 42.9453C158.006 42.6719 158.054 42.3607 158.054 42.0117C158.054 41.6628 158.006 41.3516 157.909 41.0781C157.815 40.8047 157.676 40.5885 157.491 40.4297C157.306 40.2708 157.076 40.1914 156.8 40.1914C156.521 40.1914 156.287 40.2708 156.097 40.4297C155.909 40.5885 155.767 40.8047 155.671 41.0781C155.577 41.3516 155.53 41.6628 155.53 42.0117C155.53 42.3607 155.577 42.6719 155.671 42.9453C155.767 43.2187 155.909 43.4349 156.097 43.5938C156.287 43.75 156.521 43.8281 156.8 43.8281ZM163.53 47.375C162.991 47.375 162.529 47.3008 162.144 47.1523C161.761 47.0065 161.456 46.8073 161.229 46.5547C161.003 46.3021 160.856 46.0182 160.788 45.7031L162.327 45.4961C162.374 45.6159 162.448 45.7279 162.55 45.832C162.651 45.9362 162.785 46.0195 162.952 46.082C163.121 46.1471 163.327 46.1797 163.569 46.1797C163.931 46.1797 164.229 46.0911 164.464 45.9141C164.701 45.7396 164.819 45.4466 164.819 45.0352V43.9375H164.749C164.676 44.1042 164.567 44.2617 164.421 44.4102C164.275 44.5586 164.088 44.6797 163.858 44.7734C163.629 44.8672 163.356 44.9141 163.038 44.9141C162.588 44.9141 162.177 44.8099 161.808 44.6016C161.44 44.3906 161.147 44.069 160.929 43.6367C160.713 43.2018 160.604 42.6523 160.604 41.9883C160.604 41.3086 160.715 40.7409 160.937 40.2852C161.158 39.8294 161.452 39.4883 161.819 39.2617C162.189 39.0352 162.594 38.9219 163.034 38.9219C163.37 38.9219 163.651 38.9792 163.878 39.0938C164.104 39.2057 164.287 39.3464 164.425 39.5156C164.565 39.6823 164.674 39.8464 164.749 40.0078H164.812V39H166.464V45.0586C166.464 45.569 166.339 45.9961 166.089 46.3398C165.839 46.6836 165.493 46.9414 165.05 47.1133C164.61 47.2878 164.103 47.375 163.53 47.375ZM163.565 43.6641C163.834 43.6641 164.06 43.5977 164.245 43.4648C164.433 43.3294 164.576 43.1367 164.675 42.8867C164.776 42.6341 164.827 42.332 164.827 41.9805C164.827 41.6289 164.778 41.3242 164.679 41.0664C164.58 40.806 164.437 40.6042 164.249 40.4609C164.062 40.3177 163.834 40.2461 163.565 40.2461C163.292 40.2461 163.062 40.3203 162.874 40.4687C162.687 40.6146 162.545 40.8177 162.448 41.0781C162.352 41.3385 162.304 41.6393 162.304 41.9805C162.304 42.3268 162.352 42.6263 162.448 42.8789C162.547 43.1289 162.689 43.3229 162.874 43.4609C163.062 43.5964 163.292 43.6641 163.565 43.6641ZM172.78 40.7109L171.257 40.8047C171.231 40.6745 171.175 40.5573 171.089 40.4531C171.003 40.3464 170.89 40.2617 170.749 40.1992C170.611 40.1341 170.446 40.1016 170.253 40.1016C169.995 40.1016 169.778 40.1562 169.601 40.2656C169.424 40.3724 169.335 40.5156 169.335 40.6953C169.335 40.8385 169.392 40.9596 169.507 41.0586C169.621 41.1576 169.818 41.237 170.097 41.2969L171.183 41.5156C171.766 41.6354 172.201 41.8281 172.487 42.0937C172.774 42.3594 172.917 42.7083 172.917 43.1406C172.917 43.5339 172.801 43.8789 172.569 44.1758C172.34 44.4727 172.025 44.7044 171.624 44.8711C171.226 45.0352 170.766 45.1172 170.245 45.1172C169.451 45.1172 168.818 44.9518 168.347 44.6211C167.878 44.2878 167.603 43.8346 167.522 43.2617L169.159 43.1758C169.209 43.418 169.328 43.6029 169.519 43.7305C169.709 43.8555 169.952 43.918 170.249 43.918C170.541 43.918 170.775 43.862 170.952 43.75C171.132 43.6354 171.223 43.4883 171.226 43.3086C171.223 43.1576 171.159 43.0339 171.034 42.9375C170.909 42.8385 170.716 42.763 170.456 42.7109L169.417 42.5039C168.831 42.3867 168.395 42.1836 168.108 41.8945C167.825 41.6055 167.683 41.237 167.683 40.7891C167.683 40.4036 167.787 40.0716 167.995 39.793C168.206 39.5143 168.502 39.2995 168.882 39.1484C169.265 38.9974 169.713 38.9219 170.226 38.9219C170.983 38.9219 171.58 39.082 172.015 39.4023C172.452 39.7227 172.707 40.1589 172.78 40.7109Z" fill="#5167F6"/>
</g>
</g>
</svg>
