<svg width="256" height="139" viewBox="0 0 256 139" fill="none" xmlns="http://www.w3.org/2000/svg">
<mask id="mask0_904_2147" style="mask-type:luminance" maskUnits="userSpaceOnUse" x="0" y="0" width="256" height="139">
<path d="M252.254 0H3.74634C1.67729 0 0 1.51786 0 3.39024V135.61C0 137.482 1.67729 139 3.74634 139H252.254C254.323 139 256 137.482 256 135.61V3.39024C256 1.51786 254.323 0 252.254 0Z" fill="white"/>
</mask>
<g mask="url(#mask0_904_2147)">
<path d="M252.254 0H3.74634C1.67729 0 0 1.49602 0 3.34146V133.659C0 135.504 1.67729 137 3.74634 137H252.254C254.323 137 256 135.504 256 133.659V3.34146C256 1.49602 254.323 0 252.254 0Z" fill="#5167F6"/>
<rect x="45" y="10" width="167" height="13" rx="4" fill="white"/>
<rect x="52" y="13" width="29" height="7" rx="2" fill="#5167F6"/>
<mask id="mask1_904_2147" style="mask-type:luminance" maskUnits="userSpaceOnUse" x="45" y="25" width="167" height="116">
<path d="M208.741 25H48.2585C46.4589 25 45 26.0119 45 27.2602V138.573C45 139.821 46.4589 140.833 48.2585 140.833H208.741C210.541 140.833 212 139.821 212 138.573V27.2602C212 26.0119 210.541 25 208.741 25Z" fill="white"/>
</mask>
<g mask="url(#mask1_904_2147)">
<path d="M208.741 28.439H48.2585C46.4589 28.439 45 29.4509 45 30.6991V142.012C45 143.26 46.4589 144.272 48.2585 144.272H208.741C210.541 144.272 212 143.26 212 142.012V30.6991C212 29.4509 210.541 28.439 208.741 28.439Z" fill="white"/>
<path d="M200.245 53.8779H56.0549C54.3677 53.8779 53 54.8266 53 55.9968V111.371C53 112.541 54.3677 113.49 56.0549 113.49H200.245C201.932 113.49 203.3 112.541 203.3 111.371V55.9968C203.3 54.8266 201.932 53.8779 200.245 53.8779Z" fill="white" stroke="#9F9F9F" stroke-width="0.5"/>
<path d="M123.66 64.6641H114.408C113.63 64.6641 113 65.2199 113 65.9057V65.9057C113 66.5914 113.63 67.1473 114.408 67.1473H123.66C124.438 67.1473 125.068 66.5914 125.068 65.9057V65.9057C125.068 65.2199 124.438 64.6641 123.66 64.6641Z" fill="#FF9F40"/>
<path d="M123.66 59.3872H114.408C113.63 59.3872 113 59.9431 113 60.6288V60.6288C113 61.3145 113.63 61.8704 114.408 61.8704H123.66C124.438 61.8704 125.068 61.3145 125.068 60.6288C125.068 59.9431 124.438 59.3872 123.66 59.3872Z" fill="#36A2EB"/>
<path d="M142.236 59.3872H132.984C132.206 59.3872 131.576 59.9431 131.576 60.6288V60.6288C131.576 61.3145 132.206 61.8704 132.984 61.8704H142.236C143.014 61.8704 143.644 61.3145 143.644 60.6288C143.644 59.9431 143.014 59.3872 142.236 59.3872Z" fill="#FF6384"/>
<path d="M142.236 64.6641H132.984C132.206 64.6641 131.576 65.2199 131.576 65.9057V65.9057C131.576 66.5914 132.206 67.1473 132.984 67.1473H142.236C143.014 67.1473 143.644 66.5914 143.644 65.9057V65.9057C143.644 65.2199 143.014 64.6641 142.236 64.6641Z" fill="#FFCD56"/>
<path d="M128.448 71.1821C134.48 71.1821 140.264 73.0298 144.53 76.3189C148.794 79.608 151.191 84.0684 151.191 88.7199C151.191 93.3713 148.794 97.8323 144.53 101.121C140.264 104.41 134.48 106.258 128.448 106.258V88.7199V71.1821Z" fill="#36A2EB"/>
<path d="M109.912 79.2338C111.982 76.8222 114.758 74.8366 118 73.4506C121.241 72.0646 124.849 71.3193 128.51 71.2803L128.448 89.0305L109.912 79.2338Z" fill="#FACE66"/>
<path d="M109.132 97.8496C106.995 94.9679 105.912 91.6816 106.006 88.3643C106.099 85.0469 107.364 81.8307 109.66 79.0801L128.448 89.0304L109.132 97.8496Z" fill="#FF9F40"/>
<path d="M128.448 106.258C124.554 106.258 120.725 105.494 117.328 104.039C113.931 102.583 111.081 100.486 109.048 97.9472L128.448 88.8755V106.258Z" fill="#FF6384"/>
<path d="M195.394 60.292L197.704 58.5197C197.743 58.4901 197.764 58.4512 197.763 58.4111C197.762 58.3709 197.739 58.3325 197.699 58.304L197.697 58.3021C197.678 58.2882 197.655 58.2773 197.629 58.2699C197.603 58.2625 197.576 58.2589 197.549 58.2593C197.521 58.2596 197.494 58.2639 197.469 58.272C197.444 58.28 197.421 58.2916 197.402 58.3059L195.227 59.9749L192.986 58.3627C192.966 58.3488 192.944 58.3378 192.918 58.3304C192.892 58.323 192.865 58.3194 192.838 58.3198C192.81 58.3201 192.783 58.3245 192.758 58.3325C192.733 58.3405 192.71 58.352 192.691 58.3664L192.689 58.3684C192.65 58.3979 192.629 58.4368 192.63 58.477C192.631 58.5171 192.653 58.5555 192.693 58.584L195.074 60.2962C195.095 60.3112 195.12 60.3231 195.147 60.3311C195.175 60.339 195.205 60.3429 195.234 60.3426C195.265 60.3422 195.294 60.3375 195.322 60.3288C195.348 60.3201 195.374 60.3076 195.394 60.292Z" fill="#9F9F9F"/>
<path d="M200.245 117.878H56.0549C54.3677 117.878 53 118.827 53 119.997V154.464C53 155.635 54.3677 156.583 56.0549 156.583H200.245C201.932 156.583 203.3 155.635 203.3 154.464V119.997C203.3 118.827 201.932 117.878 200.245 117.878Z" fill="white" stroke="#9F9F9F" stroke-width="0.5"/>
<path d="M194.673 128.473H61.8878C59.1883 128.473 57 129.991 57 131.863V135.818C57 137.691 59.1883 139.208 61.8878 139.208H194.673C197.373 139.208 199.561 137.691 199.561 135.818V131.863C199.561 129.991 197.373 128.473 194.673 128.473Z" fill="#EBEBEB"/>
<path d="M195.681 124.292L197.991 122.52C198.029 122.49 198.05 122.451 198.05 122.411C198.049 122.371 198.026 122.333 197.986 122.304L197.984 122.302C197.965 122.288 197.941 122.277 197.916 122.27C197.891 122.263 197.863 122.259 197.835 122.259C197.808 122.26 197.781 122.264 197.756 122.272C197.73 122.28 197.708 122.291 197.689 122.306L195.514 123.975L193.273 122.363C193.253 122.349 193.23 122.338 193.205 122.33C193.179 122.323 193.152 122.32 193.124 122.32C193.097 122.32 193.07 122.324 193.045 122.333C193.019 122.341 192.996 122.352 192.978 122.367L192.975 122.368C192.937 122.398 192.916 122.437 192.917 122.477C192.917 122.518 192.94 122.555 192.979 122.584L195.361 124.296C195.382 124.312 195.407 124.323 195.435 124.331C195.462 124.339 195.492 124.343 195.522 124.343C195.551 124.342 195.581 124.338 195.608 124.329C195.636 124.32 195.66 124.308 195.681 124.292Z" fill="#9F9F9F"/>
<path d="M55.7148 41.6577H57.1523L57.875 42.5874L58.5859 43.4155L59.9258 45.0952H58.3477L57.4258 43.9624L56.9531 43.2905L55.7148 41.6577ZM60.0469 40.439C60.0469 41.3114 59.8815 42.0535 59.5508 42.6655C59.2227 43.2775 58.7747 43.745 58.207 44.0679C57.6419 44.3882 57.0065 44.5483 56.3008 44.5483C55.5898 44.5483 54.9518 44.3869 54.3867 44.064C53.8216 43.741 53.375 43.2736 53.0469 42.6616C52.7188 42.0496 52.5547 41.3088 52.5547 40.439C52.5547 39.5666 52.7188 38.8244 53.0469 38.2124C53.375 37.6004 53.8216 37.1343 54.3867 36.814C54.9518 36.491 55.5898 36.3296 56.3008 36.3296C57.0065 36.3296 57.6419 36.491 58.207 36.814C58.7747 37.1343 59.2227 37.6004 59.5508 38.2124C59.8815 38.8244 60.0469 39.5666 60.0469 40.439ZM58.332 40.439C58.332 39.8739 58.2474 39.3973 58.0781 39.0093C57.9115 38.6213 57.6758 38.327 57.3711 38.1265C57.0664 37.9259 56.7096 37.8257 56.3008 37.8257C55.8919 37.8257 55.5352 37.9259 55.2305 38.1265C54.9258 38.327 54.6888 38.6213 54.5195 39.0093C54.3529 39.3973 54.2695 39.8739 54.2695 40.439C54.2695 41.0041 54.3529 41.4806 54.5195 41.8687C54.6888 42.2567 54.9258 42.5509 55.2305 42.7515C55.5352 42.952 55.8919 43.0522 56.3008 43.0522C56.7096 43.0522 57.0664 42.952 57.3711 42.7515C57.6758 42.5509 57.9115 42.2567 58.0781 41.8687C58.2474 41.4806 58.332 41.0041 58.332 40.439ZM65.1162 41.8843V38.439H66.7803V44.439H65.1826V43.3491H65.1201C64.9847 43.7007 64.7594 43.9832 64.4443 44.1968C64.1318 44.4103 63.7503 44.5171 63.2998 44.5171C62.8988 44.5171 62.5459 44.4259 62.2412 44.2437C61.9365 44.0614 61.6982 43.8022 61.5264 43.4663C61.3571 43.1304 61.2712 42.728 61.2686 42.2593V38.439H62.9326V41.9624C62.9352 42.3166 63.0303 42.5965 63.2178 42.8022C63.4053 43.008 63.6566 43.1108 63.9717 43.1108C64.1722 43.1108 64.3597 43.0653 64.5342 42.9741C64.7087 42.8804 64.8493 42.7424 64.9561 42.5601C65.0654 42.3778 65.1188 42.1525 65.1162 41.8843ZM70.8457 44.5562C70.2285 44.5562 69.6973 44.4312 69.252 44.1812C68.8092 43.9285 68.4681 43.5718 68.2285 43.1108C67.9889 42.6473 67.8691 42.0991 67.8691 41.4663C67.8691 40.8491 67.9889 40.3075 68.2285 39.8413C68.4681 39.3752 68.8053 39.0119 69.2402 38.7515C69.6777 38.491 70.1908 38.3608 70.7793 38.3608C71.1751 38.3608 71.5436 38.4246 71.8848 38.5522C72.2285 38.6772 72.528 38.866 72.7832 39.1187C73.041 39.3713 73.2415 39.689 73.3848 40.0718C73.528 40.452 73.5996 40.8973 73.5996 41.4077V41.8647H68.5332V40.8335H72.0332C72.0332 40.5939 71.9811 40.3817 71.877 40.1968C71.7728 40.0119 71.6283 39.8674 71.4434 39.7632C71.2611 39.6564 71.0488 39.603 70.8066 39.603C70.554 39.603 70.3301 39.6616 70.1348 39.7788C69.9421 39.8934 69.791 40.0483 69.6816 40.2437C69.5723 40.4364 69.5163 40.6512 69.5137 40.8882V41.8687C69.5137 42.1655 69.5684 42.422 69.6777 42.6382C69.7897 42.8543 69.9473 43.021 70.1504 43.1382C70.3535 43.2554 70.5944 43.314 70.873 43.314C71.0579 43.314 71.2272 43.2879 71.3809 43.2358C71.5345 43.1838 71.666 43.1056 71.7754 43.0015C71.8848 42.8973 71.9681 42.7697 72.0254 42.6187L73.5645 42.7202C73.4863 43.09 73.3262 43.4129 73.084 43.689C72.8444 43.9624 72.5345 44.1759 72.1543 44.3296C71.7767 44.4806 71.3405 44.5562 70.8457 44.5562ZM79.6777 40.1499L78.1543 40.2437C78.1283 40.1134 78.0723 39.9963 77.9863 39.8921C77.9004 39.7853 77.7871 39.7007 77.6465 39.6382C77.5085 39.5731 77.3431 39.5405 77.1504 39.5405C76.8926 39.5405 76.6751 39.5952 76.498 39.7046C76.321 39.8114 76.2324 39.9546 76.2324 40.1343C76.2324 40.2775 76.2897 40.3986 76.4043 40.4976C76.5189 40.5965 76.7155 40.6759 76.9941 40.7358L78.0801 40.9546C78.6634 41.0744 79.0983 41.2671 79.3848 41.5327C79.6712 41.7983 79.8145 42.1473 79.8145 42.5796C79.8145 42.9728 79.6986 43.3179 79.4668 43.6147C79.2376 43.9116 78.9225 44.1434 78.5215 44.3101C78.123 44.4741 77.6634 44.5562 77.1426 44.5562C76.3483 44.5562 75.7155 44.3908 75.2441 44.0601C74.7754 43.7267 74.5007 43.2736 74.4199 42.7007L76.0566 42.6147C76.1061 42.8569 76.2259 43.0418 76.416 43.1694C76.6061 43.2944 76.8496 43.3569 77.1465 43.3569C77.4382 43.3569 77.6725 43.3009 77.8496 43.189C78.0293 43.0744 78.1204 42.9272 78.123 42.7476C78.1204 42.5965 78.0566 42.4728 77.9316 42.3765C77.8066 42.2775 77.6139 42.202 77.3535 42.1499L76.3145 41.9429C75.7285 41.8257 75.2923 41.6226 75.0059 41.3335C74.722 41.0444 74.5801 40.6759 74.5801 40.228C74.5801 39.8426 74.6842 39.5106 74.8926 39.2319C75.1035 38.9533 75.3991 38.7384 75.7793 38.5874C76.1621 38.4364 76.61 38.3608 77.123 38.3608C77.8809 38.3608 78.4772 38.521 78.9121 38.8413C79.3496 39.1616 79.6048 39.5978 79.6777 40.1499ZM84.0537 38.439V39.689H80.4404V38.439H84.0537ZM81.2607 37.0015H82.9248V42.5952C82.9248 42.7489 82.9482 42.8687 82.9951 42.9546C83.042 43.0379 83.1071 43.0965 83.1904 43.1304C83.2764 43.1642 83.3753 43.1812 83.4873 43.1812C83.5654 43.1812 83.6436 43.1746 83.7217 43.1616C83.7998 43.146 83.8597 43.1343 83.9014 43.1265L84.1631 44.3647C84.0798 44.3908 83.9626 44.4207 83.8115 44.4546C83.6605 44.491 83.4769 44.5132 83.2607 44.521C82.8597 44.5366 82.5081 44.4832 82.2061 44.3608C81.9066 44.2384 81.6735 44.0483 81.5068 43.7905C81.3402 43.5327 81.2581 43.2072 81.2607 42.814V37.0015ZM85.1377 44.439V38.439H86.8018V44.439H85.1377ZM85.9736 37.6655C85.7262 37.6655 85.514 37.5835 85.3369 37.4194C85.1624 37.2528 85.0752 37.0535 85.0752 36.8218C85.0752 36.5926 85.1624 36.396 85.3369 36.2319C85.514 36.0653 85.7262 35.9819 85.9736 35.9819C86.221 35.9819 86.432 36.0653 86.6064 36.2319C86.7835 36.396 86.8721 36.5926 86.8721 36.8218C86.8721 37.0535 86.7835 37.2528 86.6064 37.4194C86.432 37.5835 86.221 37.6655 85.9736 37.6655ZM90.8457 44.5562C90.2389 44.5562 89.7142 44.4272 89.2715 44.1694C88.8314 43.909 88.4915 43.547 88.252 43.0835C88.0124 42.6174 87.8926 42.077 87.8926 41.4624C87.8926 40.8426 88.0124 40.3009 88.252 39.8374C88.4915 39.3713 88.8314 39.0093 89.2715 38.7515C89.7142 38.491 90.2389 38.3608 90.8457 38.3608C91.4525 38.3608 91.9759 38.491 92.416 38.7515C92.8587 39.0093 93.1999 39.3713 93.4395 39.8374C93.679 40.3009 93.7988 40.8426 93.7988 41.4624C93.7988 42.077 93.679 42.6174 93.4395 43.0835C93.1999 43.547 92.8587 43.909 92.416 44.1694C91.9759 44.4272 91.4525 44.5562 90.8457 44.5562ZM90.8535 43.2671C91.1296 43.2671 91.36 43.189 91.5449 43.0327C91.7298 42.8739 91.8691 42.6577 91.9629 42.3843C92.0592 42.1108 92.1074 41.7996 92.1074 41.4507C92.1074 41.1017 92.0592 40.7905 91.9629 40.5171C91.8691 40.2437 91.7298 40.0275 91.5449 39.8687C91.36 39.7098 91.1296 39.6304 90.8535 39.6304C90.5749 39.6304 90.3405 39.7098 90.1504 39.8687C89.9629 40.0275 89.821 40.2437 89.7246 40.5171C89.6309 40.7905 89.584 41.1017 89.584 41.4507C89.584 41.7996 89.6309 42.1108 89.7246 42.3843C89.821 42.6577 89.9629 42.8739 90.1504 43.0327C90.3405 43.189 90.5749 43.2671 90.8535 43.2671ZM96.5449 40.9702V44.439H94.8809V38.439H96.4668V39.4976H96.5371C96.6699 39.1486 96.8926 38.8726 97.2051 38.6694C97.5176 38.4637 97.8965 38.3608 98.3418 38.3608C98.7585 38.3608 99.1217 38.452 99.4316 38.6343C99.7415 38.8166 99.9824 39.077 100.154 39.4155C100.326 39.7515 100.412 40.1525 100.412 40.6187V44.439H98.748V40.9155C98.7507 40.5483 98.6569 40.2619 98.4668 40.0562C98.2767 39.8478 98.015 39.7437 97.6816 39.7437C97.4577 39.7437 97.2598 39.7918 97.0879 39.8882C96.9186 39.9845 96.7858 40.1252 96.6895 40.3101C96.5957 40.4924 96.5475 40.7124 96.5449 40.9702ZM106.716 40.1499L105.192 40.2437C105.166 40.1134 105.11 39.9963 105.024 39.8921C104.938 39.7853 104.825 39.7007 104.685 39.6382C104.547 39.5731 104.381 39.5405 104.188 39.5405C103.931 39.5405 103.713 39.5952 103.536 39.7046C103.359 39.8114 103.271 39.9546 103.271 40.1343C103.271 40.2775 103.328 40.3986 103.442 40.4976C103.557 40.5965 103.754 40.6759 104.032 40.7358L105.118 40.9546C105.701 41.0744 106.136 41.2671 106.423 41.5327C106.709 41.7983 106.853 42.1473 106.853 42.5796C106.853 42.9728 106.737 43.3179 106.505 43.6147C106.276 43.9116 105.961 44.1434 105.56 44.3101C105.161 44.4741 104.701 44.5562 104.181 44.5562C103.386 44.5562 102.754 44.3908 102.282 44.0601C101.813 43.7267 101.539 43.2736 101.458 42.7007L103.095 42.6147C103.144 42.8569 103.264 43.0418 103.454 43.1694C103.644 43.2944 103.888 43.3569 104.185 43.3569C104.476 43.3569 104.711 43.3009 104.888 43.189C105.067 43.0744 105.159 42.9272 105.161 42.7476C105.159 42.5965 105.095 42.4728 104.97 42.3765C104.845 42.2775 104.652 42.202 104.392 42.1499L103.353 41.9429C102.767 41.8257 102.33 41.6226 102.044 41.3335C101.76 41.0444 101.618 40.6759 101.618 40.228C101.618 39.8426 101.722 39.5106 101.931 39.2319C102.142 38.9533 102.437 38.7384 102.817 38.5874C103.2 38.4364 103.648 38.3608 104.161 38.3608C104.919 38.3608 105.515 38.521 105.95 38.8413C106.388 39.1616 106.643 39.5978 106.716 40.1499ZM111.856 44.439H110.044L112.806 36.439H114.985L117.743 44.439H115.931L113.927 38.2671H113.864L111.856 44.439ZM111.743 41.2944H116.024V42.6147H111.743V41.2944ZM118.706 44.439V36.439H120.37V39.4468H120.421C120.494 39.2853 120.599 39.1213 120.737 38.9546C120.878 38.7853 121.06 38.6447 121.284 38.5327C121.511 38.4181 121.792 38.3608 122.128 38.3608C122.565 38.3608 122.969 38.4754 123.339 38.7046C123.709 38.9312 124.004 39.2736 124.226 39.7319C124.447 40.1877 124.558 40.7593 124.558 41.4468C124.558 42.116 124.45 42.6812 124.233 43.1421C124.02 43.6004 123.728 43.9481 123.358 44.1851C122.991 44.4194 122.58 44.5366 122.124 44.5366C121.801 44.5366 121.526 44.4832 121.3 44.3765C121.076 44.2697 120.892 44.1356 120.749 43.9741C120.606 43.8101 120.496 43.6447 120.421 43.478H120.347V44.439H118.706ZM120.335 41.439C120.335 41.7957 120.384 42.1069 120.483 42.3726C120.582 42.6382 120.726 42.8452 120.913 42.9937C121.101 43.1395 121.328 43.2124 121.597 43.2124C121.868 43.2124 122.097 43.1382 122.284 42.9897C122.472 42.8387 122.614 42.6304 122.71 42.3647C122.809 42.0965 122.858 41.7879 122.858 41.439C122.858 41.0926 122.81 40.7879 122.714 40.5249C122.618 40.2619 122.476 40.0562 122.288 39.9077C122.101 39.7593 121.87 39.6851 121.597 39.6851C121.326 39.6851 121.097 39.7567 120.909 39.8999C120.724 40.0431 120.582 40.2463 120.483 40.5093C120.384 40.7723 120.335 41.0822 120.335 41.439ZM128.379 44.5562C127.772 44.5562 127.247 44.4272 126.805 44.1694C126.365 43.909 126.025 43.547 125.785 43.0835C125.546 42.6174 125.426 42.077 125.426 41.4624C125.426 40.8426 125.546 40.3009 125.785 39.8374C126.025 39.3713 126.365 39.0093 126.805 38.7515C127.247 38.491 127.772 38.3608 128.379 38.3608C128.986 38.3608 129.509 38.491 129.949 38.7515C130.392 39.0093 130.733 39.3713 130.973 39.8374C131.212 40.3009 131.332 40.8426 131.332 41.4624C131.332 42.077 131.212 42.6174 130.973 43.0835C130.733 43.547 130.392 43.909 129.949 44.1694C129.509 44.4272 128.986 44.5562 128.379 44.5562ZM128.387 43.2671C128.663 43.2671 128.893 43.189 129.078 43.0327C129.263 42.8739 129.402 42.6577 129.496 42.3843C129.592 42.1108 129.641 41.7996 129.641 41.4507C129.641 41.1017 129.592 40.7905 129.496 40.5171C129.402 40.2437 129.263 40.0275 129.078 39.8687C128.893 39.7098 128.663 39.6304 128.387 39.6304C128.108 39.6304 127.874 39.7098 127.684 39.8687C127.496 40.0275 127.354 40.2437 127.258 40.5171C127.164 40.7905 127.117 41.1017 127.117 41.4507C127.117 41.7996 127.164 42.1108 127.258 42.3843C127.354 42.6577 127.496 42.8739 127.684 43.0327C127.874 43.189 128.108 43.2671 128.387 43.2671ZM136.262 41.8843V38.439H137.926V44.439H136.328V43.3491H136.266C136.13 43.7007 135.905 43.9832 135.59 44.1968C135.277 44.4103 134.896 44.5171 134.445 44.5171C134.044 44.5171 133.691 44.4259 133.387 44.2437C133.082 44.0614 132.844 43.8022 132.672 43.4663C132.503 43.1304 132.417 42.728 132.414 42.2593V38.439H134.078V41.9624C134.081 42.3166 134.176 42.5965 134.363 42.8022C134.551 43.008 134.802 43.1108 135.117 43.1108C135.318 43.1108 135.505 43.0653 135.68 42.9741C135.854 42.8804 135.995 42.7424 136.102 42.5601C136.211 42.3778 136.264 42.1525 136.262 41.8843ZM142.448 38.439V39.689H138.835V38.439H142.448ZM139.655 37.0015H141.319V42.5952C141.319 42.7489 141.343 42.8687 141.39 42.9546C141.437 43.0379 141.502 43.0965 141.585 43.1304C141.671 43.1642 141.77 43.1812 141.882 43.1812C141.96 43.1812 142.038 43.1746 142.116 43.1616C142.194 43.146 142.254 43.1343 142.296 43.1265L142.558 44.3647C142.474 44.3908 142.357 44.4207 142.206 44.4546C142.055 44.491 141.871 44.5132 141.655 44.521C141.254 44.5366 140.903 44.4832 140.601 44.3608C140.301 44.2384 140.068 44.0483 139.901 43.7905C139.735 43.5327 139.653 43.2072 139.655 42.814V37.0015ZM148.945 44.439H146.109V36.439H148.969C149.773 36.439 150.466 36.5991 151.047 36.9194C151.628 37.2371 152.074 37.6942 152.387 38.2905C152.702 38.8869 152.859 39.6004 152.859 40.4312C152.859 41.2645 152.702 41.9806 152.387 42.5796C152.074 43.1785 151.625 43.6382 151.039 43.9585C150.456 44.2788 149.758 44.439 148.945 44.439ZM147.801 42.9897H148.875C149.375 42.9897 149.796 42.9012 150.137 42.7241C150.48 42.5444 150.738 42.2671 150.91 41.8921C151.085 41.5145 151.172 41.0275 151.172 40.4312C151.172 39.84 151.085 39.3569 150.91 38.9819C150.738 38.6069 150.482 38.3309 150.141 38.1538C149.799 37.9767 149.379 37.8882 148.879 37.8882H147.801V42.9897ZM156.792 44.5562C156.185 44.5562 155.66 44.4272 155.218 44.1694C154.778 43.909 154.438 43.547 154.198 43.0835C153.959 42.6174 153.839 42.077 153.839 41.4624C153.839 40.8426 153.959 40.3009 154.198 39.8374C154.438 39.3713 154.778 39.0093 155.218 38.7515C155.66 38.491 156.185 38.3608 156.792 38.3608C157.399 38.3608 157.922 38.491 158.362 38.7515C158.805 39.0093 159.146 39.3713 159.386 39.8374C159.625 40.3009 159.745 40.8426 159.745 41.4624C159.745 42.077 159.625 42.6174 159.386 43.0835C159.146 43.547 158.805 43.909 158.362 44.1694C157.922 44.4272 157.399 44.5562 156.792 44.5562ZM156.8 43.2671C157.076 43.2671 157.306 43.189 157.491 43.0327C157.676 42.8739 157.815 42.6577 157.909 42.3843C158.006 42.1108 158.054 41.7996 158.054 41.4507C158.054 41.1017 158.006 40.7905 157.909 40.5171C157.815 40.2437 157.676 40.0275 157.491 39.8687C157.306 39.7098 157.076 39.6304 156.8 39.6304C156.521 39.6304 156.287 39.7098 156.097 39.8687C155.909 40.0275 155.767 40.2437 155.671 40.5171C155.577 40.7905 155.53 41.1017 155.53 41.4507C155.53 41.7996 155.577 42.1108 155.671 42.3843C155.767 42.6577 155.909 42.8739 156.097 43.0327C156.287 43.189 156.521 43.2671 156.8 43.2671ZM163.53 46.814C162.991 46.814 162.529 46.7397 162.144 46.5913C161.761 46.4455 161.456 46.2463 161.229 45.9937C161.003 45.741 160.856 45.4572 160.788 45.1421L162.327 44.9351C162.374 45.0549 162.448 45.1668 162.55 45.271C162.651 45.3752 162.785 45.4585 162.952 45.521C163.121 45.5861 163.327 45.6187 163.569 45.6187C163.931 45.6187 164.229 45.5301 164.464 45.353C164.701 45.1785 164.819 44.8856 164.819 44.4741V43.3765H164.749C164.676 43.5431 164.567 43.7007 164.421 43.8491C164.275 43.9976 164.088 44.1187 163.858 44.2124C163.629 44.3062 163.356 44.353 163.038 44.353C162.588 44.353 162.177 44.2489 161.808 44.0405C161.44 43.8296 161.147 43.508 160.929 43.0757C160.713 42.6408 160.604 42.0913 160.604 41.4272C160.604 40.7476 160.715 40.1799 160.937 39.7241C161.158 39.2684 161.452 38.9272 161.819 38.7007C162.189 38.4741 162.594 38.3608 163.034 38.3608C163.37 38.3608 163.651 38.4181 163.878 38.5327C164.104 38.6447 164.287 38.7853 164.425 38.9546C164.565 39.1213 164.674 39.2853 164.749 39.4468H164.812V38.439H166.464V44.4976C166.464 45.008 166.339 45.4351 166.089 45.7788C165.839 46.1226 165.493 46.3804 165.05 46.5522C164.61 46.7267 164.103 46.814 163.53 46.814ZM163.565 43.103C163.834 43.103 164.06 43.0366 164.245 42.9038C164.433 42.7684 164.576 42.5757 164.675 42.3257C164.776 42.0731 164.827 41.771 164.827 41.4194C164.827 41.0679 164.778 40.7632 164.679 40.5054C164.58 40.245 164.437 40.0431 164.249 39.8999C164.062 39.7567 163.834 39.6851 163.565 39.6851C163.292 39.6851 163.062 39.7593 162.874 39.9077C162.687 40.0535 162.545 40.2567 162.448 40.5171C162.352 40.7775 162.304 41.0783 162.304 41.4194C162.304 41.7658 162.352 42.0653 162.448 42.3179C162.547 42.5679 162.689 42.7619 162.874 42.8999C163.062 43.0353 163.292 43.103 163.565 43.103ZM172.78 40.1499L171.257 40.2437C171.231 40.1134 171.175 39.9963 171.089 39.8921C171.003 39.7853 170.89 39.7007 170.749 39.6382C170.611 39.5731 170.446 39.5405 170.253 39.5405C169.995 39.5405 169.778 39.5952 169.601 39.7046C169.424 39.8114 169.335 39.9546 169.335 40.1343C169.335 40.2775 169.392 40.3986 169.507 40.4976C169.621 40.5965 169.818 40.6759 170.097 40.7358L171.183 40.9546C171.766 41.0744 172.201 41.2671 172.487 41.5327C172.774 41.7983 172.917 42.1473 172.917 42.5796C172.917 42.9728 172.801 43.3179 172.569 43.6147C172.34 43.9116 172.025 44.1434 171.624 44.3101C171.226 44.4741 170.766 44.5562 170.245 44.5562C169.451 44.5562 168.818 44.3908 168.347 44.0601C167.878 43.7267 167.603 43.2736 167.522 42.7007L169.159 42.6147C169.209 42.8569 169.328 43.0418 169.519 43.1694C169.709 43.2944 169.952 43.3569 170.249 43.3569C170.541 43.3569 170.775 43.3009 170.952 43.189C171.132 43.0744 171.223 42.9272 171.226 42.7476C171.223 42.5965 171.159 42.4728 171.034 42.3765C170.909 42.2775 170.716 42.202 170.456 42.1499L169.417 41.9429C168.831 41.8257 168.395 41.6226 168.108 41.3335C167.825 41.0444 167.683 40.6759 167.683 40.228C167.683 39.8426 167.787 39.5106 167.995 39.2319C168.206 38.9533 168.502 38.7384 168.882 38.5874C169.265 38.4364 169.713 38.3608 170.226 38.3608C170.983 38.3608 171.58 38.521 172.015 38.8413C172.452 39.1616 172.707 39.5978 172.78 40.1499Z" fill="#5167F6"/>
</g>
</g>
</svg>
