<svg width="22" height="22" viewBox="0 0 22 22" fill="none" xmlns="http://www.w3.org/2000/svg">
<path fill-rule="evenodd" clip-rule="evenodd" d="M10.8 0H10.7C10.036 0 9.463 3.72529e-08 9.004 0.062C8.513 0.128 8.041 0.277 7.659 0.659C7.277 1.041 7.128 1.513 7.062 2.004C7 2.463 7 3.036 7 3.701V6.128C6.7591 6.04299 6.50546 5.9997 6.25 6H3.25C2.95453 6 2.66194 6.0582 2.38896 6.17127C2.11598 6.28434 1.86794 6.45008 1.65901 6.65901C1.45008 6.86794 1.28434 7.11598 1.17127 7.38896C1.0582 7.66195 1 7.95453 1 8.25V20H0.75C0.551088 20 0.360322 20.079 0.21967 20.2197C0.0790177 20.3603 0 20.5511 0 20.75C0 20.9489 0.0790177 21.1397 0.21967 21.2803C0.360322 21.421 0.551088 21.5 0.75 21.5H20.75C20.9489 21.5 21.1397 21.421 21.2803 21.2803C21.421 21.1397 21.5 20.9489 21.5 20.75C21.5 20.5511 21.421 20.3603 21.2803 20.2197C21.1397 20.079 20.9489 20 20.75 20H20.5V13.25C20.5 12.6533 20.2629 12.081 19.841 11.659C19.419 11.2371 18.8467 11 18.25 11H15.25C14.987 11 14.735 11.045 14.5 11.128V3.701C14.5 3.036 14.5 2.463 14.438 2.004C14.372 1.513 14.223 1.041 13.841 0.659C13.459 0.277 12.988 0.128 12.496 0.062C12.037 3.72529e-08 11.464 0 10.799 0H10.8ZM19 20V13.25C19 13.0511 18.921 12.8603 18.7803 12.7197C18.6397 12.579 18.4489 12.5 18.25 12.5H15.25C15.0511 12.5 14.8603 12.579 14.7197 12.7197C14.579 12.8603 14.5 13.0511 14.5 13.25V20H19ZM13 20V3.75C13 3.022 12.998 2.55 12.952 2.204C12.908 1.879 12.837 1.777 12.78 1.72C12.723 1.663 12.621 1.592 12.296 1.548C11.949 1.502 11.478 1.5 10.75 1.5C10.022 1.5 9.55 1.502 9.204 1.548C8.879 1.592 8.777 1.663 8.72 1.72C8.663 1.777 8.592 1.879 8.548 2.204C8.502 2.551 8.5 3.022 8.5 3.75V20H13ZM7 20V8.25C7 8.05109 6.92098 7.86032 6.78033 7.71967C6.63968 7.57902 6.44891 7.5 6.25 7.5H3.25C3.05109 7.5 2.86032 7.57902 2.71967 7.71967C2.57902 7.86032 2.5 8.05109 2.5 8.25V20H7Z" fill="black"/>
</svg>
